<?xml version="1.0" encoding="UTF-8"?>
<!DOCTYPE svg PUBLIC "-//W3C//DTD SVG 1.1//EN" "http://www.w3.org/Graphics/SVG/1.1/DTD/svg11.dtd">
<svg xmlns="http://www.w3.org/2000/svg" version="1.1" width="607px" height="680px" style="shape-rendering:geometricPrecision; text-rendering:geometricPrecision; image-rendering:optimizeQuality; fill-rule:evenodd; clip-rule:evenodd" xmlns:xlink="http://www.w3.org/1999/xlink">
<g><path style="opacity:0.918" fill="#666666" d="M 270.5,258.5 C 269.599,257.71 268.932,256.71 268.5,255.5C 268.267,253.938 267.6,252.605 266.5,251.5C 267.665,193.335 267.832,135.001 267,76.5C 264.435,68.0945 258.935,63.0945 250.5,61.5C 257.981,58.4551 263.814,60.7885 268,68.5C 268.862,70.087 269.529,71.7536 270,73.5C 270.5,135.166 270.667,196.832 270.5,258.5 Z"/></g>
<g><path style="opacity:0.996" fill="#cacaca" d="M 250.5,61.5 C 258.935,63.0945 264.435,68.0945 267,76.5C 267.832,135.001 267.665,193.335 266.5,251.5C 262.856,242.669 256.189,238.336 246.5,238.5C 248.55,236.453 250.883,234.786 253.5,233.5C 254.659,235.377 256.326,235.877 258.5,235C 259.734,228.724 257.068,225.558 250.5,225.5C 250.325,227.621 250.659,229.621 251.5,231.5C 249.858,232.803 248.191,234.136 246.5,235.5C 246.5,223.5 246.5,211.5 246.5,199.5C 248.25,198.13 250.25,197.13 252.5,196.5C 254.132,199.073 256.298,199.739 259,198.5C 259.556,193.608 257.556,190.275 253,188.5C 250.327,189.858 249.827,191.858 251.5,194.5C 249.95,195.441 248.284,196.107 246.5,196.5C 246.5,184.833 246.5,173.167 246.5,161.5C 248.302,160.542 250.302,159.875 252.5,159.5C 255.207,164.553 257.54,164.553 259.5,159.5C 258.67,154.82 256.004,152.653 251.5,153C 250.62,154.356 250.286,155.856 250.5,157.5C 249.292,158.234 247.959,158.567 246.5,158.5C 246.5,149.5 246.5,140.5 246.5,131.5C 248.5,128.833 250.833,126.5 253.5,124.5C 254.932,126.647 256.765,126.98 259,125.5C 259.602,119.774 257.102,116.941 251.5,117C 250.248,118.828 250.248,120.661 251.5,122.5C 250.167,124.5 248.5,126.167 246.5,127.5C 246.5,116.5 246.5,105.5 246.5,94.5C 246.414,93.5041 246.748,92.6708 247.5,92C 249.405,90.5787 251.405,89.412 253.5,88.5C 254.932,90.6469 256.765,90.9802 259,89.5C 259.391,83.9035 256.891,80.7368 251.5,80C 250.232,82.1632 250.232,84.3298 251.5,86.5C 249.858,87.803 248.191,89.1363 246.5,90.5C 246.334,81.4938 246.5,72.4938 247,63.5C 247.816,62.1772 248.983,61.5106 250.5,61.5 Z"/></g>
<g><path style="opacity:0.994" fill="#d8d8d8" d="M 398.5,84.5 C 367.648,97.6783 336.648,110.678 305.5,123.5C 305.863,124.183 306.196,124.85 306.5,125.5C 303.204,137.121 306.87,146.288 317.5,153C 319.833,153.667 322.167,153.667 324.5,153C 325.056,152.617 325.389,152.117 325.5,151.5C 327.026,150.508 327.693,149.008 327.5,147C 327.486,145.615 327.152,144.449 326.5,143.5C 326.56,142.957 326.893,142.624 327.5,142.5C 327.964,144.975 328.964,146.975 330.5,148.5C 329.883,151.355 328.883,154.022 327.5,156.5C 320.049,158.628 313.883,156.628 309,150.5C 303.812,144.103 301.312,136.769 301.5,128.5C 303.402,123.074 301.402,121.074 295.5,122.5C 322.775,105.855 350.442,89.6886 378.5,74C 387.825,72.4956 394.492,75.9956 398.5,84.5 Z"/></g>
<g><path style="opacity:1" fill="#7d7e7e" d="M 253.5,88.5 C 256.167,84.5 255.5,83.8333 251.5,86.5C 250.232,84.3298 250.232,82.1632 251.5,80C 256.891,80.7368 259.391,83.9035 259,89.5C 256.765,90.9802 254.932,90.6469 253.5,88.5 Z"/></g>
<g><path style="opacity:0.607" fill="#73c9fb" d="M 253.5,88.5 C 251.405,89.412 249.405,90.5787 247.5,92C 246.748,92.6708 246.414,93.5041 246.5,94.5C 201.395,128.426 156.395,162.593 111.5,197C 139.92,189.642 168.254,181.642 196.5,173C 213.037,157.627 229.704,142.46 246.5,127.5C 248.5,126.167 250.167,124.5 251.5,122.5C 253.017,122.489 254.184,121.823 255,120.5C 255.3,122.066 254.8,123.399 253.5,124.5C 250.833,126.5 248.5,128.833 246.5,131.5C 232.67,144.496 218.67,157.329 204.5,170C 218.619,166.802 232.619,162.969 246.5,158.5C 247.959,158.567 249.292,158.234 250.5,157.5C 251.93,157.579 253.264,157.246 254.5,156.5C 255.312,158.083 254.645,159.083 252.5,159.5C 250.302,159.875 248.302,160.542 246.5,161.5C 230.535,166.326 214.535,171.16 198.5,176C 169.8,203.035 140.8,229.702 111.5,256C 156.645,236.767 201.645,216.934 246.5,196.5C 248.284,196.107 249.95,195.441 251.5,194.5C 252.492,194.672 253.158,194.338 253.5,193.5C 255.424,193.711 255.757,194.377 254.5,195.5C 253.833,195.833 253.167,196.167 252.5,196.5C 250.25,197.13 248.25,198.13 246.5,199.5C 198.859,220.986 151.193,242.486 103.5,264C 82.3302,283.004 61.3302,302.171 40.5,321.5C 40.5,320.167 40.5,318.833 40.5,317.5C 58.2964,301.54 75.9631,285.373 93.5,269C 75.9232,276.448 58.2565,283.948 40.5,291.5C 40.5,290.5 40.5,289.5 40.5,288.5C 60.8459,279.437 81.1792,270.27 101.5,261C 131.357,233.899 161.023,206.566 190.5,179C 161.805,186.56 133.138,194.56 104.5,203C 83.0062,218.999 61.6729,235.166 40.5,251.5C 40.5,250.167 40.5,248.833 40.5,247.5C 58.1367,234.009 75.8034,220.509 93.5,207C 75.7854,211.347 58.1187,216.181 40.5,221.5C 40.5,220.5 40.5,219.5 40.5,218.5C 61.251,212.645 81.9177,206.479 102.5,200C 150.395,163.26 198.395,126.76 246.5,90.5C 248.191,89.1363 249.858,87.803 251.5,86.5C 255.5,83.8333 256.167,84.5 253.5,88.5 Z"/></g>
<g><path style="opacity:0.992" fill="#e7e7e7" d="M 398.5,84.5 C 401.707,87.7679 403.373,91.7679 403.5,96.5C 373.699,108.102 344.033,120.102 314.5,132.5C 315.127,133.417 315.461,134.417 315.5,135.5C 314.5,135.167 313.833,134.5 313.5,133.5C 313.144,131.81 312.144,130.81 310.5,130.5C 310.167,129.833 309.833,129.167 309.5,128.5C 308.306,127.728 307.306,126.728 306.5,125.5C 306.196,124.85 305.863,124.183 305.5,123.5C 336.648,110.678 367.648,97.6783 398.5,84.5 Z"/></g>
<g><path style="opacity:0.995" fill="#f1f1f1" d="M 403.5,96.5 C 403.011,97.9952 402.345,99.3285 401.5,100.5C 378.194,113.821 354.861,127.155 331.5,140.5C 330.52,143.086 330.187,145.753 330.5,148.5C 328.964,146.975 327.964,144.975 327.5,142.5C 326.893,142.624 326.56,142.957 326.5,143.5C 320.114,144.48 316.447,141.814 315.5,135.5C 315.461,134.417 315.127,133.417 314.5,132.5C 344.033,120.102 373.699,108.102 403.5,96.5 Z"/></g>
<g><path style="opacity:0.883" fill="#dfdfdf" d="M 463.5,121.5 C 461.046,122.227 458.713,123.227 456.5,124.5C 443.662,116.913 430.662,109.58 417.5,102.5C 419.237,100.12 421.57,98.4531 424.5,97.5C 437.167,104.833 449.833,112.167 462.5,119.5C 463.298,119.957 463.631,120.624 463.5,121.5 Z"/></g>
<g><path style="opacity:0.949" fill="#bababa" d="M 401.5,100.5 C 402.932,104.991 402.432,109.325 400,113.5C 391.188,119.488 382.021,124.821 372.5,129.5C 365.624,132.764 359.29,136.764 353.5,141.5C 344.833,146.5 336.167,151.5 327.5,156.5C 328.883,154.022 329.883,151.355 330.5,148.5C 330.187,145.753 330.52,143.086 331.5,140.5C 354.861,127.155 378.194,113.821 401.5,100.5 Z"/></g>
<g><path style="opacity:0.979" fill="#c9c9c9" d="M 417.5,102.5 C 430.662,109.58 443.662,116.913 456.5,124.5C 456.5,142.833 456.5,161.167 456.5,179.5C 443.996,172.75 431.663,165.75 419.5,158.5C 423.507,154.826 428.173,152.159 433.5,150.5C 436.116,153.929 439.616,155.929 444,156.5C 446.151,156.357 447.818,155.357 449,153.5C 451.679,140.689 447.179,131.189 435.5,125C 433.167,124.333 430.833,124.333 428.5,125C 425.544,129.527 424.877,134.36 426.5,139.5C 423.992,141.924 420.992,143.59 417.5,144.5C 417.5,130.5 417.5,116.5 417.5,102.5 Z"/></g>
<g><path style="opacity:1" fill="#77797a" d="M 253.5,124.5 C 254.8,123.399 255.3,122.066 255,120.5C 254.184,121.823 253.017,122.489 251.5,122.5C 250.248,120.661 250.248,118.828 251.5,117C 257.102,116.941 259.602,119.774 259,125.5C 256.765,126.98 254.932,126.647 253.5,124.5 Z"/></g>
<g><path style="opacity:0.946" fill="#818181" d="M 463.5,121.5 C 463.667,139.836 463.5,158.17 463,176.5C 461.007,177.914 458.84,178.914 456.5,179.5C 456.5,161.167 456.5,142.833 456.5,124.5C 458.713,123.227 461.046,122.227 463.5,121.5 Z"/></g>
<g><path style="opacity:1" fill="#747474" d="M 295.5,122.5 C 301.402,121.074 303.402,123.074 301.5,128.5C 298.672,129.461 296.005,129.295 293.5,128C 291.82,125.189 292.487,123.356 295.5,122.5 Z"/></g>
<g><path style="opacity:1" fill="#696969" d="M 433.5,150.5 C 434.287,148.896 435.62,148.229 437.5,148.5C 439.288,148.785 440.955,148.452 442.5,147.5C 444.337,140.178 441.671,135.178 434.5,132.5C 431.686,132.981 430.352,134.648 430.5,137.5C 429.486,138.674 428.153,139.34 426.5,139.5C 424.877,134.36 425.544,129.527 428.5,125C 430.833,124.333 433.167,124.333 435.5,125C 447.179,131.189 451.679,140.689 449,153.5C 447.818,155.357 446.151,156.357 444,156.5C 439.616,155.929 436.116,153.929 433.5,150.5 Z"/></g>
<g><path style="opacity:1" fill="#7f8081" d="M 306.5,125.5 C 307.306,126.728 308.306,127.728 309.5,128.5C 308.271,137.555 311.605,144.722 319.5,150C 321.345,151.128 323.345,151.628 325.5,151.5C 325.389,152.117 325.056,152.617 324.5,153C 322.167,153.667 319.833,153.667 317.5,153C 306.87,146.288 303.204,137.121 306.5,125.5 Z"/></g>
<g><path style="opacity:0.931" fill="#c9c9c9" d="M 372.5,129.5 C 372.5,131.5 372.5,133.5 372.5,135.5C 371.31,137.355 369.977,139.188 368.5,141C 366.273,141.941 364.273,143.108 362.5,144.5C 358.956,144.868 355.956,143.868 353.5,141.5C 359.29,136.764 365.624,132.764 372.5,129.5 Z"/></g>
<g><path style="opacity:1" fill="#9dacc5" d="M 310.5,130.5 C 312.144,130.81 313.144,131.81 313.5,133.5C 314.348,139.596 317.681,144.43 323.5,148C 317.245,146.758 313.079,142.924 311,136.5C 310.505,134.527 310.338,132.527 310.5,130.5 Z"/></g>
<g><path style="opacity:1" fill="#c5c5c5" d="M 437.5,148.5 C 441.678,146.133 442.511,142.8 440,138.5C 437.175,134.834 434.008,134.501 430.5,137.5C 430.352,134.648 431.686,132.981 434.5,132.5C 441.671,135.178 444.337,140.178 442.5,147.5C 440.955,148.452 439.288,148.785 437.5,148.5 Z"/></g>
<g><path style="opacity:0.915" fill="#878787" d="M 372.5,135.5 C 378.526,141.195 384.526,146.861 390.5,152.5C 397.344,158.023 396.677,162.69 388.5,166.5C 386.471,165.156 384.471,163.823 382.5,162.5C 376.132,156.13 369.465,150.13 362.5,144.5C 364.273,143.108 366.273,141.941 368.5,141C 369.977,139.188 371.31,137.355 372.5,135.5 Z"/></g>
<g><path style="opacity:0.956" fill="#878787" d="M 437.5,148.5 C 435.62,148.229 434.287,148.896 433.5,150.5C 428.173,152.159 423.507,154.826 419.5,158.5C 415.326,161.088 410.993,163.421 406.5,165.5C 406.66,163.801 406.494,162.134 406,160.5C 404.479,158.11 402.979,155.777 401.5,153.5C 406.833,150.5 412.167,147.5 417.5,144.5C 420.992,143.59 423.992,141.924 426.5,139.5C 428.153,139.34 429.486,138.674 430.5,137.5C 434.008,134.501 437.175,134.834 440,138.5C 442.511,142.8 441.678,146.133 437.5,148.5 Z"/></g>
<g><path style="opacity:1" fill="#556f99" d="M 309.5,128.5 C 309.833,129.167 310.167,129.833 310.5,130.5C 310.338,132.527 310.505,134.527 311,136.5C 313.079,142.924 317.245,146.758 323.5,148C 317.681,144.43 314.348,139.596 313.5,133.5C 313.833,134.5 314.5,135.167 315.5,135.5C 316.447,141.814 320.114,144.48 326.5,143.5C 327.152,144.449 327.486,145.615 327.5,147C 327.693,149.008 327.026,150.508 325.5,151.5C 323.345,151.628 321.345,151.128 319.5,150C 311.605,144.722 308.271,137.555 309.5,128.5 Z"/></g>
<g><path style="opacity:0.915" fill="#c9c9c9" d="M 401.5,153.5 C 402.979,155.777 404.479,158.11 406,160.5C 406.494,162.134 406.66,163.801 406.5,165.5C 404.196,174.325 398.529,177.492 389.5,175C 384.704,172.244 382.371,168.077 382.5,162.5C 384.471,163.823 386.471,165.156 388.5,166.5C 396.677,162.69 397.344,158.023 390.5,152.5C 394.271,151.355 397.938,151.688 401.5,153.5 Z"/></g>
<g><path style="opacity:1" fill="#7b7c7d" d="M 252.5,159.5 C 254.645,159.083 255.312,158.083 254.5,156.5C 253.264,157.246 251.93,157.579 250.5,157.5C 250.286,155.856 250.62,154.356 251.5,153C 256.004,152.653 258.67,154.82 259.5,159.5C 257.54,164.553 255.207,164.553 252.5,159.5 Z"/></g>
<g><path style="opacity:0.987" fill="#d4d4d4" d="M 569.5,216.5 C 541.39,206.467 513.723,195.467 486.5,183.5C 490.819,177.912 496.486,176.079 503.5,178C 525.727,190.608 547.727,203.441 569.5,216.5 Z"/></g>
<g><path style="opacity:0.994" fill="#e1e1e1" d="M 486.5,183.5 C 513.723,195.467 541.39,206.467 569.5,216.5C 575.367,219.596 581.033,222.929 586.5,226.5C 583.941,226.198 581.607,226.532 579.5,227.5C 577.067,227.273 575.401,228.273 574.5,230.5C 573.5,230.833 572.833,231.5 572.5,232.5C 572.167,232.5 571.833,232.5 571.5,232.5C 541.347,218.885 510.681,206.219 479.5,194.5C 481.098,190.289 483.432,186.622 486.5,183.5 Z"/></g>
<g><path style="opacity:1" fill="#848585" d="M 252.5,196.5 C 253.167,196.167 253.833,195.833 254.5,195.5C 254.821,197.048 255.821,197.715 257.5,197.5C 257.597,194.686 256.431,192.686 254,191.5C 252.282,192.031 252.115,192.698 253.5,193.5C 253.158,194.338 252.492,194.672 251.5,194.5C 249.827,191.858 250.327,189.858 253,188.5C 257.556,190.275 259.556,193.608 259,198.5C 256.298,199.739 254.132,199.073 252.5,196.5 Z"/></g>
<g><path style="opacity:1" fill="#5b5c5b" d="M 254.5,195.5 C 255.757,194.377 255.424,193.711 253.5,193.5C 252.115,192.698 252.282,192.031 254,191.5C 256.431,192.686 257.597,194.686 257.5,197.5C 255.821,197.715 254.821,197.048 254.5,195.5 Z"/></g>
<g><path style="opacity:0.894" fill="#666667" d="M 40.5,218.5 C 40.5,219.5 40.5,220.5 40.5,221.5C 40.5,230.167 40.5,238.833 40.5,247.5C 40.5,248.833 40.5,250.167 40.5,251.5C 40.5,263.833 40.5,276.167 40.5,288.5C 40.5,289.5 40.5,290.5 40.5,291.5C 40.5,300.167 40.5,308.833 40.5,317.5C 40.5,318.833 40.5,320.167 40.5,321.5C 40.5,335.5 40.5,349.5 40.5,363.5C 40.5,364.5 40.5,365.5 40.5,366.5C 40.5,374.833 40.5,383.167 40.5,391.5C 40.5,392.833 40.5,394.167 40.5,395.5C 40.5,409.833 40.5,424.167 40.5,438.5C 40.5,439.5 40.5,440.5 40.5,441.5C 40.5,450.167 40.5,458.833 40.5,467.5C 40.5,468.5 40.5,469.5 40.5,470.5C 40.5,483.167 40.5,495.833 40.5,508.5C 40.5,509.5 40.5,510.5 40.5,511.5C 40.5,517.5 40.5,523.5 40.5,529.5C 40.5,531.5 40.5,533.5 40.5,535.5C 40.5,547.5 40.5,559.5 40.5,571.5C 40.5,572.833 40.5,574.167 40.5,575.5C 40.6665,585.172 40.4998,594.839 40,604.5C 39.1841,605.823 38.0174,606.489 36.5,606.5C 37.6631,476.207 37.8298,345.873 37,215.5C 34.2453,207.244 28.7453,201.911 20.5,199.5C 23.5298,197.022 26.8632,196.855 30.5,199C 37.1603,203.821 40.4936,210.321 40.5,218.5 Z"/></g>
<g><path style="opacity:0.998" fill="#c9c9c9" d="M 20.5,199.5 C 28.7453,201.911 34.2453,207.244 37,215.5C 37.8298,345.873 37.6631,476.207 36.5,606.5C 35.5081,608.026 34.0081,608.693 32,608.5C 24.5688,607.075 19.5688,602.741 17,595.5C 16.3333,464.167 16.3333,332.833 17,201.5C 17.8159,200.177 18.9826,199.511 20.5,199.5 Z"/></g>
<g><path style="opacity:0.996" fill="#efefef" d="M 479.5,194.5 C 510.681,206.219 541.347,218.885 571.5,232.5C 571.5,232.833 571.5,233.167 571.5,233.5C 570.167,234.167 569.167,235.167 568.5,236.5C 566.636,239.723 564.636,242.89 562.5,246C 559.711,247.664 556.877,247.83 554,246.5C 552.93,250.142 553.764,253.142 556.5,255.5C 556.611,256.117 556.944,256.617 557.5,257C 559.473,257.495 561.473,257.662 563.5,257.5C 564.404,258.209 564.737,259.209 564.5,260.5C 560.57,262.048 556.903,261.715 553.5,259.5C 551.947,255.009 551.114,250.343 551,245.5C 527.261,231.578 503.428,217.911 479.5,204.5C 478.253,201.133 478.253,197.799 479.5,194.5 Z"/></g>
<g><path style="opacity:0.883" fill="#dfdfdf" d="M 464.5,206.5 C 453.231,212.136 442.231,218.302 431.5,225C 429.091,226.707 426.425,227.54 423.5,227.5C 421.632,226.737 419.965,225.737 418.5,224.5C 431.272,216.608 444.272,208.941 457.5,201.5C 460.43,202.453 462.763,204.12 464.5,206.5 Z"/></g>
<g><path style="opacity:0.948" fill="#bababa" d="M 479.5,204.5 C 503.428,217.911 527.261,231.578 551,245.5C 551.114,250.343 551.947,255.009 553.5,259.5C 545.167,254.833 536.833,250.167 528.5,245.5C 522.372,241.264 516.038,237.264 509.5,233.5C 501.221,229.025 492.887,224.525 484.5,220C 479.952,215.868 478.285,210.701 479.5,204.5 Z"/></g>
<g><path style="opacity:0.972" fill="#c9c9c9" d="M 464.5,206.5 C 464.5,220.5 464.5,234.5 464.5,248.5C 461.738,247.62 459.071,246.454 456.5,245C 455.748,244.329 455.414,243.496 455.5,242.5C 458.255,231.423 454.255,227.257 443.5,230C 433.395,236.701 429.895,245.868 433,257.5C 436.542,261.216 440.375,261.382 444.5,258C 446.093,257.051 447.426,255.885 448.5,254.5C 453.5,256.664 458.167,259.331 462.5,262.5C 450.128,270.02 437.461,277.02 424.5,283.5C 424.82,264.757 424.486,246.09 423.5,227.5C 426.425,227.54 429.091,226.707 431.5,225C 442.231,218.302 453.231,212.136 464.5,206.5 Z"/></g>
<g><path style="opacity:0.856" fill="#7e7e7e" d="M 418.5,224.5 C 419.965,225.737 421.632,226.737 423.5,227.5C 424.486,246.09 424.82,264.757 424.5,283.5C 422.527,282.513 420.527,281.513 418.5,280.5C 417.172,261.671 417.172,243.004 418.5,224.5 Z"/></g>
<g><path style="opacity:1" fill="#707070" d="M 586.5,226.5 C 588.308,227.918 588.975,229.918 588.5,232.5C 585.833,232.5 583.167,232.5 580.5,232.5C 579.699,230.958 579.366,229.292 579.5,227.5C 581.607,226.532 583.941,226.198 586.5,226.5 Z"/></g>
<g><path style="opacity:1" fill="#6a6a6a" d="M 455.5,242.5 C 454.883,242.611 454.383,242.944 454,243.5C 452.45,242.409 451.283,241.076 450.5,239.5C 450.586,238.504 450.252,237.671 449.5,237C 440.789,237.745 437.289,242.578 439,251.5C 440.699,252.406 442.533,252.739 444.5,252.5C 446.38,252.229 447.713,252.896 448.5,254.5C 447.426,255.885 446.093,257.051 444.5,258C 440.375,261.382 436.542,261.216 433,257.5C 429.895,245.868 433.395,236.701 443.5,230C 454.255,227.257 458.255,231.423 455.5,242.5 Z"/></g>
<g><path style="opacity:1" fill="#7b7b7b" d="M 253.5,233.5 C 256.167,229.5 255.5,228.833 251.5,231.5C 250.659,229.621 250.325,227.621 250.5,225.5C 257.068,225.558 259.734,228.724 258.5,235C 256.326,235.877 254.659,235.377 253.5,233.5 Z"/></g>
<g><path style="opacity:1" fill="#7f8082" d="M 574.5,230.5 C 576.95,230.874 577.95,232.374 577.5,235C 576.468,244.923 571.801,252.423 563.5,257.5C 561.473,257.662 559.473,257.495 557.5,257C 556.944,256.617 556.611,256.117 556.5,255.5C 568.082,251.958 573.416,244.292 572.5,232.5C 572.833,231.5 573.5,230.833 574.5,230.5 Z"/></g>
<g><path style="opacity:0.726" fill="#cbcbcb" d="M 579.5,227.5 C 579.366,229.292 579.699,230.958 580.5,232.5C 580.319,244.871 574.986,254.204 564.5,260.5C 564.737,259.209 564.404,258.209 563.5,257.5C 571.801,252.423 576.468,244.923 577.5,235C 577.95,232.374 576.95,230.874 574.5,230.5C 575.401,228.273 577.067,227.273 579.5,227.5 Z"/></g>
<g><path style="opacity:0.94" fill="#c9c9c9" d="M 509.5,233.5 C 516.038,237.264 522.372,241.264 528.5,245.5C 525.916,247.472 522.916,248.472 519.5,248.5C 514.949,246.885 511.616,243.885 509.5,239.5C 509.5,237.5 509.5,235.5 509.5,233.5 Z"/></g>
<g><path style="opacity:1" fill="#9baac3" d="M 571.5,233.5 C 571.681,240.638 569.014,246.471 563.5,251C 561.956,252.187 560.289,252.52 558.5,252C 564.352,248.071 567.685,242.905 568.5,236.5C 569.167,235.167 570.167,234.167 571.5,233.5 Z"/></g>
<g><path style="opacity:0.622" fill="#77c6f3" d="M 253.5,233.5 C 250.883,234.786 248.55,236.453 246.5,238.5C 245.167,238.5 243.833,238.5 242.5,238.5C 243.262,236.738 244.596,235.738 246.5,235.5C 248.191,234.136 249.858,232.803 251.5,231.5C 255.5,228.833 256.167,229.5 253.5,233.5 Z"/></g>
<g><path style="opacity:1" fill="#c6c6c6" d="M 450.5,239.5 C 448.724,239.794 446.724,239.96 444.5,240C 439.176,244.342 439.176,248.509 444.5,252.5C 442.533,252.739 440.699,252.406 439,251.5C 437.289,242.578 440.789,237.745 449.5,237C 450.252,237.671 450.586,238.504 450.5,239.5 Z"/></g>
<g><path style="opacity:0.981" fill="#363636" d="M 242.5,238.5 C 243.833,238.5 245.167,238.5 246.5,238.5C 256.189,238.336 262.856,242.669 266.5,251.5C 267.6,252.605 268.267,253.938 268.5,255.5C 263.503,259.334 258.17,262.667 252.5,265.5C 242.017,270.664 231.017,272.33 219.5,270.5C 218.729,267.546 218.062,264.546 217.5,261.5C 218.301,259.958 218.634,258.292 218.5,256.5C 223.123,246.17 231.123,240.17 242.5,238.5 Z"/></g>
<g><path style="opacity:0.956" fill="#878787" d="M 450.5,239.5 C 451.283,241.076 452.45,242.409 454,243.5C 454.383,242.944 454.883,242.611 455.5,242.5C 455.414,243.496 455.748,244.329 456.5,245C 459.071,246.454 461.738,247.62 464.5,248.5C 469.833,251.5 475.167,254.5 480.5,257.5C 477.19,260.791 475.523,264.791 475.5,269.5C 471.034,267.434 466.701,265.1 462.5,262.5C 458.167,259.331 453.5,256.664 448.5,254.5C 447.713,252.896 446.38,252.229 444.5,252.5C 439.176,248.509 439.176,244.342 444.5,240C 446.724,239.96 448.724,239.794 450.5,239.5 Z"/></g>
<g><path style="opacity:0.919" fill="#878787" d="M 509.5,239.5 C 511.616,243.885 514.949,246.885 519.5,248.5C 512.509,254.158 505.843,260.158 499.5,266.5C 493.265,271.452 488.932,270.118 486.5,262.5C 487.491,260.193 488.824,258.193 490.5,256.5C 496.535,250.463 502.869,244.796 509.5,239.5 Z"/></g>
<g><path style="opacity:1" fill="#577099" d="M 571.5,232.5 C 571.833,232.5 572.167,232.5 572.5,232.5C 573.416,244.292 568.082,251.958 556.5,255.5C 553.764,253.142 552.93,250.142 554,246.5C 556.877,247.83 559.711,247.664 562.5,246C 564.636,242.89 566.636,239.723 568.5,236.5C 567.685,242.905 564.352,248.071 558.5,252C 560.289,252.52 561.956,252.187 563.5,251C 569.014,246.471 571.681,240.638 571.5,233.5C 571.5,233.167 571.5,232.833 571.5,232.5 Z"/></g>
<g><path style="opacity:0.92" fill="#c9c9c9" d="M 490.5,256.5 C 488.824,258.193 487.491,260.193 486.5,262.5C 488.932,270.118 493.265,271.452 499.5,266.5C 497.931,277.958 491.598,281.791 480.5,278C 477.404,275.971 475.738,273.138 475.5,269.5C 475.523,264.791 477.19,260.791 480.5,257.5C 483.723,255.584 487.057,255.251 490.5,256.5 Z"/></g>
<g><path style="opacity:0.605" fill="#72c9fb" d="M 218.5,256.5 C 218.634,258.292 218.301,259.958 217.5,261.5C 181.759,287.733 146.426,314.567 111.5,342C 124.18,339.163 136.846,335.997 149.5,332.5C 149.833,332.5 150.167,332.5 150.5,332.5C 150.5,333.5 150.5,334.5 150.5,335.5C 134.148,339.839 117.815,344.339 101.5,349C 81.2902,364.716 60.9569,380.216 40.5,395.5C 40.5,394.167 40.5,392.833 40.5,391.5C 57.6232,378.883 74.6232,366.05 91.5,353C 74.4418,357.016 57.4418,361.516 40.5,366.5C 40.5,365.5 40.5,364.5 40.5,363.5C 60.5709,357.977 80.5709,352.144 100.5,346C 139.71,315.95 179.043,286.117 218.5,256.5 Z"/></g>
<g><path style="opacity:0.989" fill="#472f18" d="M 268.5,255.5 C 268.932,256.71 269.599,257.71 270.5,258.5C 270.557,259.609 270.89,260.609 271.5,261.5C 266.564,264.216 261.397,266.549 256,268.5C 254.003,269.66 252.169,269.66 250.5,268.5C 251.167,267.5 251.833,266.5 252.5,265.5C 258.17,262.667 263.503,259.334 268.5,255.5 Z"/></g>
<g><path style="opacity:0.849" fill="#4c3219" d="M 271.5,265.5 C 272.963,271.17 272.63,276.836 270.5,282.5C 269.206,281.71 268.039,280.71 267,279.5C 266.502,276.183 266.335,272.85 266.5,269.5C 267.945,267.937 269.611,266.604 271.5,265.5 Z"/></g>
<g><path style="opacity:0.952" fill="#666565" d="M 252.5,265.5 C 251.833,266.5 251.167,267.5 250.5,268.5C 247.865,272.143 245.199,275.81 242.5,279.5C 240.019,280.72 238.019,282.386 236.5,284.5C 234.858,282.919 232.858,282.253 230.5,282.5C 229.167,282.5 227.833,282.5 226.5,282.5C 221.845,282.117 217.512,283.117 213.5,285.5C 213.995,280.136 215.995,275.136 219.5,270.5C 231.017,272.33 242.017,270.664 252.5,265.5 Z"/></g>
<g><path style="opacity:1" fill="#3a3837" d="M 271.5,261.5 C 271.5,262.833 271.5,264.167 271.5,265.5C 269.611,266.604 267.945,267.937 266.5,269.5C 265.064,267.681 263.397,267.348 261.5,268.5C 259.771,270.851 259.104,273.518 259.5,276.5C 258.599,277.29 257.932,278.29 257.5,279.5C 252.905,290.312 245.072,293.646 234,289.5C 231.914,290.418 229.747,291.085 227.5,291.5C 227.5,290.833 227.5,290.167 227.5,289.5C 228.043,286.962 229.043,284.628 230.5,282.5C 232.858,282.253 234.858,282.919 236.5,284.5C 239.546,285.885 242.546,285.719 245.5,284C 246.487,281.448 245.487,279.948 242.5,279.5C 245.199,275.81 247.865,272.143 250.5,268.5C 252.169,269.66 254.003,269.66 256,268.5C 261.397,266.549 266.564,264.216 271.5,261.5 Z"/></g>
<g><path style="opacity:0.974" fill="#dcad84" d="M 266.5,269.5 C 266.335,272.85 266.502,276.183 267,279.5C 268.039,280.71 269.206,281.71 270.5,282.5C 271.5,282.833 272.167,283.5 272.5,284.5C 267.978,288.028 263.478,291.695 259,295.5C 255.812,299.901 252.645,304.234 249.5,308.5C 248.209,308.263 247.209,308.596 246.5,309.5C 244.379,309.675 242.379,309.341 240.5,308.5C 239.486,307.326 238.153,306.66 236.5,306.5C 234.833,303.833 233.167,301.167 231.5,298.5C 231.573,296.973 230.906,295.973 229.5,295.5C 228.833,294.167 228.167,292.833 227.5,291.5C 229.747,291.085 231.914,290.418 234,289.5C 245.072,293.646 252.905,290.312 257.5,279.5C 260.399,280.494 261.066,279.494 259.5,276.5C 259.104,273.518 259.771,270.851 261.5,268.5C 263.397,267.348 265.064,267.681 266.5,269.5 Z"/></g>
<g><path style="opacity:1" fill="#604428" d="M 259.5,276.5 C 261.066,279.494 260.399,280.494 257.5,279.5C 257.932,278.29 258.599,277.29 259.5,276.5 Z"/></g>
<g><path style="opacity:1" fill="#d1a680" d="M 242.5,279.5 C 245.487,279.948 246.487,281.448 245.5,284C 242.546,285.719 239.546,285.885 236.5,284.5C 238.019,282.386 240.019,280.72 242.5,279.5 Z"/></g>
<g><path style="opacity:0.96" fill="#444c67" d="M 404.5,372.5 C 400.577,375.294 396.243,377.294 391.5,378.5C 390.325,378.719 389.325,378.386 388.5,377.5C 377.06,363.223 365.06,349.39 352.5,336C 341.501,334.583 330.501,333.083 319.5,331.5C 316.659,319.822 312.492,308.489 307,297.5C 300.026,287.466 290.859,284.633 279.5,289C 279.043,289.414 278.709,289.914 278.5,290.5C 284.886,299.923 282.553,306.423 271.5,310C 265.125,312.942 258.459,313.942 251.5,313C 250.244,312.583 249.577,311.75 249.5,310.5C 249.5,309.833 249.5,309.167 249.5,308.5C 252.645,304.234 255.812,299.901 259,295.5C 263.478,291.695 267.978,288.028 272.5,284.5C 274.466,283.559 276.466,282.559 278.5,281.5C 279.167,282.833 279.833,284.167 280.5,285.5C 291.248,282.893 301.914,283.393 312.5,287C 331.742,293.788 350.075,302.455 367.5,313C 374,318.167 379.833,324 385,330.5C 393.058,341.56 400.725,352.893 408,364.5C 407.69,367.461 406.524,370.128 404.5,372.5 Z"/></g>
<g><path style="opacity:0.784" fill="#ae8d6f" d="M 226.5,282.5 C 227.833,282.5 229.167,282.5 230.5,282.5C 229.043,284.628 228.043,286.962 227.5,289.5C 226.532,287.393 226.198,285.059 226.5,282.5 Z"/></g>
<g><path style="opacity:0.992" fill="#596588" d="M 319.5,331.5 C 321.783,345.197 324.283,358.863 327,372.5C 334.177,392.365 340.344,412.532 345.5,433C 341.335,444.998 333.335,453.165 321.5,457.5C 303.565,463.726 285.565,464.059 267.5,458.5C 264.055,457.851 260.889,456.518 258,454.5C 257.667,448.167 257.333,441.833 257,435.5C 256.665,431.264 255.832,427.264 254.5,423.5C 254.46,420.012 253.793,416.679 252.5,413.5C 252.672,412.508 252.338,411.842 251.5,411.5C 250.752,403.851 249.086,396.518 246.5,389.5C 245.89,388.609 245.557,387.609 245.5,386.5C 245.737,385.209 245.404,384.209 244.5,383.5C 244.142,380.733 243.475,378.067 242.5,375.5C 248.733,366.716 254.233,357.383 259,347.5C 265.206,328.894 258.706,320.561 239.5,322.5C 241.12,318.918 243.453,315.918 246.5,313.5C 247.728,312.694 248.728,311.694 249.5,310.5C 249.577,311.75 250.244,312.583 251.5,313C 258.459,313.942 265.125,312.942 271.5,310C 282.553,306.423 284.886,299.923 278.5,290.5C 278.709,289.914 279.043,289.414 279.5,289C 290.859,284.633 300.026,287.466 307,297.5C 312.492,308.489 316.659,319.822 319.5,331.5 Z"/></g>
<g><path style="opacity:0.615" fill="#73c9fb" d="M 229.5,295.5 C 230.906,295.973 231.573,296.973 231.5,298.5C 228.28,301.913 225.28,305.579 222.5,309.5C 223,309.833 223.5,310.167 224,310.5C 228.373,309.43 232.539,308.097 236.5,306.5C 238.153,306.66 239.486,307.326 240.5,308.5C 232.905,310.864 225.238,313.364 217.5,316C 207.239,327.754 197.572,339.92 188.5,352.5C 186.5,352.5 185.5,351.5 185.5,349.5C 194.302,339.19 202.969,328.69 211.5,318C 198.442,321.016 185.442,324.516 172.5,328.5C 171.596,327.791 171.263,326.791 171.5,325.5C 186.178,321.441 200.845,317.275 215.5,313C 220.295,307.227 224.962,301.394 229.5,295.5 Z"/></g>
<g><path style="opacity:0.965" fill="#c0bcbc" d="M 249.5,308.5 C 249.5,309.167 249.5,309.833 249.5,310.5C 248.728,311.694 247.728,312.694 246.5,313.5C 246.5,312.167 246.5,310.833 246.5,309.5C 247.209,308.596 248.209,308.263 249.5,308.5 Z"/></g>
<g><path style="opacity:0.702" fill="#383839" d="M 171.5,325.5 C 171.263,326.791 171.596,327.791 172.5,328.5C 173.219,330.764 173.552,333.097 173.5,335.5C 172.645,332.825 171.478,330.158 170,327.5C 166.662,324.992 163.495,322.325 160.5,319.5C 154.697,321.854 151.363,326.187 150.5,332.5C 150.167,332.5 149.833,332.5 149.5,332.5C 149.821,326.692 152.154,321.858 156.5,318C 158.235,317.349 159.902,317.515 161.5,318.5C 162.5,317.833 163.5,317.167 164.5,316.5C 167.084,319.349 169.417,322.349 171.5,325.5 Z"/></g>
<g><path style="opacity:0.966" fill="#656565" d="M 173.5,335.5 C 172.359,337.549 172.359,339.549 173.5,341.5C 169.815,344.191 166.148,346.858 162.5,349.5C 160.193,346.362 157.359,343.695 154,341.5C 152.606,339.612 151.44,337.612 150.5,335.5C 150.5,334.5 150.5,333.5 150.5,332.5C 151.363,326.187 154.697,321.854 160.5,319.5C 163.495,322.325 166.662,324.992 170,327.5C 171.478,330.158 172.645,332.825 173.5,335.5 Z"/></g>
<g><path style="opacity:0.967" fill="#7683a6" d="M 242.5,375.5 C 234.32,386.178 224.654,395.345 213.5,403C 207.774,404.104 202.44,403.104 197.5,400C 191.708,396.041 186.374,391.541 181.5,386.5C 181.573,384.973 180.906,383.973 179.5,383.5C 176.453,380.455 173.787,377.122 171.5,373.5C 171.144,371.81 170.144,370.81 168.5,370.5C 166.505,366.516 164.005,362.849 161,359.5C 160.153,355.928 160.653,352.594 162.5,349.5C 166.148,346.858 169.815,344.191 173.5,341.5C 174.552,341.351 175.552,341.517 176.5,342C 179.531,344.508 182.531,347.008 185.5,349.5C 185.5,351.5 186.5,352.5 188.5,352.5C 192.851,357.851 197.851,362.517 203.5,366.5C 212.579,356.003 220.412,344.67 227,332.5C 230.465,328.193 234.631,324.859 239.5,322.5C 258.706,320.561 265.206,328.894 259,347.5C 254.233,357.383 248.733,366.716 242.5,375.5 Z"/></g>
<g><path style="opacity:0.942" fill="#6c3a35" d="M 506.5,375.5 C 502.083,371.964 497.083,369.464 491.5,368C 480.536,366.548 469.536,366.215 458.5,367C 449.98,368.256 442.98,372.089 437.5,378.5C 434.763,378.599 432.096,378.265 429.5,377.5C 438.906,368.13 450.24,362.463 463.5,360.5C 463.5,358.833 463.5,357.167 463.5,355.5C 448.363,358.73 435.696,366.063 425.5,377.5C 423.167,377.5 420.833,377.5 418.5,377.5C 419.11,376.609 419.443,375.609 419.5,374.5C 422.573,372.431 424.906,369.764 426.5,366.5C 432.288,359.223 439.621,354.056 448.5,351C 462.599,345.456 476.932,344.456 491.5,348C 492.667,349.167 493.833,350.333 495,351.5C 495,354.833 495,358.167 495,361.5C 497.333,365.167 500.333,368.167 504,370.5C 505.094,372.078 505.928,373.745 506.5,375.5 Z"/></g>
<g><path style="opacity:1" fill="#666362" d="M 429.5,377.5 C 428.167,377.5 426.833,377.5 425.5,377.5C 435.696,366.063 448.363,358.73 463.5,355.5C 463.5,357.167 463.5,358.833 463.5,360.5C 450.24,362.463 438.906,368.13 429.5,377.5 Z"/></g>
<g><path style="opacity:0.816" fill="#5c3631" d="M 426.5,366.5 C 424.906,369.764 422.573,372.431 419.5,374.5C 418.128,375.512 416.795,376.512 415.5,377.5C 412.672,378.655 410.005,379.989 407.5,381.5C 406.5,381.5 405.5,381.5 404.5,381.5C 405.5,379.5 406.5,377.5 407.5,375.5C 412.965,370.783 419.298,367.783 426.5,366.5 Z"/></g>
<g><path style="opacity:0.985" fill="#5c3631" d="M 506.5,375.5 C 502.736,403.863 490.403,427.696 469.5,447C 462.582,453.417 454.582,457.917 445.5,460.5C 427.736,457.572 415.902,447.572 410,430.5C 407.999,424.322 407.166,417.988 407.5,411.5C 412.713,416.36 418.547,420.36 425,423.5C 426.946,423.237 427.612,422.237 427,420.5C 423.011,418.003 419.177,415.336 415.5,412.5C 419.636,401.553 425.303,391.553 432.5,382.5C 438.18,383.058 443.847,383.725 449.5,384.5C 449.5,383.167 449.5,381.833 449.5,380.5C 445.454,380.048 441.454,379.381 437.5,378.5C 442.98,372.089 449.98,368.256 458.5,367C 469.536,366.215 480.536,366.548 491.5,368C 497.083,369.464 502.083,371.964 506.5,375.5 Z"/></g>
<g><path style="opacity:0.616" fill="#73c9fb" d="M 168.5,370.5 C 170.144,370.81 171.144,371.81 171.5,373.5C 163.971,382.688 156.304,391.855 148.5,401C 159.003,395.741 169.337,389.908 179.5,383.5C 180.906,383.973 181.573,384.973 181.5,386.5C 168.057,394.058 154.724,401.891 141.5,410C 137.545,415.623 133.212,420.957 128.5,426C 155.269,423.654 181.935,420.321 208.5,416C 220.669,405.329 232.669,394.496 244.5,383.5C 245.404,384.209 245.737,385.209 245.5,386.5C 235.037,395.794 224.703,405.294 214.5,415C 225.21,414.447 235.876,413.28 246.5,411.5C 248.167,411.5 249.833,411.5 251.5,411.5C 252.338,411.842 252.672,412.508 252.5,413.5C 250.265,413.205 248.265,413.539 246.5,414.5C 234.1,415.925 221.767,417.758 209.5,420C 188.533,438.632 167.867,457.632 147.5,477C 170.838,470.83 194.171,464.33 217.5,457.5C 216.974,459.23 215.974,460.564 214.5,461.5C 189.763,468.356 165.096,475.523 140.5,483C 107.597,514.407 74.264,545.24 40.5,575.5C 40.5,574.167 40.5,572.833 40.5,571.5C 71.2969,543.205 101.964,514.705 132.5,486C 110.01,491.493 87.6768,497.826 65.5,505C 57.2674,515.329 48.9341,525.496 40.5,535.5C 40.5,533.5 40.5,531.5 40.5,529.5C 46.9687,522.191 53.3021,514.691 59.5,507C 53.115,508.012 46.7817,509.512 40.5,511.5C 40.5,510.5 40.5,509.5 40.5,508.5C 48.12,506.239 55.7866,504.072 63.5,502C 81.977,478.689 100.644,455.522 119.5,432.5C 113.474,431.834 107.474,432.334 101.5,434C 81.4424,446.693 61.109,458.859 40.5,470.5C 40.5,469.5 40.5,468.5 40.5,467.5C 58.3515,456.495 76.3515,445.662 94.5,435C 76.5005,436.832 58.5005,438.999 40.5,441.5C 40.5,440.5 40.5,439.5 40.5,438.5C 61.9875,436.148 83.3208,432.981 104.5,429C 115.334,422.082 126.334,415.415 137.5,409C 148.449,396.562 158.783,383.729 168.5,370.5 Z M 131.5,416.5 C 129.215,420.21 126.548,423.71 123.5,427C 119.25,428.405 114.917,429.072 110.5,429C 117.404,424.58 124.404,420.413 131.5,416.5 Z M 197.5,420.5 C 199.527,420.338 201.527,420.505 203.5,421C 181.866,440.299 160.533,459.965 139.5,480C 116.977,486.422 94.4775,492.922 72,499.5C 71.5,499.167 71,498.833 70.5,498.5C 88.69,476.144 106.69,453.644 124.5,431C 148.957,427.404 173.291,423.904 197.5,420.5 Z"/></g>
<g><path style="opacity:0.929" fill="#363636" d="M 404.5,372.5 C 405.167,373.833 406.167,374.833 407.5,375.5C 406.5,377.5 405.5,379.5 404.5,381.5C 403.026,382.436 402.026,383.77 401.5,385.5C 401.443,386.609 401.11,387.609 400.5,388.5C 399.305,384.464 396.638,382.631 392.5,383C 391.944,383.383 391.611,383.883 391.5,384.5C 390.258,382.611 390.258,380.611 391.5,378.5C 396.243,377.294 400.577,375.294 404.5,372.5 Z"/></g>
<g><path style="opacity:0.959" fill="#904541" d="M 415.5,377.5 C 416.5,377.5 417.5,377.5 418.5,377.5C 420.833,377.5 423.167,377.5 425.5,377.5C 426.833,377.5 428.167,377.5 429.5,377.5C 432.096,378.265 434.763,378.599 437.5,378.5C 441.454,379.381 445.454,380.048 449.5,380.5C 449.5,381.833 449.5,383.167 449.5,384.5C 443.847,383.725 438.18,383.058 432.5,382.5C 429.946,381.612 427.279,381.279 424.5,381.5C 423.5,381.5 422.5,381.5 421.5,381.5C 419.035,381.767 416.701,382.434 414.5,383.5C 413.833,383.5 413.167,383.5 412.5,383.5C 410.597,383.204 408.93,382.537 407.5,381.5C 410.005,379.989 412.672,378.655 415.5,377.5 Z"/></g>
<g><path style="opacity:1" fill="#7582a5" d="M 324.5,380.5 C 325.966,381.347 326.8,382.68 327,384.5C 327.667,386.833 327.667,389.167 327,391.5C 322.928,398.234 317.095,402.734 309.5,405C 304.766,407.236 299.933,408.069 295,407.5C 294.187,405.564 293.687,403.564 293.5,401.5C 304.616,399.526 314.116,394.526 322,386.5C 323.122,384.593 323.955,382.593 324.5,380.5 Z"/></g>
<g><path style="opacity:0.878" fill="#6c3c37" d="M 421.5,381.5 C 417.448,386.938 414.448,392.938 412.5,399.5C 410.121,398.438 410.121,397.105 412.5,395.5C 411.787,392.904 411.787,390.237 412.5,387.5C 413.674,386.486 414.34,385.153 414.5,383.5C 416.701,382.434 419.035,381.767 421.5,381.5 Z"/></g>
<g><path style="opacity:1" fill="#676060" d="M 421.5,381.5 C 422.5,381.5 423.5,381.5 424.5,381.5C 418.852,389.797 414.519,398.797 411.5,408.5C 410.377,406.312 410.377,403.979 411.5,401.5C 412.338,401.158 412.672,400.492 412.5,399.5C 414.448,392.938 417.448,386.938 421.5,381.5 Z"/></g>
<g><path style="opacity:1" fill="#6d3a35" d="M 424.5,381.5 C 427.279,381.279 429.946,381.612 432.5,382.5C 425.303,391.553 419.636,401.553 415.5,412.5C 413.833,411.5 412.5,410.167 411.5,408.5C 414.519,398.797 418.852,389.797 424.5,381.5 Z"/></g>
<g><path style="opacity:1" fill="#656161" d="M 456.5,382.5 C 457.5,382.5 458.5,382.5 459.5,382.5C 453.213,401.753 442.88,418.42 428.5,432.5C 427.692,432.192 427.025,431.692 426.5,431C 439.958,417.027 449.958,400.861 456.5,382.5 Z"/></g>
<g><path style="opacity:1" fill="#4d4b4b" d="M 404.5,381.5 C 405.5,381.5 406.5,381.5 407.5,381.5C 408.93,382.537 410.597,383.204 412.5,383.5C 412.074,385.139 412.074,386.472 412.5,387.5C 411.787,390.237 411.787,392.904 412.5,395.5C 410.121,397.105 410.121,398.438 412.5,399.5C 412.672,400.492 412.338,401.158 411.5,401.5C 410.5,401.5 409.5,401.5 408.5,401.5C 407.833,401.167 407.167,400.833 406.5,400.5C 405.542,400.953 404.708,401.619 404,402.5C 402.629,400.959 401.129,399.625 399.5,398.5C 395.301,394.776 392.635,390.109 391.5,384.5C 391.611,383.883 391.944,383.383 392.5,383C 396.638,382.631 399.305,384.464 400.5,388.5C 400.5,390.167 400.5,391.833 400.5,393.5C 404.079,393.234 404.413,391.901 401.5,389.5C 406.571,388.526 406.571,387.193 401.5,385.5C 402.026,383.77 403.026,382.436 404.5,381.5 Z"/></g>
<g><path style="opacity:1" fill="#854743" d="M 401.5,385.5 C 406.571,387.193 406.571,388.526 401.5,389.5C 404.413,391.901 404.079,393.234 400.5,393.5C 400.5,391.833 400.5,390.167 400.5,388.5C 401.11,387.609 401.443,386.609 401.5,385.5 Z"/></g>
<g><path style="opacity:0.979" fill="#c0c1c3" d="M 246.5,389.5 C 249.086,396.518 250.752,403.851 251.5,411.5C 249.833,411.5 248.167,411.5 246.5,411.5C 246.5,404.167 246.5,396.833 246.5,389.5 Z"/></g>
<g><path style="opacity:1" fill="#89433f" d="M 399.5,398.5 C 401.129,399.625 402.629,400.959 404,402.5C 404.708,401.619 405.542,400.953 406.5,400.5C 406.711,402.424 407.377,402.757 408.5,401.5C 409.5,401.5 410.5,401.5 411.5,401.5C 410.377,403.979 410.377,406.312 411.5,408.5C 412.5,410.167 413.833,411.5 415.5,412.5C 419.177,415.336 423.011,418.003 427,420.5C 427.612,422.237 426.946,423.237 425,423.5C 418.547,420.36 412.713,416.36 407.5,411.5C 403.224,408.21 400.558,403.877 399.5,398.5 Z"/></g>
<g><path style="opacity:0.99" fill="#c3c4c5" d="M 252.5,413.5 C 253.793,416.679 254.46,420.012 254.5,423.5C 251.833,424.5 249.167,425.5 246.5,426.5C 246.5,422.5 246.5,418.5 246.5,414.5C 248.265,413.539 250.265,413.205 252.5,413.5 Z"/></g>
<g><path style="opacity:0.962" fill="#3e3e3d" d="M 254.5,423.5 C 255.832,427.264 256.665,431.264 257,435.5C 257.333,441.833 257.667,448.167 258,454.5C 260.889,456.518 264.055,457.851 267.5,458.5C 267.5,459.833 267.5,461.167 267.5,462.5C 261.642,462.178 255.975,462.511 250.5,463.5C 248.173,463.665 246.007,464.331 244,465.5C 242.093,473.309 239.093,480.642 235,487.5C 226.97,498.352 218.803,509.018 210.5,519.5C 198.841,520.344 192.174,515.01 190.5,503.5C 190.491,501.692 190.991,500.025 192,498.5C 200.013,486.472 207.513,474.139 214.5,461.5C 215.974,460.564 216.974,459.23 217.5,457.5C 220.307,451.886 223.14,446.22 226,440.5C 232.184,434.805 239.017,430.138 246.5,426.5C 249.167,425.5 251.833,424.5 254.5,423.5 Z"/></g>
<g><path style="opacity:0.966" fill="#575757" d="M 321.5,457.5 C 320.222,459.799 318.889,462.132 317.5,464.5C 320.748,474.565 322.414,484.899 322.5,495.5C 321.722,506.831 321.056,518.164 320.5,529.5C 332.312,532.803 341.812,539.47 349,549.5C 355.186,560.186 362.686,569.853 371.5,578.5C 369.716,578.107 368.05,577.441 366.5,576.5C 357.249,572.867 350.082,575.534 345,584.5C 344.413,588.31 344.913,591.977 346.5,595.5C 331.701,581.202 317.035,566.702 302.5,552C 299.333,549.5 296.167,547 293,544.5C 278.861,520.912 270.028,495.579 266.5,468.5C 267.341,466.621 267.675,464.621 267.5,462.5C 267.5,461.167 267.5,459.833 267.5,458.5C 285.565,464.059 303.565,463.726 321.5,457.5 Z"/></g>
<g><path style="opacity:0.88" fill="#c7c7c7" d="M 250.5,463.5 C 255.975,462.511 261.642,462.178 267.5,462.5C 267.675,464.621 267.341,466.621 266.5,468.5C 266.389,469.117 266.056,469.617 265.5,470C 259.022,471.092 254.022,468.925 250.5,463.5 Z"/></g>
<g><path style="opacity:0.975" fill="#434b65" d="M 184.5,501.5 C 182.063,501.886 180.063,503.053 178.5,505C 179.449,505.617 180.282,505.451 181,504.5C 181.317,506.301 181.984,506.634 183,505.5C 183.492,506.549 183.326,507.549 182.5,508.5C 183.76,509.382 184.926,510.382 186,511.5C 186.003,508.251 187.17,505.584 189.5,503.5C 189.833,503.5 190.167,503.5 190.5,503.5C 192.174,515.01 198.841,520.344 210.5,519.5C 210.658,522.902 210.324,526.236 209.5,529.5C 206.395,534.648 202.062,535.814 196.5,533C 190.287,526.119 182.954,520.786 174.5,517C 169.853,512.898 167.853,507.731 168.5,501.5C 169.649,497.997 172.149,496.331 176,496.5C 179.856,496.509 182.69,498.175 184.5,501.5 Z"/></g>
<g><path style="opacity:0.764" fill="#232323" d="M 168.5,501.5 C 167.853,507.731 169.853,512.898 174.5,517C 182.954,520.786 190.287,526.119 196.5,533C 202.062,535.814 206.395,534.648 209.5,529.5C 208.813,539.427 203.813,542.26 194.5,538C 190.766,535.284 188.266,531.784 187,527.5C 182.753,524.292 178.253,521.458 173.5,519C 166.783,514.375 165.117,508.542 168.5,501.5 Z"/></g>
<g><path style="opacity:1" fill="#2d3039" d="M 184.5,501.5 C 186.403,501.796 188.07,502.463 189.5,503.5C 187.17,505.584 186.003,508.251 186,511.5C 184.926,510.382 183.76,509.382 182.5,508.5C 183.326,507.549 183.492,506.549 183,505.5C 181.984,506.634 181.317,506.301 181,504.5C 180.282,505.451 179.449,505.617 178.5,505C 180.063,503.053 182.063,501.886 184.5,501.5 Z"/></g>
<g><path style="opacity:1" fill="#3e3e3e" d="M 366.5,576.5 C 362.484,575.9 358.984,576.9 356,579.5C 353.297,583.437 351.463,587.771 350.5,592.5C 350.556,593.737 351.056,594.737 352,595.5C 353.337,594.235 354.837,593.735 356.5,594C 354.109,595.309 354.109,596.309 356.5,597C 355.095,598.269 353.429,598.769 351.5,598.5C 349.928,597.313 348.261,596.313 346.5,595.5C 344.913,591.977 344.413,588.31 345,584.5C 350.082,575.534 357.249,572.867 366.5,576.5 Z"/></g>
<g><path style="opacity:0.975" fill="#434a64" d="M 366.5,576.5 C 368.05,577.441 369.716,578.107 371.5,578.5C 377.707,577.785 382.707,579.785 386.5,584.5C 383.484,584.841 380.818,586.007 378.5,588C 373.235,593.263 368.735,599.096 365,605.5C 360.37,610.801 354.704,614.468 348,616.5C 343.764,615.637 340.264,613.637 337.5,610.5C 337.33,609.178 337.663,608.011 338.5,607C 342.084,605.927 345.75,605.26 349.5,605C 350.167,604.333 350.833,603.667 351.5,603C 351.034,601.701 351.034,600.201 351.5,598.5C 353.429,598.769 355.095,598.269 356.5,597C 354.109,596.309 354.109,595.309 356.5,594C 354.837,593.735 353.337,594.235 352,595.5C 351.056,594.737 350.556,593.737 350.5,592.5C 351.463,587.771 353.297,583.437 356,579.5C 358.984,576.9 362.484,575.9 366.5,576.5 Z"/></g>
<g><path style="opacity:0.902" fill="#636363" d="M 390.5,587.5 C 389.649,592.201 387.482,596.201 384,599.5C 381.55,602.626 378.55,604.959 375,606.5C 373.611,614.471 368.777,618.637 360.5,619C 355.316,619.816 350.316,619.65 345.5,618.5C 349.41,618.737 353.077,617.904 356.5,616C 364.858,607.542 373.192,599.209 381.5,591C 384.072,588.713 387.072,587.547 390.5,587.5 Z"/></g>
<g><path style="opacity:0.919" fill="#242525" d="M 386.5,584.5 C 388.404,584.738 389.738,585.738 390.5,587.5C 387.072,587.547 384.072,588.713 381.5,591C 373.192,599.209 364.858,607.542 356.5,616C 353.077,617.904 349.41,618.737 345.5,618.5C 342.91,617.872 340.577,616.705 338.5,615C 336.534,613.653 336.201,612.153 337.5,610.5C 340.264,613.637 343.764,615.637 348,616.5C 354.704,614.468 360.37,610.801 365,605.5C 368.735,599.096 373.235,593.263 378.5,588C 380.818,586.007 383.484,584.841 386.5,584.5 Z"/></g>
</svg>
