<?xml version="1.0" encoding="UTF-8"?>
<!DOCTYPE svg PUBLIC "-//W3C//DTD SVG 1.1//EN" "http://www.w3.org/Graphics/SVG/1.1/DTD/svg11.dtd">
<svg xmlns="http://www.w3.org/2000/svg" version="1.1" width="607px" height="680px" style="shape-rendering:geometricPrecision; text-rendering:geometricPrecision; image-rendering:optimizeQuality; fill-rule:evenodd; clip-rule:evenodd" xmlns:xlink="http://www.w3.org/1999/xlink">
<g><path style="opacity:0.989" fill="#0b3462" d="M 551.5,360.5 C 547.119,360.372 542.785,360.705 538.5,361.5C 528.013,360.506 517.346,360.172 506.5,360.5C 506.5,395.833 506.5,431.167 506.5,466.5C 517.167,466.5 527.833,466.5 538.5,466.5C 539.791,466.263 540.791,466.596 541.5,467.5C 510.16,467.833 478.826,467.5 447.5,466.5C 451.172,451.154 454.839,435.821 458.5,420.5C 472.167,420.5 485.833,420.5 499.5,420.5C 499.5,393.5 499.5,366.5 499.5,339.5C 461.833,339.5 424.167,339.5 386.5,339.5C 386.5,356.5 386.5,373.5 386.5,390.5C 383.833,390.5 381.167,390.5 378.5,390.5C 378.5,373.5 378.5,356.5 378.5,339.5C 340.833,339.5 303.167,339.5 265.5,339.5C 265.5,360.167 265.5,380.833 265.5,401.5C 265.5,403.5 265.5,405.5 265.5,407.5C 262.529,404.192 259.529,400.859 256.5,397.5C 256.5,378.167 256.5,358.833 256.5,339.5C 251.821,339.334 247.155,339.501 242.5,340C 246.688,340.176 250.688,340.676 254.5,341.5C 250.5,341.5 246.5,341.5 242.5,341.5C 241.521,338.375 241.187,335.042 241.5,331.5C 246.833,331.5 252.167,331.5 257.5,331.5C 256.118,304.816 254.451,278.149 252.5,251.5C 214.5,251.5 176.5,251.5 138.5,251.5C 138.338,253.527 138.505,255.527 139,257.5C 139.21,255.942 139.71,254.609 140.5,253.5C 140.5,255.5 140.5,257.5 140.5,259.5C 139.835,263.151 139.501,266.985 139.5,271C 141.189,291.142 142.522,311.309 143.5,331.5C 160.167,331.5 176.833,331.5 193.5,331.5C 193.756,333.937 194.423,336.271 195.5,338.5C 177.846,339.5 160.179,339.833 142.5,339.5C 142.5,358.833 142.5,378.167 142.5,397.5C 140.5,397.5 138.5,397.5 136.5,397.5C 136.5,384.5 136.5,371.5 136.5,358.5C 111.5,358.5 86.5,358.5 61.5,358.5C 61.5,372.833 61.5,387.167 61.5,401.5C 61.5,408.833 61.5,416.167 61.5,423.5C 61.171,437.344 61.5043,451.01 62.5,464.5C 72.8333,464.5 83.1667,464.5 93.5,464.5C 98.1667,464.5 102.833,464.5 107.5,464.5C 107.5,465.5 107.5,466.5 107.5,467.5C 85.8072,466.844 64.4738,467.511 43.5,469.5C 19.9519,425.535 13.7853,379.202 25,330.5C 33.3525,300.251 50.1858,276.085 75.5,258C 89.1568,249.78 103.823,244.113 119.5,241C 133.059,238.568 146.725,237.234 160.5,237C 184.833,236.667 209.167,236.333 233.5,236C 248.496,235.418 262.496,231.418 275.5,224C 308.547,189.742 349.047,173.242 397,174.5C 442.62,173.817 483.12,187.65 518.5,216C 550.304,244.801 563.804,280.635 559,323.5C 556.937,336.06 554.437,348.393 551.5,360.5 Z"/></g>
<g><path style="opacity:1" fill="#042444" d="M 363.5,220.5 C 401.833,220.5 440.167,220.5 478.5,220.5C 478.5,229.5 478.5,238.5 478.5,247.5C 440.167,247.5 401.833,247.5 363.5,247.5C 363.5,238.5 363.5,229.5 363.5,220.5 Z"/></g>
<g><path style="opacity:1" fill="#bbcad7" d="M 373.5,226.5 C 375.625,227.368 375.791,228.368 374,229.5C 372.317,228.824 372.15,227.824 373.5,226.5 Z"/></g>
<g><path style="opacity:1" fill="#c47833" d="M 380.5,226.5 C 384.31,227.754 384.31,228.754 380.5,229.5C 380.5,228.5 380.5,227.5 380.5,226.5 Z"/></g>
<g><path style="opacity:1" fill="#b3c6e5" d="M 388.5,226.5 C 390.465,226.948 390.798,227.948 389.5,229.5C 388.614,228.675 388.281,227.675 388.5,226.5 Z"/></g>
<g><path style="opacity:1" fill="#fc902b" d="M 462.5,230.5 C 464.337,230.639 464.67,231.306 463.5,232.5C 462.702,232.043 462.369,231.376 462.5,230.5 Z"/></g>
<g><path style="opacity:1" fill="#cee0fe" d="M 470.5,230.5 C 472.337,230.639 472.67,231.306 471.5,232.5C 470.702,232.043 470.369,231.376 470.5,230.5 Z"/></g>
<g><path style="opacity:1" fill="#c6d3df" d="M 454.5,230.5 C 455.675,230.281 456.675,230.614 457.5,231.5C 455.948,232.798 454.948,232.465 454.5,230.5 Z"/></g>
<g><path style="opacity:1" fill="#b4c7e6" d="M 435.5,237.5 C 436.675,237.281 437.675,237.614 438.5,238.5C 436.948,239.798 435.948,239.465 435.5,237.5 Z"/></g>
<g><path style="opacity:1" fill="#fc902b" d="M 462.5,237.5 C 464.337,237.639 464.67,238.306 463.5,239.5C 462.702,239.043 462.369,238.376 462.5,237.5 Z"/></g>
<g><path style="opacity:1" fill="#cee0fe" d="M 470.5,237.5 C 472.337,237.639 472.67,238.306 471.5,239.5C 470.702,239.043 470.369,238.376 470.5,237.5 Z"/></g>
<g><path style="opacity:1" fill="#c3d1dd" d="M 419.5,237.5 C 420.675,237.281 421.675,237.614 422.5,238.5C 420.948,239.798 419.948,239.465 419.5,237.5 Z"/></g>
<g><path style="opacity:1" fill="#d17e2f" d="M 427.5,237.5 C 428.675,237.281 429.675,237.614 430.5,238.5C 428.948,239.798 427.948,239.465 427.5,237.5 Z"/></g>
<g><path style="opacity:1" fill="#c6d3df" d="M 454.5,237.5 C 455.675,237.281 456.675,237.614 457.5,238.5C 455.948,239.798 454.948,239.465 454.5,237.5 Z"/></g>
<g><path style="opacity:1" fill="#ccdefc" d="M 140.5,253.5 C 177.167,253.5 213.833,253.5 250.5,253.5C 252.64,278.795 254.307,304.128 255.5,329.5C 250.489,329.666 245.489,329.499 240.5,329C 244.423,324.594 244.423,320.261 240.5,316C 224.593,309.151 209.259,310.151 194.5,319C 194,319.5 193.5,320 193,320.5C 192.502,323.482 192.335,326.482 192.5,329.5C 176.833,329.5 161.167,329.5 145.5,329.5C 145.5,327.833 145.5,326.167 145.5,324.5C 148.87,324.721 151.87,325.721 154.5,327.5C 156.319,327.658 157.652,326.991 158.5,325.5C 164.5,324.167 170.5,324.167 176.5,325.5C 177.348,326.991 178.681,327.658 180.5,327.5C 181.5,327.333 182.5,327.167 183.5,327C 184.333,324.833 185.833,323.333 188,322.5C 188.483,321.552 188.649,320.552 188.5,319.5C 188.5,317.5 188.5,315.5 188.5,313.5C 186.833,313.5 185.167,313.5 183.5,313.5C 184.464,309.189 182.964,306.189 179,304.5C 178.503,302.19 178.337,299.857 178.5,297.5C 177.178,297.67 176.011,297.337 175,296.5C 175.135,298.425 175.302,300.425 175.5,302.5C 167.826,302.666 160.159,302.5 152.5,302C 150.408,297.985 148.741,293.819 147.5,289.5C 155.174,289.334 162.841,289.5 170.5,290C 171.46,291.419 172.293,292.919 173,294.5C 172.941,288.667 170.441,284.167 165.5,281C 157.841,280.5 150.174,280.334 142.5,280.5C 141.725,273.647 141.058,266.647 140.5,259.5C 140.5,257.5 140.5,255.5 140.5,253.5 Z"/></g>
<g><path style="opacity:1" fill="#cedffd" d="M 373.5,255.5 C 374.642,273.158 375.642,290.825 376.5,308.5C 377.559,314.448 375.226,318.448 369.5,320.5C 367.541,319.252 366.041,317.585 365,315.5C 364.732,309.938 362.232,305.938 357.5,303.5C 359.401,299.848 360.401,295.848 360.5,291.5C 361.807,289.777 361.807,287.943 360.5,286C 351.222,284.093 348.556,287.26 352.5,295.5C 352.483,297.565 352.15,299.565 351.5,301.5C 350.542,301.953 349.708,302.619 349,303.5C 346.507,309.157 343.507,314.49 340,319.5C 337.994,322.536 337.16,325.869 337.5,329.5C 334.167,329.5 330.833,329.5 327.5,329.5C 327.425,326.794 327.092,324.127 326.5,321.5C 326.343,320.127 326.51,318.793 327,317.5C 328.009,319.025 328.509,320.692 328.5,322.5C 329.5,322.5 330.5,322.5 331.5,322.5C 331.246,318.061 330.412,313.728 329,309.5C 324.915,302.353 320.748,295.353 316.5,288.5C 322.356,283.597 321.69,279.93 314.5,277.5C 314.46,272.807 314.127,268.141 313.5,263.5C 303.5,263.5 293.5,263.5 283.5,263.5C 284.463,279.678 285.797,295.678 287.5,311.5C 287.5,312.167 287.5,312.833 287.5,313.5C 287.5,318.833 287.5,324.167 287.5,329.5C 287.167,329.5 286.833,329.5 286.5,329.5C 284.911,307.516 283.578,285.516 282.5,263.5C 276.167,263.5 269.833,263.5 263.5,263.5C 263.5,261.833 263.5,260.167 263.5,258.5C 263.5,257.167 263.5,255.833 263.5,254.5C 300.239,254.173 336.906,254.507 373.5,255.5 Z"/></g>
<g><path style="opacity:1" fill="#bad4fe" d="M 263.5,263.5 C 269.833,263.5 276.167,263.5 282.5,263.5C 283.578,285.516 284.911,307.516 286.5,329.5C 280.5,329.5 274.5,329.5 268.5,329.5C 268.795,327.265 268.461,325.265 267.5,323.5C 267.5,322.5 267.5,321.5 267.5,320.5C 266.498,301.47 265.164,282.47 263.5,263.5 Z"/></g>
<g><path style="opacity:1" fill="#bcd5fe" d="M 314.5,277.5 C 311.046,277.267 310.046,278.6 311.5,281.5C 310.034,284.595 310.368,287.595 312.5,290.5C 309.931,295.3 307.098,299.967 304,304.5C 298.653,307.259 293.153,309.592 287.5,311.5C 285.797,295.678 284.463,279.678 283.5,263.5C 293.5,263.5 303.5,263.5 313.5,263.5C 314.127,268.141 314.46,272.807 314.5,277.5 Z"/></g>
<g><path style="opacity:1" fill="#092a4c" d="M 267.5,320.5 C 267.5,321.5 267.5,322.5 267.5,323.5C 267.5,325.833 267.5,328.167 267.5,330.5C 304.67,330.832 341.67,330.498 378.5,329.5C 378.5,328.167 378.5,326.833 378.5,325.5C 378.032,319.671 377.365,314.004 376.5,308.5C 375.642,290.825 374.642,273.158 373.5,255.5C 336.848,253.506 299.848,252.84 262.5,253.5C 262.5,255.167 262.5,256.833 262.5,258.5C 262.66,260.199 262.494,261.866 262,263.5C 261.501,259.848 261.335,256.182 261.5,252.5C 299.5,252.5 337.5,252.5 375.5,252.5C 376.977,279.182 378.644,305.848 380.5,332.5C 342.5,332.5 304.5,332.5 266.5,332.5C 266.183,328.298 266.517,324.298 267.5,320.5 Z"/></g>
<g><path style="opacity:1" fill="#748cac" d="M 373.5,255.5 C 336.906,254.507 300.239,254.173 263.5,254.5C 263.5,255.833 263.5,257.167 263.5,258.5C 263.167,258.5 262.833,258.5 262.5,258.5C 262.5,256.833 262.5,255.167 262.5,253.5C 299.848,252.84 336.848,253.506 373.5,255.5 Z"/></g>
<g><path style="opacity:1" fill="#738eb4" d="M 314.5,277.5 C 321.69,279.93 322.356,283.597 316.5,288.5C 314.824,287.817 314.157,286.483 314.5,284.5C 313.5,284.5 312.5,284.5 311.5,284.5C 311.5,283.5 311.5,282.5 311.5,281.5C 310.046,278.6 311.046,277.267 314.5,277.5 Z"/></g>
<g><path style="opacity:1" fill="#7e95c7" d="M 360.5,291.5 C 358.473,291.338 356.473,291.505 354.5,292C 353.027,292.71 352.36,293.876 352.5,295.5C 348.556,287.26 351.222,284.093 360.5,286C 361.807,287.943 361.807,289.777 360.5,291.5 Z"/></g>
<g><path style="opacity:1" fill="#e3b999" d="M 311.5,281.5 C 311.5,282.5 311.5,283.5 311.5,284.5C 312.5,284.5 313.5,284.5 314.5,284.5C 314.157,286.483 314.824,287.817 316.5,288.5C 320.748,295.353 324.915,302.353 329,309.5C 330.412,313.728 331.246,318.061 331.5,322.5C 330.5,322.5 329.5,322.5 328.5,322.5C 328.509,320.692 328.009,319.025 327,317.5C 326.51,318.793 326.343,320.127 326.5,321.5C 321.366,323.766 316.033,324.099 310.5,322.5C 309.723,317.916 309.223,313.25 309,308.5C 302.318,312.128 295.151,313.795 287.5,313.5C 287.5,312.833 287.5,312.167 287.5,311.5C 293.153,309.592 298.653,307.259 304,304.5C 307.098,299.967 309.931,295.3 312.5,290.5C 310.368,287.595 310.034,284.595 311.5,281.5 Z"/></g>
<g><path style="opacity:1" fill="#e4c5b9" d="M 360.5,291.5 C 360.401,295.848 359.401,299.848 357.5,303.5C 355.297,303.396 353.297,302.73 351.5,301.5C 352.15,299.565 352.483,297.565 352.5,295.5C 352.36,293.876 353.027,292.71 354.5,292C 356.473,291.505 358.473,291.338 360.5,291.5 Z"/></g>
<g><path style="opacity:1" fill="#7992c0" d="M 351.5,301.5 C 353.297,302.73 355.297,303.396 357.5,303.5C 362.232,305.938 364.732,309.938 365,315.5C 366.041,317.585 367.541,319.252 369.5,320.5C 375.226,318.448 377.559,314.448 376.5,308.5C 377.365,314.004 378.032,319.671 378.5,325.5C 377.778,325.082 377.278,324.416 377,323.5C 373.901,327.652 370.068,329.318 365.5,328.5C 369.783,329.492 374.116,329.826 378.5,329.5C 341.67,330.498 304.67,330.832 267.5,330.5C 267.5,328.167 267.5,325.833 267.5,323.5C 268.461,325.265 268.795,327.265 268.5,329.5C 274.5,329.5 280.5,329.5 286.5,329.5C 286.833,329.5 287.167,329.5 287.5,329.5C 295.167,329.5 302.833,329.5 310.5,329.5C 310.5,327.167 310.5,324.833 310.5,322.5C 316.033,324.099 321.366,323.766 326.5,321.5C 327.092,324.127 327.425,326.794 327.5,329.5C 330.833,329.5 334.167,329.5 337.5,329.5C 337.16,325.869 337.994,322.536 340,319.5C 343.507,314.49 346.507,309.157 349,303.5C 349.708,302.619 350.542,301.953 351.5,301.5 Z"/></g>
<g><path style="opacity:1" fill="#bcd5fe" d="M 310.5,322.5 C 310.5,324.833 310.5,327.167 310.5,329.5C 302.833,329.5 295.167,329.5 287.5,329.5C 287.5,324.167 287.5,318.833 287.5,313.5C 295.151,313.795 302.318,312.128 309,308.5C 309.223,313.25 309.723,317.916 310.5,322.5 Z"/></g>
<g><path style="opacity:1" fill="#082747" d="M 241.5,331.5 C 240.883,331.389 240.383,331.056 240,330.5C 238.264,336.389 235.764,341.889 232.5,347C 230.473,347.498 228.473,347.331 226.5,346.5C 224.971,346.529 223.804,347.196 223,348.5C 222.803,353.086 222.303,357.586 221.5,362C 215.266,364.724 209.932,363.558 205.5,358.5C 201.694,353.676 198.694,348.343 196.5,342.5C 179.179,341.5 161.846,341.167 144.5,341.5C 144.5,360.167 144.5,378.833 144.5,397.5C 143.833,397.5 143.167,397.5 142.5,397.5C 142.5,378.167 142.5,358.833 142.5,339.5C 160.179,339.833 177.846,339.5 195.5,338.5C 194.423,336.271 193.756,333.937 193.5,331.5C 176.833,331.5 160.167,331.5 143.5,331.5C 142.522,311.309 141.189,291.142 139.5,271C 139.501,266.985 139.835,263.151 140.5,259.5C 141.058,266.647 141.725,273.647 142.5,280.5C 142.5,283.833 142.5,287.167 142.5,290.5C 142.198,293.059 142.532,295.393 143.5,297.5C 144.119,306.505 144.786,315.505 145.5,324.5C 145.5,326.167 145.5,327.833 145.5,329.5C 161.167,329.5 176.833,329.5 192.5,329.5C 192.335,326.482 192.502,323.482 193,320.5C 193.5,320 194,319.5 194.5,319C 209.259,310.151 224.593,309.151 240.5,316C 244.423,320.261 244.423,324.594 240.5,329C 245.489,329.499 250.489,329.666 255.5,329.5C 254.307,304.128 252.64,278.795 250.5,253.5C 213.833,253.5 177.167,253.5 140.5,253.5C 139.71,254.609 139.21,255.942 139,257.5C 138.505,255.527 138.338,253.527 138.5,251.5C 176.5,251.5 214.5,251.5 252.5,251.5C 254.451,278.149 256.118,304.816 257.5,331.5C 252.167,331.5 246.833,331.5 241.5,331.5 Z"/></g>
<g><path style="opacity:1" fill="#c5d8f1" d="M 164.5,314.5 C 162.027,314.912 160.694,313.912 160.5,311.5C 160.281,310.325 160.614,309.325 161.5,308.5C 163.776,309.213 166.109,309.713 168.5,310C 169.38,311.356 169.714,312.856 169.5,314.5C 167.833,314.5 166.167,314.5 164.5,314.5 Z"/></g>
<g><path style="opacity:1" fill="#bf93a5" d="M 143.5,297.5 C 144.959,297.433 146.292,297.766 147.5,298.5C 147.5,300.167 147.5,301.833 147.5,303.5C 148.822,303.67 149.989,303.337 151,302.5C 154.156,305.634 157.323,308.634 160.5,311.5C 160.694,313.912 162.027,314.912 164.5,314.5C 165.301,316.042 165.634,317.708 165.5,319.5C 173.167,319.5 180.833,319.5 188.5,319.5C 188.649,320.552 188.483,321.552 188,322.5C 185.833,323.333 184.333,324.833 183.5,327C 182.5,327.167 181.5,327.333 180.5,327.5C 178.681,327.658 177.348,326.991 176.5,325.5C 170.5,324.167 164.5,324.167 158.5,325.5C 157.652,326.991 156.319,327.658 154.5,327.5C 151.87,325.721 148.87,324.721 145.5,324.5C 144.786,315.505 144.119,306.505 143.5,297.5 Z"/></g>
<g><path style="opacity:1" fill="#d0a0af" d="M 142.5,280.5 C 150.174,280.334 157.841,280.5 165.5,281C 170.441,284.167 172.941,288.667 173,294.5C 172.293,292.919 171.46,291.419 170.5,290C 162.841,289.5 155.174,289.334 147.5,289.5C 148.741,293.819 150.408,297.985 152.5,302C 160.159,302.5 167.826,302.666 175.5,302.5C 175.302,300.425 175.135,298.425 175,296.5C 176.011,297.337 177.178,297.67 178.5,297.5C 178.337,299.857 178.503,302.19 179,304.5C 182.964,306.189 184.464,309.189 183.5,313.5C 185.167,313.5 186.833,313.5 188.5,313.5C 188.5,315.5 188.5,317.5 188.5,319.5C 180.833,319.5 173.167,319.5 165.5,319.5C 165.634,317.708 165.301,316.042 164.5,314.5C 166.167,314.5 167.833,314.5 169.5,314.5C 169.714,312.856 169.38,311.356 168.5,310C 166.109,309.713 163.776,309.213 161.5,308.5C 160.614,309.325 160.281,310.325 160.5,311.5C 157.323,308.634 154.156,305.634 151,302.5C 149.989,303.337 148.822,303.67 147.5,303.5C 147.5,301.833 147.5,300.167 147.5,298.5C 147.244,296.063 146.577,293.729 145.5,291.5C 144.675,290.614 143.675,290.281 142.5,290.5C 142.5,287.167 142.5,283.833 142.5,280.5 Z"/></g>
<g><path style="opacity:1" fill="#b2c7e1" d="M 142.5,290.5 C 143.675,290.281 144.675,290.614 145.5,291.5C 146.577,293.729 147.244,296.063 147.5,298.5C 146.292,297.766 144.959,297.433 143.5,297.5C 142.532,295.393 142.198,293.059 142.5,290.5 Z"/></g>
<g><path style="opacity:1" fill="#c6d8f7" d="M 378.5,325.5 C 378.5,326.833 378.5,328.167 378.5,329.5C 374.116,329.826 369.783,329.492 365.5,328.5C 370.068,329.318 373.901,327.652 377,323.5C 377.278,324.416 377.778,325.082 378.5,325.5 Z"/></g>
<g><path style="opacity:1" fill="#0f2c4e" d="M 380.5,251.5 C 418.501,251.333 456.501,251.5 494.5,252C 496.71,278.433 498.71,304.933 500.5,331.5C 462.5,331.5 424.5,331.5 386.5,331.5C 384.406,304.845 382.406,278.179 380.5,251.5 Z"/></g>
<g><path style="opacity:1" fill="#606d85" d="M 418.5,329.5 C 423.833,329.5 429.167,329.5 434.5,329.5C 440.167,329.5 445.833,329.5 451.5,329.5C 454.167,329.5 456.833,329.5 459.5,329.5C 467.167,329.5 474.833,329.5 482.5,329.5C 486.5,329.5 490.5,329.5 494.5,329.5C 495.833,329.5 497.167,329.5 498.5,329.5C 461.833,330.833 425.167,330.833 388.5,329.5C 392.5,329.5 396.5,329.5 400.5,329.5C 402.5,329.5 404.5,329.5 406.5,329.5C 406.337,327.143 406.503,324.81 407,322.5C 409.024,320.116 411.191,319.949 413.5,322C 408.291,321.401 406.291,323.901 407.5,329.5C 411.167,329.5 414.833,329.5 418.5,329.5 Z"/></g>
<g><path style="opacity:1" fill="#cedefd" d="M 383.5,254.5 C 420.239,254.173 456.906,254.507 493.5,255.5C 494.882,280.188 496.549,304.855 498.5,329.5C 497.167,329.5 495.833,329.5 494.5,329.5C 491.99,308.086 488.99,286.752 485.5,265.5C 470.273,265.381 454.939,265.048 439.5,264.5C 440.164,268.487 440.831,272.487 441.5,276.5C 441.48,277.726 441.147,278.726 440.5,279.5C 434.092,279.58 431.092,282.914 431.5,289.5C 432.722,291.978 434.722,292.978 437.5,292.5C 437.5,293.167 437.5,293.833 437.5,294.5C 438.449,299.74 438.782,305.073 438.5,310.5C 441.609,310.736 444.609,310.403 447.5,309.5C 447.5,310.167 447.5,310.833 447.5,311.5C 443.818,311.335 440.152,311.501 436.5,312C 435.418,313.33 434.751,314.83 434.5,316.5C 433.609,315.89 432.609,315.557 431.5,315.5C 432.811,312.124 433.811,308.624 434.5,305C 432.286,300.369 430.952,300.536 430.5,305.5C 430.015,310.368 429.348,315.201 428.5,320C 428.836,321.03 429.503,321.53 430.5,321.5C 431.995,321.989 433.329,322.655 434.5,323.5C 434.5,325.5 434.5,327.5 434.5,329.5C 429.167,329.5 423.833,329.5 418.5,329.5C 416.971,326.246 415.638,322.913 414.5,319.5C 413.735,316.904 413.401,314.237 413.5,311.5C 415.144,311.714 416.644,311.38 418,310.5C 418.497,308.19 418.663,305.857 418.5,303.5C 422.473,302.925 423.473,300.758 421.5,297C 417.922,297.028 414.422,296.861 411,296.5C 405.526,297.266 402.693,300.266 402.5,305.5C 402.778,309.649 404.111,313.316 406.5,316.5C 406.377,317.925 406.043,319.258 405.5,320.5C 402.55,322.728 400.884,325.728 400.5,329.5C 396.5,329.5 392.5,329.5 388.5,329.5C 386.691,304.51 385.025,279.51 383.5,254.5 Z"/></g>
<g><path style="opacity:1" fill="#718eb4" d="M 451.5,321.5 C 454.698,320.964 457.365,321.631 459.5,323.5C 459.5,325.5 459.5,327.5 459.5,329.5C 456.833,329.5 454.167,329.5 451.5,329.5C 451.5,326.833 451.5,324.167 451.5,321.5 Z"/></g>
<g><path style="opacity:1" fill="#d196a1" d="M 414.5,319.5 C 415.638,322.913 416.971,326.246 418.5,329.5C 414.833,329.5 411.167,329.5 407.5,329.5C 406.291,323.901 408.291,321.401 413.5,322C 411.191,319.949 409.024,320.116 407,322.5C 406.503,324.81 406.337,327.143 406.5,329.5C 404.5,329.5 402.5,329.5 400.5,329.5C 400.884,325.728 402.55,322.728 405.5,320.5C 408.43,319.701 411.43,319.368 414.5,319.5 Z"/></g>
<g><path style="opacity:1" fill="#7390b6" d="M 431.5,315.5 C 432.609,315.557 433.609,315.89 434.5,316.5C 438.156,317.145 439.156,319.145 437.5,322.5C 436.675,323.386 435.675,323.719 434.5,323.5C 433.329,322.655 431.995,321.989 430.5,321.5C 430.517,319.435 430.85,317.435 431.5,315.5 Z"/></g>
<g><path style="opacity:1" fill="#e3b491" d="M 447.5,311.5 C 448.641,314.254 449.975,316.921 451.5,319.5C 451.5,320.167 451.5,320.833 451.5,321.5C 451.5,324.167 451.5,326.833 451.5,329.5C 445.833,329.5 440.167,329.5 434.5,329.5C 434.5,327.5 434.5,325.5 434.5,323.5C 435.675,323.719 436.675,323.386 437.5,322.5C 439.156,319.145 438.156,317.145 434.5,316.5C 434.751,314.83 435.418,313.33 436.5,312C 440.152,311.501 443.818,311.335 447.5,311.5 Z"/></g>
<g><path style="opacity:1" fill="#e6ecf9" d="M 468.5,308.5 C 469.327,313.65 472.327,315.65 477.5,314.5C 477.483,312.435 477.15,310.435 476.5,308.5C 476.833,308.5 477.167,308.5 477.5,308.5C 478.531,309.249 479.698,309.915 481,310.5C 481.765,316.817 482.265,323.151 482.5,329.5C 474.833,329.5 467.167,329.5 459.5,329.5C 459.5,327.5 459.5,325.5 459.5,323.5C 460.475,320.689 461.142,317.689 461.5,314.5C 461.939,310.399 464.273,308.399 468.5,308.5 Z"/></g>
<g><path style="opacity:1" fill="#dcc3bc" d="M 449.5,301.5 C 449.351,307.718 451.018,313.384 454.5,318.5C 453.675,319.386 452.675,319.719 451.5,319.5C 449.975,316.921 448.641,314.254 447.5,311.5C 447.5,310.833 447.5,310.167 447.5,309.5C 448.167,306.833 448.833,304.167 449.5,301.5 Z"/></g>
<g><path style="opacity:1" fill="#e3c7bd" d="M 431.5,315.5 C 430.85,317.435 430.517,319.435 430.5,321.5C 429.503,321.53 428.836,321.03 428.5,320C 429.348,315.201 430.015,310.368 430.5,305.5C 430.952,300.536 432.286,300.369 434.5,305C 433.811,308.624 432.811,312.124 431.5,315.5 Z"/></g>
<g><path style="opacity:1" fill="#e2c1b6" d="M 413.5,311.5 C 413.401,314.237 413.735,316.904 414.5,319.5C 411.43,319.368 408.43,319.701 405.5,320.5C 406.043,319.258 406.377,317.925 406.5,316.5C 404.111,313.316 402.778,309.649 402.5,305.5C 403.479,304.235 404.479,302.901 405.5,301.5C 406.867,305.033 409.367,307.366 413,308.5C 413.483,309.448 413.649,310.448 413.5,311.5 Z"/></g>
<g><path style="opacity:1" fill="#ac7987" d="M 413.5,311.5 C 413.649,310.448 413.483,309.448 413,308.5C 409.367,307.366 406.867,305.033 405.5,301.5C 404.479,302.901 403.479,304.235 402.5,305.5C 402.693,300.266 405.526,297.266 411,296.5C 414.422,296.861 417.922,297.028 421.5,297C 423.473,300.758 422.473,302.925 418.5,303.5C 418.663,305.857 418.497,308.19 418,310.5C 416.644,311.38 415.144,311.714 413.5,311.5 Z"/></g>
<g><path style="opacity:1" fill="#e4ebfa" d="M 443.5,293.5 C 447.391,294.727 449.391,297.394 449.5,301.5C 448.833,304.167 448.167,306.833 447.5,309.5C 444.609,310.403 441.609,310.736 438.5,310.5C 438.782,305.073 438.449,299.74 437.5,294.5C 439.735,294.795 441.735,294.461 443.5,293.5 Z"/></g>
<g><path style="opacity:1" fill="#e1c4b8" d="M 442.5,292.5 C 442.5,293.167 442.833,293.5 443.5,293.5C 441.735,294.461 439.735,294.795 437.5,294.5C 437.5,293.833 437.5,293.167 437.5,292.5C 437.103,288.679 438.436,285.679 441.5,283.5C 443.782,286.254 444.115,289.254 442.5,292.5 Z"/></g>
<g><path style="opacity:1" fill="#7591b6" d="M 440.5,279.5 C 443.279,282.6 445.612,286.1 447.5,290C 446.615,292.157 444.948,292.99 442.5,292.5C 444.115,289.254 443.782,286.254 441.5,283.5C 438.436,285.679 437.103,288.679 437.5,292.5C 434.722,292.978 432.722,291.978 431.5,289.5C 431.092,282.914 434.092,279.58 440.5,279.5 Z"/></g>
<g><path style="opacity:1" fill="#bcd5fe" d="M 494.5,329.5 C 490.5,329.5 486.5,329.5 482.5,329.5C 482.265,323.151 481.765,316.817 481,310.5C 479.698,309.915 478.531,309.249 477.5,308.5C 478.693,308.03 479.36,307.03 479.5,305.5C 480.379,302.188 480.546,298.855 480,295.5C 474.67,288.689 469.67,289.023 465,296.5C 463.721,301.463 462.221,306.296 460.5,311C 460.648,312.256 460.982,313.423 461.5,314.5C 461.142,317.689 460.475,320.689 459.5,323.5C 457.365,321.631 454.698,320.964 451.5,321.5C 451.5,320.833 451.5,320.167 451.5,319.5C 452.675,319.719 453.675,319.386 454.5,318.5C 451.018,313.384 449.351,307.718 449.5,301.5C 449.391,297.394 447.391,294.727 443.5,293.5C 442.833,293.5 442.5,293.167 442.5,292.5C 444.948,292.99 446.615,292.157 447.5,290C 445.612,286.1 443.279,282.6 440.5,279.5C 441.147,278.726 441.48,277.726 441.5,276.5C 440.831,272.487 440.164,268.487 439.5,264.5C 454.939,265.048 470.273,265.381 485.5,265.5C 488.99,286.752 491.99,308.086 494.5,329.5 Z"/></g>
<g><path style="opacity:1" fill="#e6c6b9" d="M 476.5,308.5 C 477.15,310.435 477.483,312.435 477.5,314.5C 472.327,315.65 469.327,313.65 468.5,308.5C 469.117,308.389 469.617,308.056 470,307.5C 470.497,304.854 470.664,302.187 470.5,299.5C 473.272,299.405 475.272,298.071 476.5,295.5C 479.47,299.592 479.137,303.259 475.5,306.5C 475.543,307.416 475.876,308.083 476.5,308.5 Z"/></g>
<g><path style="opacity:1" fill="#c995a1" d="M 477.5,308.5 C 477.167,308.5 476.833,308.5 476.5,308.5C 475.876,308.083 475.543,307.416 475.5,306.5C 479.137,303.259 479.47,299.592 476.5,295.5C 475.272,298.071 473.272,299.405 470.5,299.5C 470.664,302.187 470.497,304.854 470,307.5C 469.617,308.056 469.117,308.389 468.5,308.5C 464.273,308.399 461.939,310.399 461.5,314.5C 460.982,313.423 460.648,312.256 460.5,311C 462.221,306.296 463.721,301.463 465,296.5C 469.67,289.023 474.67,288.689 480,295.5C 480.546,298.855 480.379,302.188 479.5,305.5C 479.36,307.03 478.693,308.03 477.5,308.5 Z"/></g>
<g><path style="opacity:1" fill="#9bb0cf" d="M 383.5,254.5 C 401.664,253.833 419.997,253.5 438.5,253.5C 457.179,253.5 475.512,254.167 493.5,255.5C 456.906,254.507 420.239,254.173 383.5,254.5 Z"/></g>
<g><path style="opacity:1" fill="#faac73" d="M 241.5,331.5 C 241.187,335.042 241.521,338.375 242.5,341.5C 242.22,349.624 241.054,357.624 239,365.5C 238.535,366.931 237.701,368.097 236.5,369C 233.854,369.497 231.187,369.664 228.5,369.5C 228.5,373.167 228.5,376.833 228.5,380.5C 220.496,377.497 212.496,374.497 204.5,371.5C 206.485,367.269 206.818,362.936 205.5,358.5C 209.932,363.558 215.266,364.724 221.5,362C 222.303,357.586 222.803,353.086 223,348.5C 223.804,347.196 224.971,346.529 226.5,346.5C 228.473,347.331 230.473,347.498 232.5,347C 235.764,341.889 238.264,336.389 240,330.5C 240.383,331.056 240.883,331.389 241.5,331.5 Z"/></g>
<g><path style="opacity:1" fill="#032547" d="M 256.5,397.5 C 255.833,397.167 255.167,396.833 254.5,396.5C 254.5,378.167 254.5,359.833 254.5,341.5C 250.688,340.676 246.688,340.176 242.5,340C 247.155,339.501 251.821,339.334 256.5,339.5C 256.5,358.833 256.5,378.167 256.5,397.5 Z"/></g>
<g><path style="opacity:1" fill="#133051" d="M 378.5,390.5 C 378.167,390.5 377.833,390.5 377.5,390.5C 377.83,373.991 377.496,357.658 376.5,341.5C 340.167,341.5 303.833,341.5 267.5,341.5C 267.5,356.833 267.5,372.167 267.5,387.5C 267.5,391.167 267.5,394.833 267.5,398.5C 267.5,399.167 267.5,399.833 267.5,400.5C 266.833,400.833 266.167,401.167 265.5,401.5C 265.5,380.833 265.5,360.167 265.5,339.5C 303.167,339.5 340.833,339.5 378.5,339.5C 378.5,356.5 378.5,373.5 378.5,390.5 Z"/></g>
<g><path style="opacity:1" fill="#cedffe" d="M 205.5,358.5 C 206.818,362.936 206.485,367.269 204.5,371.5C 201.442,373.243 199.442,375.91 198.5,379.5C 187.884,381.316 177.884,384.816 168.5,390C 165.961,392.37 163.628,394.87 161.5,397.5C 155.833,397.5 150.167,397.5 144.5,397.5C 144.5,378.833 144.5,360.167 144.5,341.5C 161.846,341.167 179.179,341.5 196.5,342.5C 198.694,348.343 201.694,353.676 205.5,358.5 Z"/></g>
<g><path style="opacity:1" fill="#cedefd" d="M 242.5,341.5 C 246.5,341.5 250.5,341.5 254.5,341.5C 254.5,359.833 254.5,378.167 254.5,396.5C 247.663,392.082 240.33,388.748 232.5,386.5C 231.585,384.246 230.252,382.246 228.5,380.5C 228.5,376.833 228.5,373.167 228.5,369.5C 231.187,369.664 233.854,369.497 236.5,369C 237.701,368.097 238.535,366.931 239,365.5C 241.054,357.624 242.22,349.624 242.5,341.5 Z"/></g>
<g><path style="opacity:1" fill="#cedefd" d="M 376.5,341.5 C 376.5,357.833 376.5,374.167 376.5,390.5C 372.629,390.185 368.962,390.518 365.5,391.5C 364.013,395.116 362.68,398.783 361.5,402.5C 359.429,396.62 357.763,390.62 356.5,384.5C 356.38,381.52 355.713,378.687 354.5,376C 355.591,373.936 355.758,371.769 355,369.5C 354.834,373.511 354,374.011 352.5,371C 351.255,370.209 349.922,369.709 348.5,369.5C 347.566,368.432 347.232,367.099 347.5,365.5C 348.675,365.719 349.675,365.386 350.5,364.5C 351.051,361.944 352.051,359.611 353.5,357.5C 353.291,356.914 352.957,356.414 352.5,356C 348.088,355.412 344.254,356.579 341,359.5C 340.235,361.066 340.402,362.399 341.5,363.5C 341.449,365.57 342.115,367.403 343.5,369C 343.43,369.765 343.097,370.265 342.5,370.5C 339.633,370.369 337.967,371.703 337.5,374.5C 335.631,370.325 332.798,366.659 329,363.5C 328.517,362.552 328.351,361.552 328.5,360.5C 331.973,358.437 332.306,355.937 329.5,353C 326.743,352.218 324.243,352.718 322,354.5C 321.308,355.437 321.475,356.103 322.5,356.5C 322.222,359.29 322.889,361.79 324.5,364C 322.957,366.042 321.624,368.208 320.5,370.5C 319.566,371.568 319.232,372.901 319.5,374.5C 314.854,372.948 310.354,373.281 306,375.5C 304.067,381.544 302.567,387.711 301.5,394C 301.05,396.626 302.05,398.126 304.5,398.5C 303.909,399.151 303.243,399.818 302.5,400.5C 303.609,401.965 303.109,402.965 301,403.5C 300.501,408.489 300.334,413.489 300.5,418.5C 296.5,418.5 292.5,418.5 288.5,418.5C 289.272,414.548 289.605,410.548 289.5,406.5C 290.946,401.162 290.613,395.829 288.5,390.5C 289.5,390.5 290.5,390.5 291.5,390.5C 290.852,384.396 289.519,378.562 287.5,373C 287.833,372.667 288.167,372.333 288.5,372C 286.137,371.411 285.137,369.911 285.5,367.5C 286.931,366.22 287.598,364.553 287.5,362.5C 286.896,357.848 284.23,356.348 279.5,358C 276.71,360.21 275.877,363.044 277,366.5C 278.011,367.337 279.178,367.67 280.5,367.5C 280.5,367.833 280.5,368.167 280.5,368.5C 278.69,369.908 276.69,371.075 274.5,372C 275.833,372.333 277.167,372.667 278.5,373C 276.744,373.202 275.078,373.702 273.5,374.5C 271.725,379.044 269.725,383.377 267.5,387.5C 267.5,372.167 267.5,356.833 267.5,341.5C 303.833,341.5 340.167,341.5 376.5,341.5 Z"/></g>
<g><path style="opacity:1" fill="#8097bb" d="M 376.5,341.5 C 377.496,357.658 377.83,373.991 377.5,390.5C 373.702,391.483 369.702,391.817 365.5,391.5C 368.962,390.518 372.629,390.185 376.5,390.5C 376.5,374.167 376.5,357.833 376.5,341.5 Z"/></g>
<g><path style="opacity:1" fill="#cbdcfc" d="M 388.5,341.5 C 425.167,341.5 461.833,341.5 498.5,341.5C 498.5,367.167 498.5,392.833 498.5,418.5C 495.167,418.5 491.833,418.5 488.5,418.5C 488.666,410.826 488.5,403.159 488,395.5C 486.961,394.756 486.461,393.756 486.5,392.5C 487.511,388.888 487.678,385.221 487,381.5C 485.826,377.954 485.16,374.287 485,370.5C 484.208,368.413 483.041,366.579 481.5,365C 477.289,363.466 472.956,363.133 468.5,364C 464.702,367.753 462.035,372.253 460.5,377.5C 460.043,378.298 459.376,378.631 458.5,378.5C 457.691,376.708 457.191,374.708 457,372.5C 455.267,370.277 453.767,367.944 452.5,365.5C 453.974,362.193 454.974,358.693 455.5,355C 452.595,351.655 449.095,350.822 445,352.5C 443.86,356.389 444.693,359.722 447.5,362.5C 442.275,366.944 439.108,372.611 438,379.5C 436.795,375.123 433.961,372.79 429.5,372.5C 435.96,360.593 432.294,354.593 418.5,354.5C 419.028,358.212 419.862,361.879 421,365.5C 425.945,369.214 425.445,371.714 419.5,373C 415.899,378.231 414.232,384.064 414.5,390.5C 405.833,390.5 397.167,390.5 388.5,390.5C 388.5,374.167 388.5,357.833 388.5,341.5 Z"/></g>
<g><path style="opacity:1" fill="#8391b6" d="M 328.5,360.5 C 327.609,359.739 326.942,358.739 326.5,357.5C 325.311,356.571 323.978,356.238 322.5,356.5C 321.475,356.103 321.308,355.437 322,354.5C 324.243,352.718 326.743,352.218 329.5,353C 332.306,355.937 331.973,358.437 328.5,360.5 Z"/></g>
<g><path style="opacity:1" fill="#7b90b5" d="M 347.5,365.5 C 345.816,364 344.149,362.333 342.5,360.5C 341.614,361.325 341.281,362.325 341.5,363.5C 340.402,362.399 340.235,361.066 341,359.5C 344.254,356.579 348.088,355.412 352.5,356C 352.957,356.414 353.291,356.914 353.5,357.5C 352.051,359.611 351.051,361.944 350.5,364.5C 349.675,365.386 348.675,365.719 347.5,365.5 Z"/></g>
<g><path style="opacity:1" fill="#7c90b4" d="M 287.5,362.5 C 286.009,359.77 284.675,359.937 283.5,363C 282.552,363.483 281.552,363.649 280.5,363.5C 280.5,364.833 280.5,366.167 280.5,367.5C 279.178,367.67 278.011,367.337 277,366.5C 275.877,363.044 276.71,360.21 279.5,358C 284.23,356.348 286.896,357.848 287.5,362.5 Z"/></g>
<g><path style="opacity:1" fill="#24468e" d="M 136.5,397.5 C 120.537,400.63 111.037,410.297 108,426.5C 107.5,439.162 107.333,451.829 107.5,464.5C 102.833,464.5 98.1667,464.5 93.5,464.5C 93.5,458.833 93.5,453.167 93.5,447.5C 83.1667,447.5 72.8333,447.5 62.5,447.5C 62.5,453.167 62.5,458.833 62.5,464.5C 61.5043,451.01 61.171,437.344 61.5,423.5C 72.1667,423.5 82.8333,423.5 93.5,423.5C 93.5,416.167 93.5,408.833 93.5,401.5C 82.8333,401.5 72.1667,401.5 61.5,401.5C 61.5,387.167 61.5,372.833 61.5,358.5C 86.5,358.5 111.5,358.5 136.5,358.5C 136.5,371.5 136.5,384.5 136.5,397.5 Z"/></g>
<g><path style="opacity:1" fill="#365daa" d="M 62.5,359.5 C 72.8333,359.5 83.1667,359.5 93.5,359.5C 93.5,365.5 93.5,371.5 93.5,377.5C 83.1667,377.5 72.8333,377.5 62.5,377.5C 62.5,371.5 62.5,365.5 62.5,359.5 Z"/></g>
<g><path style="opacity:1" fill="#af8664" d="M 80.5,360.5 C 82.337,360.639 82.6704,361.306 81.5,362.5C 80.7025,362.043 80.3691,361.376 80.5,360.5 Z"/></g>
<g><path style="opacity:1" fill="#e2c4b9" d="M 287.5,362.5 C 287.598,364.553 286.931,366.22 285.5,367.5C 284.185,369.599 282.518,369.933 280.5,368.5C 280.5,368.167 280.5,367.833 280.5,367.5C 280.5,366.167 280.5,364.833 280.5,363.5C 281.552,363.649 282.552,363.483 283.5,363C 284.675,359.937 286.009,359.77 287.5,362.5 Z"/></g>
<g><path style="opacity:1" fill="#062e54" d="M 551.5,360.5 C 550.272,376.921 553.772,392.254 562,406.5C 568.584,416.666 574.918,427 581,437.5C 585.7,446.969 587.534,456.969 586.5,467.5C 571.5,467.5 556.5,467.5 541.5,467.5C 540.791,466.596 539.791,466.263 538.5,466.5C 538.5,431.5 538.5,396.5 538.5,361.5C 542.785,360.705 547.119,360.372 551.5,360.5 Z"/></g>
<g><path style="opacity:1" fill="#ad7988" d="M 486.5,392.5 C 484.95,391.559 483.284,390.893 481.5,390.5C 477.844,388.054 477.678,385.388 481,382.5C 483.552,377.603 482.885,373.27 479,369.5C 477.795,373.877 474.961,376.21 470.5,376.5C 470.665,380.182 470.499,383.848 470,387.5C 469.184,388.823 468.017,389.489 466.5,389.5C 465.167,389.5 464.5,390.167 464.5,391.5C 464.167,391.5 463.833,391.5 463.5,391.5C 460.038,390.518 456.371,390.185 452.5,390.5C 451.61,388.218 451.444,385.885 452,383.5C 453.965,381.45 456.132,379.783 458.5,378.5C 459.376,378.631 460.043,378.298 460.5,377.5C 462.035,372.253 464.702,367.753 468.5,364C 472.956,363.133 477.289,363.466 481.5,365C 483.041,366.579 484.208,368.413 485,370.5C 485.16,374.287 485.826,377.954 487,381.5C 487.678,385.221 487.511,388.888 486.5,392.5 Z"/></g>
<g><path style="opacity:1" fill="#e5c7bb" d="M 347.5,365.5 C 347.232,367.099 347.566,368.432 348.5,369.5C 348.465,374.378 346.132,375.711 341.5,373.5C 342.127,372.583 342.461,371.583 342.5,370.5C 343.097,370.265 343.43,369.765 343.5,369C 342.115,367.403 341.449,365.57 341.5,363.5C 341.281,362.325 341.614,361.325 342.5,360.5C 344.149,362.333 345.816,364 347.5,365.5 Z"/></g>
<g><path style="opacity:1" fill="#e5eefd" d="M 285.5,367.5 C 285.137,369.911 286.137,371.411 288.5,372C 288.167,372.333 287.833,372.667 287.5,373C 289.519,378.562 290.852,384.396 291.5,390.5C 290.5,390.5 289.5,390.5 288.5,390.5C 288.5,389.833 288.5,389.167 288.5,388.5C 284.336,389.114 280.17,388.447 276,386.5C 275.197,389.244 274.197,391.911 273,394.5C 271.951,393.483 270.784,393.316 269.5,394C 268.901,395.622 268.234,397.122 267.5,398.5C 267.5,394.833 267.5,391.167 267.5,387.5C 269.725,383.377 271.725,379.044 273.5,374.5C 275.078,373.702 276.744,373.202 278.5,373C 277.167,372.667 275.833,372.333 274.5,372C 276.69,371.075 278.69,369.908 280.5,368.5C 282.518,369.933 284.185,369.599 285.5,367.5 Z"/></g>
<g><path style="opacity:1" fill="#e4c2b5" d="M 481.5,390.5 C 476.261,394.687 471.261,394.354 466.5,389.5C 468.017,389.489 469.184,388.823 470,387.5C 470.499,383.848 470.665,380.182 470.5,376.5C 474.961,376.21 477.795,373.877 479,369.5C 482.885,373.27 483.552,377.603 481,382.5C 477.678,385.388 477.844,388.054 481.5,390.5 Z"/></g>
<g><path style="opacity:1" fill="#e4dbdb" d="M 320.5,370.5 C 322.607,371.468 324.941,371.802 327.5,371.5C 327.336,374.187 327.503,376.854 328,379.5C 328.333,377.833 328.667,376.167 329,374.5C 330.123,377.249 331.623,379.749 333.5,382C 330.944,383.055 329.277,384.888 328.5,387.5C 325.683,383.067 322.683,378.734 319.5,374.5C 319.232,372.901 319.566,371.568 320.5,370.5 Z"/></g>
<g><path style="opacity:1" fill="#e4ecfc" d="M 348.5,369.5 C 349.922,369.709 351.255,370.209 352.5,371C 354,374.011 354.834,373.511 355,369.5C 355.758,371.769 355.591,373.936 354.5,376C 355.713,378.687 356.38,381.52 356.5,384.5C 355.167,384.5 353.833,384.5 352.5,384.5C 352.767,386.965 353.434,389.299 354.5,391.5C 353.897,393.626 353.897,395.959 354.5,398.5C 352.549,398.773 351.049,398.107 350,396.5C 349.626,397.416 349.126,398.25 348.5,399C 344.091,400.262 340.257,399.428 337,396.5C 337.065,403.897 337.898,411.23 339.5,418.5C 337.66,416.341 336.493,413.675 336,410.5C 335.938,403.695 335.104,397.028 333.5,390.5C 333.5,389.5 333.5,388.5 333.5,387.5C 334.833,387.5 336.167,387.5 337.5,387.5C 337.814,382.656 337.814,378.322 337.5,374.5C 337.967,371.703 339.633,370.369 342.5,370.5C 342.461,371.583 342.127,372.583 341.5,373.5C 346.132,375.711 348.465,374.378 348.5,369.5 Z"/></g>
<g><path style="opacity:1" fill="#1060d2" d="M 204.5,371.5 C 212.496,374.497 220.496,377.497 228.5,380.5C 230.252,382.246 231.585,384.246 232.5,386.5C 221.104,384.484 209.771,382.151 198.5,379.5C 199.442,375.91 201.442,373.243 204.5,371.5 Z"/></g>
<g><path style="opacity:1" fill="#718bb1" d="M 319.5,374.5 C 322.683,378.734 325.683,383.067 328.5,387.5C 330.332,388.248 331.999,389.248 333.5,390.5C 335.104,397.028 335.938,403.695 336,410.5C 336.493,413.675 337.66,416.341 339.5,418.5C 343.5,418.5 347.5,418.5 351.5,418.5C 353.5,418.5 355.5,418.5 357.5,418.5C 357.5,418.833 357.5,419.167 357.5,419.5C 329.5,419.5 301.5,419.5 273.5,419.5C 272.833,419.5 272.5,419.167 272.5,418.5C 274.5,418.5 276.5,418.5 278.5,418.5C 281.833,418.5 285.167,418.5 288.5,418.5C 292.5,418.5 296.5,418.5 300.5,418.5C 306.5,418.5 312.5,418.5 318.5,418.5C 317.74,412.196 317.407,405.863 317.5,399.5C 313.543,399.992 309.877,399.325 306.5,397.5C 305.817,397.863 305.15,398.196 304.5,398.5C 302.05,398.126 301.05,396.626 301.5,394C 302.567,387.711 304.067,381.544 306,375.5C 310.354,373.281 314.854,372.948 319.5,374.5 Z"/></g>
<g><path style="opacity:1" fill="#e4cac2" d="M 322.5,356.5 C 323.978,356.238 325.311,356.571 326.5,357.5C 326.942,358.739 327.609,359.739 328.5,360.5C 328.351,361.552 328.517,362.552 329,363.5C 332.798,366.659 335.631,370.325 337.5,374.5C 337.814,378.322 337.814,382.656 337.5,387.5C 336.167,387.5 334.833,387.5 333.5,387.5C 333.5,388.5 333.5,389.5 333.5,390.5C 331.999,389.248 330.332,388.248 328.5,387.5C 329.277,384.888 330.944,383.055 333.5,382C 331.623,379.749 330.123,377.249 329,374.5C 328.667,376.167 328.333,377.833 328,379.5C 327.503,376.854 327.336,374.187 327.5,371.5C 324.941,371.802 322.607,371.468 320.5,370.5C 321.624,368.208 322.957,366.042 324.5,364C 322.889,361.79 322.222,359.29 322.5,356.5 Z"/></g>
<g><path style="opacity:1" fill="#345daa" d="M 62.5,379.5 C 72.8333,379.5 83.1667,379.5 93.5,379.5C 93.5,386.5 93.5,393.5 93.5,400.5C 83.1667,400.5 72.8333,400.5 62.5,400.5C 62.5,393.5 62.5,386.5 62.5,379.5 Z"/></g>
<g><path style="opacity:1" fill="#dfc2b7" d="M 307.5,379.5 C 310.98,381.815 314.314,384.315 317.5,387C 314.522,394.465 311.022,394.965 307,388.5C 306.366,385.445 306.532,382.445 307.5,379.5 Z"/></g>
<g><path style="opacity:1" fill="#1d56bc" d="M 198.5,379.5 C 209.771,382.151 221.104,384.484 232.5,386.5C 240.33,388.748 247.663,392.082 254.5,396.5C 255.167,396.833 255.833,397.167 256.5,397.5C 259.529,400.859 262.529,404.192 265.5,407.5C 266.759,411.025 268.759,414.025 271.5,416.5C 271.328,417.492 271.662,418.158 272.5,418.5C 272.5,419.167 272.833,419.5 273.5,419.5C 281.048,430.881 290.715,440.048 302.5,447C 317.125,449.399 331.791,451.565 346.5,453.5C 350.958,454.915 355.625,455.915 360.5,456.5C 360.5,459.833 360.5,463.167 360.5,466.5C 337.668,467.642 314.668,468.142 291.5,468C 278.969,465.06 266.636,461.56 254.5,457.5C 253.194,472.812 252.194,488.146 251.5,503.5C 247.833,503.5 244.167,503.5 240.5,503.5C 240.667,476.831 240.5,450.165 240,423.5C 235.782,406.439 224.949,397.773 207.5,397.5C 192.167,397.5 176.833,397.5 161.5,397.5C 163.628,394.87 165.961,392.37 168.5,390C 177.884,384.816 187.884,381.316 198.5,379.5 Z"/></g>
<g><path style="opacity:1" fill="#e4cac0" d="M 356.5,384.5 C 357.763,390.62 359.429,396.62 361.5,402.5C 358.432,399.378 356.098,395.711 354.5,391.5C 353.434,389.299 352.767,386.965 352.5,384.5C 353.833,384.5 355.167,384.5 356.5,384.5 Z"/></g>
<g><path style="opacity:1" fill="#7d94c7" d="M 288.5,388.5 C 288.5,389.167 288.5,389.833 288.5,390.5C 290.613,395.829 290.946,401.162 289.5,406.5C 284.897,407.383 280.23,407.717 275.5,407.5C 273.05,407.126 272.05,405.626 272.5,403C 273.325,398.356 274.659,393.856 276.5,389.5C 280.417,389.725 284.417,389.392 288.5,388.5 Z"/></g>
<g><path style="opacity:1" fill="#7189ba" d="M 388.5,341.5 C 388.5,357.833 388.5,374.167 388.5,390.5C 397.167,390.5 405.833,390.5 414.5,390.5C 427.167,390.5 439.833,390.5 452.5,390.5C 456.371,390.185 460.038,390.518 463.5,391.5C 437.995,391.831 412.661,391.498 387.5,390.5C 387.17,373.991 387.504,357.658 388.5,341.5 Z"/></g>
<g><path style="opacity:1" fill="#e3b998" d="M 466.5,389.5 C 471.261,394.354 476.261,394.687 481.5,390.5C 483.284,390.893 484.95,391.559 486.5,392.5C 486.461,393.756 486.961,394.756 488,395.5C 488.5,403.159 488.666,410.826 488.5,418.5C 478.833,418.5 469.167,418.5 459.5,418.5C 460.788,409.846 462.788,401.346 465.5,393C 465.43,392.235 465.097,391.735 464.5,391.5C 464.5,390.167 465.167,389.5 466.5,389.5 Z"/></g>
<g><path style="opacity:1" fill="#2c4b93" d="M 377.5,390.5 C 377.833,390.5 378.167,390.5 378.5,390.5C 381.167,390.5 383.833,390.5 386.5,390.5C 386.833,390.5 387.167,390.5 387.5,390.5C 412.661,391.498 437.995,391.831 463.5,391.5C 458.944,411.392 453.944,431.059 448.5,450.5C 415.5,450.5 382.5,450.5 349.5,450.5C 351.757,440.062 354.424,429.728 357.5,419.5C 357.5,419.167 357.5,418.833 357.5,418.5C 359.143,413.26 360.477,407.927 361.5,402.5C 362.68,398.783 364.013,395.116 365.5,391.5C 369.702,391.817 373.702,391.483 377.5,390.5 Z"/></g>
<g><path style="opacity:1" fill="#cedefc" d="M 354.5,391.5 C 356.098,395.711 358.432,399.378 361.5,402.5C 360.477,407.927 359.143,413.26 357.5,418.5C 355.5,418.5 353.5,418.5 351.5,418.5C 353.139,411.94 354.139,405.273 354.5,398.5C 353.897,395.959 353.897,393.626 354.5,391.5 Z"/></g>
<g><path style="opacity:1" fill="#d2d1e5" d="M 288.5,388.5 C 284.417,389.392 280.417,389.725 276.5,389.5C 274.659,393.856 273.325,398.356 272.5,403C 272.05,405.626 273.05,407.126 275.5,407.5C 276.21,411.251 277.21,414.918 278.5,418.5C 276.5,418.5 274.5,418.5 272.5,418.5C 271.662,418.158 271.328,417.492 271.5,416.5C 271.665,412.818 271.499,409.152 271,405.5C 269.989,404.663 268.822,404.33 267.5,404.5C 267.5,403.167 267.5,401.833 267.5,400.5C 267.5,399.833 267.5,399.167 267.5,398.5C 268.234,397.122 268.901,395.622 269.5,394C 270.784,393.316 271.951,393.483 273,394.5C 274.197,391.911 275.197,389.244 276,386.5C 280.17,388.447 284.336,389.114 288.5,388.5 Z"/></g>
<g><path style="opacity:1" fill="#c5d7f8" d="M 368.5,394.5 C 399.168,394.333 429.835,394.5 460.5,395C 455.462,412.652 451.129,430.485 447.5,448.5C 416.16,448.833 384.826,448.5 353.5,447.5C 358.658,429.865 363.658,412.199 368.5,394.5 Z"/></g>
<g><path style="opacity:1" fill="#335ca9" d="M 136.5,397.5 C 138.5,397.5 140.5,397.5 142.5,397.5C 143.167,397.5 143.833,397.5 144.5,397.5C 150.167,397.5 155.833,397.5 161.5,397.5C 176.833,397.5 192.167,397.5 207.5,397.5C 219.934,400.429 228.101,408.095 232,420.5C 233.457,448.124 233.957,475.791 233.5,503.5C 191.5,503.5 149.5,503.5 107.5,503.5C 107.5,491.5 107.5,479.5 107.5,467.5C 107.5,466.5 107.5,465.5 107.5,464.5C 107.333,451.829 107.5,439.162 108,426.5C 111.037,410.297 120.537,400.63 136.5,397.5 Z"/></g>
<g><path style="opacity:1" fill="#e6b997" d="M 354.5,398.5 C 354.139,405.273 353.139,411.94 351.5,418.5C 347.5,418.5 343.5,418.5 339.5,418.5C 337.898,411.23 337.065,403.897 337,396.5C 340.257,399.428 344.091,400.262 348.5,399C 349.126,398.25 349.626,397.416 350,396.5C 351.049,398.107 352.549,398.773 354.5,398.5 Z"/></g>
<g><path style="opacity:1" fill="#2d4c94" d="M 371.5,397.5 C 399.835,397.333 428.169,397.5 456.5,398C 452.01,413.961 447.676,429.961 443.5,446C 415.169,446.5 386.835,446.667 358.5,446.5C 362.706,430.137 367.04,413.804 371.5,397.5 Z"/></g>
<g><path style="opacity:1" fill="#084378" d="M 207.5,397.5 C 224.949,397.773 235.782,406.439 240,423.5C 240.5,450.165 240.667,476.831 240.5,503.5C 238.167,503.5 235.833,503.5 233.5,503.5C 233.957,475.791 233.457,448.124 232,420.5C 228.101,408.095 219.934,400.429 207.5,397.5 Z"/></g>
<g><path style="opacity:1" fill="#e5eefe" d="M 300.5,418.5 C 300.334,413.489 300.501,408.489 301,403.5C 303.109,402.965 303.609,401.965 302.5,400.5C 303.243,399.818 303.909,399.151 304.5,398.5C 305.15,398.196 305.817,397.863 306.5,397.5C 309.877,399.325 313.543,399.992 317.5,399.5C 317.407,405.863 317.74,412.196 318.5,418.5C 312.5,418.5 306.5,418.5 300.5,418.5 Z"/></g>
<g><path style="opacity:1" fill="#cbddfd" d="M 398.5,415.5 C 394.445,415.352 393.945,414.352 397,412.5C 397.495,410.527 397.662,408.527 397.5,406.5C 392.785,405.524 389.452,407.191 387.5,411.5C 387.709,412.086 388.043,412.586 388.5,413C 387.069,413.465 385.903,414.299 385,415.5C 384.29,414.027 383.124,413.36 381.5,413.5C 382.231,411.251 383.231,409.084 384.5,407C 384.138,405.115 382.971,404.281 381,404.5C 378.297,404.703 376.797,406.203 376.5,409C 376.905,409.945 377.572,410.612 378.5,411C 375.978,411.957 373.811,413.457 372,415.5C 371.601,415.272 371.435,414.938 371.5,414.5C 372.497,409.839 373.497,405.173 374.5,400.5C 383.839,400.334 393.173,400.5 402.5,401C 400.935,405.757 399.602,410.591 398.5,415.5 Z"/></g>
<g><path style="opacity:1" fill="#c9dbfb" d="M 429.5,415.5 C 428.5,415.5 427.5,415.5 426.5,415.5C 426.942,412.657 427.942,409.991 429.5,407.5C 428.691,405.929 428.357,404.262 428.5,402.5C 426.533,402.261 424.699,402.594 423,403.5C 421.072,407.695 418.905,411.695 416.5,415.5C 412.988,413.063 412.988,410.397 416.5,407.5C 414.085,404.872 411.585,404.872 409,407.5C 408.46,409.135 408.96,410.468 410.5,411.5C 407.737,412.104 405.403,413.438 403.5,415.5C 402.893,415.376 402.56,415.043 402.5,414.5C 403.503,409.827 404.503,405.161 405.5,400.5C 414.857,400.168 424.19,400.502 433.5,401.5C 432.455,406.363 431.121,411.03 429.5,415.5 Z"/></g>
<g><path style="opacity:1" fill="#7b80a0" d="M 439.5,399.5 C 441.124,399.36 442.29,400.027 443,401.5C 445.768,401.298 448.601,401.298 451.5,401.5C 448.216,402.657 444.882,402.824 441.5,402C 440.244,401.583 439.577,400.75 439.5,399.5 Z"/></g>
<g><path style="opacity:1" fill="#365da8" d="M 61.5,401.5 C 72.1667,401.5 82.8333,401.5 93.5,401.5C 93.5,408.833 93.5,416.167 93.5,423.5C 82.8333,423.5 72.1667,423.5 61.5,423.5C 61.5,416.167 61.5,408.833 61.5,401.5 Z"/></g>
<g><path style="opacity:1" fill="#e3ecfb" d="M 320.5,396.5 C 323.643,397.134 326.143,398.8 328,401.5C 330.126,406.964 331.293,412.631 331.5,418.5C 327.5,418.5 323.5,418.5 319.5,418.5C 318.693,411.846 318.526,405.18 319,398.5C 319.717,397.956 320.217,397.289 320.5,396.5 Z"/></g>
<g><path style="opacity:1" fill="#a8c4f2" d="M 429.5,415.5 C 420.325,416.822 410.992,416.822 401.5,415.5C 401.624,414.893 401.957,414.56 402.5,414.5C 402.56,415.043 402.893,415.376 403.5,415.5C 405.403,413.438 407.737,412.104 410.5,411.5C 408.96,410.468 408.46,409.135 409,407.5C 411.585,404.872 414.085,404.872 416.5,407.5C 412.988,410.397 412.988,413.063 416.5,415.5C 418.905,411.695 421.072,407.695 423,403.5C 424.699,402.594 426.533,402.261 428.5,402.5C 428.357,404.262 428.691,405.929 429.5,407.5C 427.942,409.991 426.942,412.657 426.5,415.5C 427.5,415.5 428.5,415.5 429.5,415.5 Z"/></g>
<g><path style="opacity:1" fill="#a8c4f2" d="M 398.5,415.5 C 389.325,416.822 379.992,416.822 370.5,415.5C 370.624,414.893 370.957,414.56 371.5,414.5C 371.435,414.938 371.601,415.272 372,415.5C 373.811,413.457 375.978,411.957 378.5,411C 377.572,410.612 376.905,409.945 376.5,409C 376.797,406.203 378.297,404.703 381,404.5C 382.971,404.281 384.138,405.115 384.5,407C 383.231,409.084 382.231,411.251 381.5,413.5C 383.124,413.36 384.29,414.027 385,415.5C 385.903,414.299 387.069,413.465 388.5,413C 388.043,412.586 387.709,412.086 387.5,411.5C 389.452,407.191 392.785,405.524 397.5,406.5C 397.662,408.527 397.495,410.527 397,412.5C 393.945,414.352 394.445,415.352 398.5,415.5 Z"/></g>
<g><path style="opacity:1" fill="#cd9c7a" d="M 267.5,400.5 C 267.5,401.833 267.5,403.167 267.5,404.5C 268.822,404.33 269.989,404.663 271,405.5C 271.499,409.152 271.665,412.818 271.5,416.5C 268.759,414.025 266.759,411.025 265.5,407.5C 265.5,405.5 265.5,403.5 265.5,401.5C 266.167,401.167 266.833,400.833 267.5,400.5 Z"/></g>
<g><path style="opacity:1" fill="#e3c3b5" d="M 289.5,406.5 C 289.605,410.548 289.272,414.548 288.5,418.5C 285.167,418.5 281.833,418.5 278.5,418.5C 277.21,414.918 276.21,411.251 275.5,407.5C 280.23,407.717 284.897,407.383 289.5,406.5 Z"/></g>
<g><path style="opacity:1" fill="#6c769d" d="M 439.5,404.5 C 443.167,404.5 446.833,404.5 450.5,404.5C 450.5,405.833 450.5,407.167 450.5,408.5C 446.165,409 442.165,408.167 438.5,406C 439.056,405.617 439.389,405.117 439.5,404.5 Z"/></g>
<g><path style="opacity:1" fill="#71799f" d="M 437.5,410.5 C 441.208,410.792 444.874,410.792 448.5,410.5C 448.5,411.833 448.5,413.167 448.5,414.5C 444.165,415 440.165,414.167 436.5,412C 437.056,411.617 437.389,411.117 437.5,410.5 Z"/></g>
<g><path style="opacity:1" fill="#797fa0" d="M 436.5,416.5 C 440.21,416.528 443.877,416.861 447.5,417.5C 444.425,421.446 441.258,421.446 438,417.5C 436.951,418.517 435.784,418.684 434.5,418C 435.416,417.722 436.082,417.222 436.5,416.5 Z"/></g>
<g><path style="opacity:1" fill="#cbddfd" d="M 393.5,434.5 C 390.436,434.856 387.769,434.023 385.5,432C 391.989,430.845 393.489,427.345 390,421.5C 386.36,419.857 383.193,420.524 380.5,423.5C 379.289,425.422 377.956,427.255 376.5,429C 378.125,429.853 378.458,430.853 377.5,432C 374.166,434.075 370.499,434.909 366.5,434.5C 367.879,429.603 368.879,424.603 369.5,419.5C 378.857,419.168 388.19,419.502 397.5,420.5C 396.16,425.196 394.827,429.862 393.5,434.5 Z"/></g>
<g><path style="opacity:1" fill="#cadcfc" d="M 425.5,433.5 C 424.292,434.234 422.959,434.567 421.5,434.5C 421.942,431.657 422.942,428.991 424.5,426.5C 422.995,425.158 422.328,423.492 422.5,421.5C 420.278,421.178 418.444,421.845 417,423.5C 415.075,427.098 413.242,430.764 411.5,434.5C 410.167,433.5 408.833,432.5 407.5,431.5C 409.104,430.397 410.104,428.897 410.5,427C 410.266,425.268 409.266,424.434 407.5,424.5C 402.929,425.451 401.929,427.618 404.5,431C 402.186,432.267 399.852,433.434 397.5,434.5C 398.329,429.514 399.663,424.681 401.5,420C 410.494,419.5 419.494,419.334 428.5,419.5C 427.499,424.171 426.499,428.838 425.5,433.5 Z"/></g>
<g><path style="opacity:1" fill="#0a3462" d="M 273.5,419.5 C 301.5,419.5 329.5,419.5 357.5,419.5C 354.424,429.728 351.757,440.062 349.5,450.5C 349.5,452.5 348.5,453.5 346.5,453.5C 331.791,451.565 317.125,449.399 302.5,447C 290.715,440.048 281.048,430.881 273.5,419.5 Z"/></g>
<g><path style="opacity:1" fill="#aecaf6" d="M 393.5,434.5 C 384.5,435.833 375.5,435.833 366.5,434.5C 370.499,434.909 374.166,434.075 377.5,432C 378.458,430.853 378.125,429.853 376.5,429C 377.956,427.255 379.289,425.422 380.5,423.5C 383.193,420.524 386.36,419.857 390,421.5C 393.489,427.345 391.989,430.845 385.5,432C 387.769,434.023 390.436,434.856 393.5,434.5 Z"/></g>
<g><path style="opacity:1" fill="#adc9f5" d="M 425.5,433.5 C 421.217,434.827 416.551,435.493 411.5,435.5C 406.654,435.499 401.988,435.166 397.5,434.5C 399.852,433.434 402.186,432.267 404.5,431C 401.929,427.618 402.929,425.451 407.5,424.5C 409.266,424.434 410.266,425.268 410.5,427C 410.104,428.897 409.104,430.397 407.5,431.5C 408.833,432.5 410.167,433.5 411.5,434.5C 413.242,430.764 415.075,427.098 417,423.5C 418.444,421.845 420.278,421.178 422.5,421.5C 422.328,423.492 422.995,425.158 424.5,426.5C 422.942,428.991 421.942,431.657 421.5,434.5C 422.959,434.567 424.292,434.234 425.5,433.5 Z"/></g>
<g><path style="opacity:1" fill="#355daa" d="M 62.5,424.5 C 72.8333,424.5 83.1667,424.5 93.5,424.5C 93.5,431.5 93.5,438.5 93.5,445.5C 83.1667,445.5 72.8333,445.5 62.5,445.5C 62.5,438.5 62.5,431.5 62.5,424.5 Z"/></g>
<g><path style="opacity:1" fill="#69749d" d="M 434.5,422.5 C 438.167,422.5 441.833,422.5 445.5,422.5C 445.5,423.833 445.5,425.167 445.5,426.5C 440.839,427.032 436.506,426.199 432.5,424C 433.416,423.722 434.082,423.222 434.5,422.5 Z"/></g>
<g><path style="opacity:1" fill="#a2816c" d="M 80.5,430.5 C 82.337,430.639 82.6704,431.306 81.5,432.5C 80.7025,432.043 80.3691,431.376 80.5,430.5 Z"/></g>
<g><path style="opacity:1" fill="#777da0" d="M 432.5,429.5 C 436.167,429.5 439.833,429.5 443.5,429.5C 443.5,430.833 443.5,432.167 443.5,433.5C 439.818,433.665 436.152,433.499 432.5,433C 430.069,431.908 430.069,430.741 432.5,429.5 Z"/></g>
<g><path style="opacity:1" fill="#6d779e" d="M 430.5,436.5 C 434.167,436.5 437.833,436.5 441.5,436.5C 441.5,437.833 441.5,439.167 441.5,440.5C 437.818,440.665 434.152,440.499 430.5,440C 428.069,438.908 428.069,437.741 430.5,436.5 Z"/></g>
<g><path style="opacity:1" fill="#345daa" d="M 93.5,464.5 C 83.1667,464.5 72.8333,464.5 62.5,464.5C 62.5,458.833 62.5,453.167 62.5,447.5C 72.8333,447.5 83.1667,447.5 93.5,447.5C 93.5,453.167 93.5,458.833 93.5,464.5 Z"/></g>
<g><path style="opacity:1" fill="#345ba8" d="M 538.5,361.5 C 538.5,396.5 538.5,431.5 538.5,466.5C 527.833,466.5 517.167,466.5 506.5,466.5C 506.5,431.167 506.5,395.833 506.5,360.5C 517.346,360.172 528.013,360.506 538.5,361.5 Z"/></g>
<g><path style="opacity:1" fill="#9d7f6f" d="M 525.5,432.5 C 527.337,432.639 527.67,433.306 526.5,434.5C 525.702,434.043 525.369,433.376 525.5,432.5 Z"/></g>
<g><path style="opacity:1" fill="#aa8467" d="M 525.5,362.5 C 527.337,362.639 527.67,363.306 526.5,364.5C 525.702,364.043 525.369,363.376 525.5,362.5 Z"/></g>
<g><path style="opacity:1" fill="#345ba7" d="M 349.5,450.5 C 382.5,450.5 415.5,450.5 448.5,450.5C 447.341,455.468 446.341,460.468 445.5,465.5C 426.833,465.5 408.167,465.5 389.5,465.5C 389.167,465.5 388.833,465.5 388.5,465.5C 386.665,457.827 381.832,454.161 374,454.5C 370.112,454.594 366.279,455.094 362.5,456C 361.544,459.394 361.211,462.894 361.5,466.5C 361.167,466.5 360.833,466.5 360.5,466.5C 360.5,463.167 360.5,459.833 360.5,456.5C 355.625,455.915 350.958,454.915 346.5,453.5C 348.5,453.5 349.5,452.5 349.5,450.5 Z"/></g>
<g><path style="opacity:1" fill="#f9ac74" d="M 388.5,465.5 C 379.682,466.493 370.682,466.827 361.5,466.5C 361.211,462.894 361.544,459.394 362.5,456C 366.279,455.094 370.112,454.594 374,454.5C 381.832,454.161 386.665,457.827 388.5,465.5 Z"/></g>
<g><path style="opacity:0.999" fill="#062b50" d="M 541.5,467.5 C 556.5,467.5 571.5,467.5 586.5,467.5C 586.254,478.738 583.087,489.072 577,498.5C 574.749,500.377 572.249,501.877 569.5,503C 463.501,503.5 357.501,503.667 251.5,503.5C 252.194,488.146 253.194,472.812 254.5,457.5C 266.636,461.56 278.969,465.06 291.5,468C 314.668,468.142 337.668,467.642 360.5,466.5C 360.833,466.5 361.167,466.5 361.5,466.5C 365.988,467.166 370.654,467.499 375.5,467.5C 380.551,467.493 385.217,466.827 389.5,465.5C 408.167,465.5 426.833,465.5 445.5,465.5C 446.341,460.468 447.341,455.468 448.5,450.5C 453.944,431.059 458.944,411.392 463.5,391.5C 463.833,391.5 464.167,391.5 464.5,391.5C 465.097,391.735 465.43,392.235 465.5,393C 462.788,401.346 460.788,409.846 459.5,418.5C 469.167,418.5 478.833,418.5 488.5,418.5C 491.833,418.5 495.167,418.5 498.5,418.5C 498.5,392.833 498.5,367.167 498.5,341.5C 461.833,341.5 425.167,341.5 388.5,341.5C 387.504,357.658 387.17,373.991 387.5,390.5C 387.167,390.5 386.833,390.5 386.5,390.5C 386.5,373.5 386.5,356.5 386.5,339.5C 424.167,339.5 461.833,339.5 499.5,339.5C 499.5,366.5 499.5,393.5 499.5,420.5C 485.833,420.5 472.167,420.5 458.5,420.5C 454.839,435.821 451.172,451.154 447.5,466.5C 478.826,467.5 510.16,467.833 541.5,467.5 Z"/></g>
<g><path style="opacity:1" fill="#444c58" d="M 388.5,465.5 C 388.833,465.5 389.167,465.5 389.5,465.5C 385.217,466.827 380.551,467.493 375.5,467.5C 370.654,467.499 365.988,467.166 361.5,466.5C 370.682,466.827 379.682,466.493 388.5,465.5 Z"/></g>
<g><path style="opacity:1" fill="#bdd4f9" d="M 458.5,378.5 C 456.132,379.783 453.965,381.45 452,383.5C 451.444,385.885 451.61,388.218 452.5,390.5C 439.833,390.5 427.167,390.5 414.5,390.5C 414.232,384.064 415.899,378.231 419.5,373C 425.445,371.714 425.945,369.214 421,365.5C 419.862,361.879 419.028,358.212 418.5,354.5C 432.294,354.593 435.96,360.593 429.5,372.5C 433.961,372.79 436.795,375.123 438,379.5C 439.108,372.611 442.275,366.944 447.5,362.5C 444.693,359.722 443.86,356.389 445,352.5C 449.095,350.822 452.595,351.655 455.5,355C 454.974,358.693 453.974,362.193 452.5,365.5C 453.767,367.944 455.267,370.277 457,372.5C 457.191,374.708 457.691,376.708 458.5,378.5 Z"/></g>
<g><path style="opacity:1" fill="#062b50" d="M 107.5,467.5 C 107.5,479.5 107.5,491.5 107.5,503.5C 94.4957,503.667 81.4957,503.5 68.5,503C 61.9186,500.802 57.0853,496.636 54,490.5C 49.9617,483.757 46.4617,476.757 43.5,469.5C 64.4738,467.511 85.8072,466.844 107.5,467.5 Z"/></g>
</svg>
