<?xml version="1.0" encoding="UTF-8"?>
<!DOCTYPE svg PUBLIC "-//W3C//DTD SVG 1.1//EN" "http://www.w3.org/Graphics/SVG/1.1/DTD/svg11.dtd">
<svg xmlns="http://www.w3.org/2000/svg" version="1.1" width="607px" height="680px" style="shape-rendering:geometricPrecision; text-rendering:geometricPrecision; image-rendering:optimizeQuality; fill-rule:evenodd; clip-rule:evenodd" xmlns:xlink="http://www.w3.org/1999/xlink">
<g><path style="opacity:0.566" fill="#8687c1" d="M 371.5,60.5 C 372.833,60.5 374.167,60.5 375.5,60.5C 375.778,62.3464 375.111,63.6798 373.5,64.5C 371.889,63.6798 371.222,62.3464 371.5,60.5 Z"/></g>
<g><path style="opacity:0.495" fill="#8687c1" d="M 171.5,61.5 C 172.833,61.5 174.167,61.5 175.5,61.5C 175.5,62.8333 175.5,64.1667 175.5,65.5C 174.167,65.5 172.833,65.5 171.5,65.5C 171.5,64.1667 171.5,62.8333 171.5,61.5 Z"/></g>
<g><path style="opacity:0.836" fill="#8687c1" d="M 409.5,62.5 C 417.885,61.7159 421.051,65.3826 419,73.5C 415.341,77.1151 411.341,77.4485 407,74.5C 404.517,69.7129 405.35,65.7129 409.5,62.5 Z"/></g>
<g><path style="opacity:0.798" fill="#8687c1" d="M 232.5,65.5 C 239.285,64.6259 241.285,67.1259 238.5,73C 231.75,74.4689 229.75,71.9689 232.5,65.5 Z"/></g>
<g><path style="opacity:0.775" fill="#c5c6c5" d="M 288.5,69.5 C 323.335,65.8305 352.835,76.4971 377,101.5C 377.499,95.8431 377.666,90.1764 377.5,84.5C 379.167,84.5 380.833,84.5 382.5,84.5C 382.817,93.4178 382.484,102.251 381.5,111C 373.5,111.667 365.5,111.667 357.5,111C 355.342,109.688 355.009,108.022 356.5,106C 361.833,105.667 367.167,105.333 372.5,105C 348.218,79.3515 318.552,69.6849 283.5,76C 261.672,80.9058 243.672,91.9058 229.5,109C 228.207,109.49 226.873,109.657 225.5,109.5C 225.372,107.345 225.872,105.345 227,103.5C 243.715,85.2278 264.215,73.8945 288.5,69.5 Z"/></g>
<g><path style="opacity:0.963" fill="#c5c5c5" d="M 571.5,152.5 C 569.833,152.5 568.167,152.5 566.5,152.5C 564.181,153.167 561.847,153.334 559.5,153C 527.78,137.14 496.114,121.307 464.5,105.5C 462.727,104.686 462.227,103.352 463,101.5C 466.333,94.8333 469.667,88.1667 473,81.5C 474.049,80.4829 475.216,80.3162 476.5,81C 517.167,101.667 557.833,122.333 598.5,143C 599.833,143.667 599.833,144.333 598.5,145C 589.25,147.059 580.25,149.559 571.5,152.5 Z"/></g>
<g><path style="opacity:0.857" fill="#8687c1" d="M 196.5,86.5 C 206.247,86.0853 208.913,90.252 204.5,99C 196.412,101.875 192.579,99.0421 193,90.5C 193.69,88.6498 194.856,87.3164 196.5,86.5 Z"/></g>
<g><path style="opacity:0.715" fill="#8687c1" d="M 262.5,95.5 C 267,95.1638 268.833,97.1638 268,101.5C 264.709,104.437 262.542,103.77 261.5,99.5C 261.623,98.0755 261.957,96.7421 262.5,95.5 Z"/></g>
<g><path style="opacity:0.963" fill="#c5c5c5" d="M 83.5,98.5 C 100.926,98.4397 117.259,102.606 132.5,111C 145.703,118.699 157.537,128.199 168,139.5C 169.602,141.369 170.602,143.369 171,145.5C 153.903,166.302 132.403,180.469 106.5,188C 83.2551,192.515 61.5884,188.515 41.5,176C 28.4994,167.675 16.666,157.841 6,146.5C 5.33333,145.167 5.33333,143.833 6,142.5C 21.6674,124.754 40.5008,111.588 62.5,103C 69.5383,100.985 76.5383,99.4853 83.5,98.5 Z"/></g>
<g><path style="opacity:0.748" fill="#8687c1" d="M 398.5,102.5 C 400.144,102.286 401.644,102.62 403,103.5C 403.495,105.473 403.662,107.473 403.5,109.5C 396.552,110.574 394.885,108.241 398.5,102.5 Z"/></g>
<g><path style="opacity:1" fill="#262238" d="M 464.5,105.5 C 496.114,121.307 527.78,137.14 559.5,153C 561.847,153.334 564.181,153.167 566.5,152.5C 562.167,161.833 557.833,171.167 553.5,180.5C 552.391,180.443 551.391,180.11 550.5,179.5C 553.273,171.95 556.607,164.617 560.5,157.5C 560.291,156.914 559.957,156.414 559.5,156C 527.46,140.314 495.793,124.148 464.5,107.5C 464.5,106.833 464.5,106.167 464.5,105.5 Z"/></g>
<g><path style="opacity:0.976" fill="#302f50" d="M 464.5,107.5 C 495.793,124.148 527.46,140.314 559.5,156C 559.957,156.414 560.291,156.914 560.5,157.5C 556.607,164.617 553.273,171.95 550.5,179.5C 549.872,182.955 547.872,184.122 544.5,183C 530.601,175.883 516.601,169.05 502.5,162.5C 500.272,159.55 497.272,157.884 493.5,157.5C 479.614,150.307 465.781,142.973 452,135.5C 451.333,134.167 451.333,132.833 452,131.5C 455.941,123.281 460.108,115.281 464.5,107.5 Z"/></g>
<g><path style="opacity:1" fill="#a2a2a2" d="M 80.5,110.5 C 100.54,108.393 114.04,116.727 121,135.5C 124.333,155.342 116.833,169.175 98.5,177C 77.0049,181.171 62.5049,173.004 55,152.5C 52.5572,131.7 61.0572,117.7 80.5,110.5 Z"/></g>
<g><path style="opacity:0.559" fill="#c5c6c5" d="M 293.5,116.5 C 295.085,117.002 295.585,118.002 295,119.5C 293.301,120.406 291.467,120.739 289.5,120.5C 289.5,119.5 289.5,118.5 289.5,117.5C 291.099,117.768 292.432,117.434 293.5,116.5 Z"/></g>
<g><path style="opacity:0.598" fill="#c5c6c5" d="M 305.5,116.5 C 307.167,116.5 308.833,116.5 310.5,116.5C 310.5,117.5 310.5,118.5 310.5,119.5C 308.396,119.799 306.396,119.466 304.5,118.5C 304.863,117.817 305.196,117.15 305.5,116.5 Z"/></g>
<g><path style="opacity:0.59" fill="#c5c6c5" d="M 320.5,117.5 C 322.977,117.051 324.977,117.717 326.5,119.5C 324.604,120.466 322.604,120.799 320.5,120.5C 320.5,119.5 320.5,118.5 320.5,117.5 Z"/></g>
<g><path style="opacity:0.504" fill="#c5c6c5" d="M 275.5,118.5 C 277.167,118.5 278.833,118.5 280.5,118.5C 280.5,119.5 280.5,120.5 280.5,121.5C 278.5,121.833 276.5,122.167 274.5,122.5C 274.433,121.041 274.766,119.708 275.5,118.5 Z"/></g>
<g><path style="opacity:0.527" fill="#c5c6c5" d="M 335.5,119.5 C 337.5,119.833 339.5,120.167 341.5,120.5C 341.5,121.5 341.5,122.5 341.5,123.5C 338.031,124.113 336.031,122.779 335.5,119.5 Z"/></g>
<g><path style="opacity:0.532" fill="#c5c6c5" d="M 261.5,121.5 C 262.833,121.5 264.167,121.5 265.5,121.5C 265.5,122.5 265.5,123.5 265.5,124.5C 263.5,124.833 261.5,125.167 259.5,125.5C 259.527,123.801 260.194,122.467 261.5,121.5 Z"/></g>
<g><path style="opacity:0.529" fill="#c5c6c5" d="M 350.5,123.5 C 352.977,123.051 354.977,123.717 356.5,125.5C 356.167,126.5 355.5,127.167 354.5,127.5C 353.264,126.754 351.93,126.421 350.5,126.5C 350.5,125.5 350.5,124.5 350.5,123.5 Z"/></g>
<g><path style="opacity:0.505" fill="#c5c6c5" d="M 247.5,125.5 C 248.5,125.5 249.5,125.5 250.5,125.5C 250.241,129.068 248.241,130.401 244.5,129.5C 244.5,128.5 244.5,127.5 244.5,126.5C 245.791,126.737 246.791,126.404 247.5,125.5 Z"/></g>
<g><path style="opacity:0.558" fill="#c5c6c5" d="M 364.5,128.5 C 366.199,128.34 367.866,128.506 369.5,129C 370.731,130.183 370.731,131.349 369.5,132.5C 368.205,131.902 366.872,131.402 365.5,131C 364.748,130.329 364.414,129.496 364.5,128.5 Z"/></g>
<g><path style="opacity:1" fill="#212136" d="M 92.5,133.5 C 87.6401,136.85 87.3068,140.683 91.5,145C 96.118,146.578 99.118,145.078 100.5,140.5C 102.072,150.125 97.9057,155.792 88,157.5C 76.6715,155.24 73.0049,148.573 77,137.5C 81.2243,131.433 86.3909,130.099 92.5,133.5 Z"/></g>
<g><path style="opacity:0.562" fill="#c5c6c5" d="M 232.5,131.5 C 233.978,131.238 235.311,131.571 236.5,132.5C 235.061,134.553 233.061,135.553 230.5,135.5C 230.527,133.801 231.194,132.467 232.5,131.5 Z"/></g>
<g><path style="opacity:1" fill="#fafafb" d="M 92.5,133.5 C 97.6822,133.018 100.349,135.351 100.5,140.5C 99.118,145.078 96.118,146.578 91.5,145C 87.3068,140.683 87.6401,136.85 92.5,133.5 Z"/></g>
<g><path style="opacity:0.593" fill="#c5c6c5" d="M 379.5,134.5 C 382.95,133.756 384.616,135.09 384.5,138.5C 381.412,138.803 379.746,137.47 379.5,134.5 Z"/></g>
<g><path style="opacity:0.532" fill="#c5c6c5" d="M 220.5,137.5 C 222.085,138.002 222.585,139.002 222,140.5C 220.416,141.861 218.582,142.528 216.5,142.5C 216.281,141.325 216.614,140.325 217.5,139.5C 218.739,139.058 219.739,138.391 220.5,137.5 Z"/></g>
<g><path style="opacity:0.561" fill="#c5c6c5" d="M 392.5,141.5 C 395.061,141.447 397.061,142.447 398.5,144.5C 395.119,146.143 393.119,145.143 392.5,141.5 Z"/></g>
<g><path style="opacity:0.505" fill="#c5c6c5" d="M 206.5,145.5 C 208.686,145.511 209.519,146.511 209,148.5C 207.416,149.861 205.582,150.528 203.5,150.5C 203.721,148.336 204.721,146.67 206.5,145.5 Z"/></g>
<g><path style="opacity:0.529" fill="#c5c6c5" d="M 405.5,149.5 C 408.833,149.5 410.5,151.167 410.5,154.5C 407.167,154.5 405.5,152.833 405.5,149.5 Z"/></g>
<g><path style="opacity:0.959" fill="#e93d3d" d="M 566.5,152.5 C 568.167,152.5 569.833,152.5 571.5,152.5C 574.804,153.144 576.138,155.144 575.5,158.5C 571.385,165.894 567.385,173.394 563.5,181C 564.056,181.383 564.389,181.883 564.5,182.5C 560.387,184.093 556.72,183.426 553.5,180.5C 557.833,171.167 562.167,161.833 566.5,152.5 Z"/></g>
<g><path style="opacity:0.563" fill="#c5c6c5" d="M 194.5,154.5 C 195.586,154.62 196.253,155.287 196.5,156.5C 195.638,158.767 193.971,159.767 191.5,159.5C 191.721,157.336 192.721,155.67 194.5,154.5 Z"/></g>
<g><path style="opacity:0.812" fill="#1e1e34" d="M 493.5,157.5 C 497.272,157.884 500.272,159.55 502.5,162.5C 499.992,166.182 497.992,170.182 496.5,174.5C 493.57,172.865 490.57,171.532 487.5,170.5C 489.771,166.291 491.771,161.958 493.5,157.5 Z"/></g>
<g><path style="opacity:0.862" fill="#201d33" d="M 575.5,158.5 C 577.386,159.361 579.22,160.361 581,161.5C 578.723,169.071 575.556,176.404 571.5,183.5C 569.01,184.632 566.676,184.299 564.5,182.5C 564.389,181.883 564.056,181.383 563.5,181C 567.385,173.394 571.385,165.894 575.5,158.5 Z"/></g>
<g><path style="opacity:0.56" fill="#c5c6c5" d="M 417.5,159.5 C 421.235,159.546 422.568,161.213 421.5,164.5C 418.649,163.988 417.316,162.321 417.5,159.5 Z"/></g>
<g><path style="opacity:0.481" fill="#c5c6c5" d="M 182.5,164.5 C 183.995,164.415 184.995,165.081 185.5,166.5C 184.159,169.789 182.159,170.622 179.5,169C 180.386,167.385 181.386,165.885 182.5,164.5 Z"/></g>
<g><path style="opacity:0.802" fill="#c5c6c5" d="M 458.5,176.5 C 457.167,178.833 457.167,181.167 458.5,183.5C 458.5,185.833 458.5,188.167 458.5,190.5C 456.167,190.5 453.833,190.5 451.5,190.5C 451.5,183.167 451.5,175.833 451.5,168.5C 453.833,168.5 456.167,168.5 458.5,168.5C 458.5,171.167 458.5,173.833 458.5,176.5 Z"/></g>
<g><path style="opacity:0.503" fill="#c5c6c5" d="M 429.5,169.5 C 433.17,170.193 434.17,172.193 432.5,175.5C 429.479,174.227 428.479,172.227 429.5,169.5 Z"/></g>
<g><path style="opacity:0.853" fill="#9f9fa0" d="M 487.5,170.5 C 490.57,171.532 493.57,172.865 496.5,174.5C 498.687,184.48 494.687,188.98 484.5,188C 482.249,187.252 480.916,185.752 480.5,183.5C 479.781,181.236 479.448,178.903 479.5,176.5C 481.045,173.056 483.711,171.056 487.5,170.5 Z"/></g>
<g><path style="opacity:1" fill="#363555" d="M 486.5,175.5 C 492.488,175.664 493.821,178.164 490.5,183C 486.798,184.393 484.798,183.226 484.5,179.5C 484.803,177.886 485.47,176.552 486.5,175.5 Z"/></g>
<g><path style="opacity:0.533" fill="#c5c6c5" d="M 171.5,176.5 C 172.5,176.5 173.5,176.5 174.5,176.5C 174.5,179.833 172.833,181.5 169.5,181.5C 169.392,179.486 170.058,177.82 171.5,176.5 Z"/></g>
<g><path style="opacity:0.911" fill="#1f1e34" d="M 458.5,176.5 C 465.5,176.5 472.5,176.5 479.5,176.5C 479.448,178.903 479.781,181.236 480.5,183.5C 473.167,183.5 465.833,183.5 458.5,183.5C 457.167,181.167 457.167,178.833 458.5,176.5 Z"/></g>
<g><path style="opacity:0.561" fill="#c5c6c5" d="M 439.5,181.5 C 442.47,181.746 443.803,183.412 443.5,186.5C 439.932,186.305 438.599,184.639 439.5,181.5 Z"/></g>
<g><path style="opacity:0.597" fill="#c5c6c5" d="M 162.5,187.5 C 165.205,189.777 164.872,191.777 161.5,193.5C 160.23,191.243 160.564,189.243 162.5,187.5 Z"/></g>
<g><path style="opacity:0.561" fill="#c5c6c5" d="M 448.5,193.5 C 452.17,194.193 453.17,196.193 451.5,199.5C 449.022,198.278 448.022,196.278 448.5,193.5 Z"/></g>
<g><path style="opacity:0.484" fill="#c5c6c5" d="M 153.5,200.5 C 157.149,201.49 157.482,203.323 154.5,206C 153.552,206.483 152.552,206.649 151.5,206.5C 151.604,204.297 152.27,202.297 153.5,200.5 Z"/></g>
<g><path style="opacity:0.531" fill="#c5c6c5" d="M 456.5,206.5 C 459.776,207.122 461.109,209.122 460.5,212.5C 457.221,211.969 455.887,209.969 456.5,206.5 Z"/></g>
<g><path style="opacity:0.564" fill="#c5c6c5" d="M 145.5,214.5 C 146.5,214.5 147.5,214.5 148.5,214.5C 148.872,217.022 148.039,219.022 146,220.5C 144.311,218.68 144.145,216.68 145.5,214.5 Z"/></g>
<g><path style="opacity:0.92" fill="#313051" d="M 395.5,361.5 C 389.5,360.167 383.5,360.167 377.5,361.5C 327.5,361.5 277.5,361.5 227.5,361.5C 221.167,360.167 214.833,360.167 208.5,361.5C 205.09,361.543 201.757,361.043 198.5,360C 196.951,358.786 195.785,357.286 195,355.5C 194.333,311.5 194.333,267.5 195,223.5C 195.948,221.43 197.448,219.93 199.5,219C 268.167,218.333 336.833,218.333 405.5,219C 407.552,219.93 409.052,221.43 410,223.5C 410.667,267.5 410.667,311.5 410,355.5C 409.215,357.286 408.049,358.786 406.5,360C 402.914,361.108 399.247,361.608 395.5,361.5 Z"/></g>
<g><path style="opacity:0.504" fill="#c5c6c5" d="M 463.5,220.5 C 466.779,221.031 468.113,223.031 467.5,226.5C 464.221,225.969 462.887,223.969 463.5,220.5 Z"/></g>
<g><path style="opacity:1" fill="#dbdbdc" d="M 207.5,224.5 C 270.834,224.333 334.168,224.5 397.5,225C 401,225.833 403.167,228 404,231.5C 404.988,271.251 404.655,310.918 403,350.5C 401.786,352.049 400.286,353.215 398.5,354C 333.751,354.993 269.085,354.659 204.5,353C 202.951,351.786 201.785,350.286 201,348.5C 200.333,309.5 200.333,270.5 201,231.5C 202.018,227.985 204.185,225.652 207.5,224.5 Z"/></g>
<g><path style="opacity:0.562" fill="#c5c6c5" d="M 139.5,228.5 C 140.5,228.5 141.5,228.5 142.5,228.5C 142.553,231.061 141.553,233.061 139.5,234.5C 138.481,232.54 138.481,230.54 139.5,228.5 Z"/></g>
<g><path style="opacity:0.53" fill="#c5c6c5" d="M 469.5,234.5 C 470.496,234.414 471.329,234.748 472,235.5C 472.494,237.134 472.66,238.801 472.5,240.5C 471.5,240.5 470.5,240.5 469.5,240.5C 468.725,238.388 468.725,236.388 469.5,234.5 Z"/></g>
<g><path style="opacity:1" fill="#1d1d33" d="M 324.5,243.5 C 287.833,243.5 251.167,243.5 214.5,243.5C 214.5,241.167 214.5,238.833 214.5,236.5C 251.167,236.5 287.833,236.5 324.5,236.5C 324.5,238.833 324.5,241.167 324.5,243.5 Z"/></g>
<g><path style="opacity:0.562" fill="#c5c6c5" d="M 134.5,242.5 C 137.492,243.132 138.159,244.799 136.5,247.5C 135.675,248.386 134.675,248.719 133.5,248.5C 133.833,246.5 134.167,244.5 134.5,242.5 Z"/></g>
<g><path style="opacity:1" fill="#a3a2a2" d="M 214.5,243.5 C 251.167,243.5 287.833,243.5 324.5,243.5C 324.5,249.167 324.5,254.833 324.5,260.5C 343.674,260.17 362.674,260.503 381.5,261.5C 353.167,261.5 324.833,261.5 296.5,261.5C 296.5,263.5 296.5,265.5 296.5,267.5C 296.5,287.833 296.5,308.167 296.5,328.5C 305.833,328.5 315.167,328.5 324.5,328.5C 324.5,333.833 324.5,339.167 324.5,344.5C 287.833,344.5 251.167,344.5 214.5,344.5C 214.5,310.833 214.5,277.167 214.5,243.5 Z"/></g>
<g><path style="opacity:0.503" fill="#c5c6c5" d="M 473.5,249.5 C 474.5,249.5 475.5,249.5 476.5,249.5C 476.833,251.5 477.167,253.5 477.5,255.5C 473.932,255.241 472.599,253.241 473.5,249.5 Z"/></g>
<g><path style="opacity:0.529" fill="#8687c1" d="M 41.5,250.5 C 42.8333,250.5 44.1667,250.5 45.5,250.5C 45.8333,253.5 44.5,254.833 41.5,254.5C 41.5,253.167 41.5,251.833 41.5,250.5 Z"/></g>
<g><path style="opacity:0.762" fill="#8687c1" d="M 496.5,250.5 C 502.845,250.542 504.512,253.209 501.5,258.5C 494.409,259.531 492.742,256.864 496.5,250.5 Z"/></g>
<g><path style="opacity:0.566" fill="#8687c1" d="M 542.5,250.5 C 544.912,250.694 545.912,252.027 545.5,254.5C 544.167,254.5 542.833,254.5 541.5,254.5C 541.433,253.041 541.766,251.708 542.5,250.5 Z"/></g>
<g><path style="opacity:0.846" fill="#8687c1" d="M 73.5,253.5 C 81.379,253.216 84.2123,256.883 82,264.5C 81.5,265.667 80.6667,266.5 79.5,267C 71.841,268.949 68.341,266.115 69,258.5C 70.025,256.313 71.525,254.646 73.5,253.5 Z"/></g>
<g><path style="opacity:1" fill="#eb403f" d="M 224.5,252.5 C 237.833,252.5 251.167,252.5 264.5,252.5C 264.5,266.167 264.5,279.833 264.5,293.5C 251.167,293.5 237.833,293.5 224.5,293.5C 224.5,279.833 224.5,266.167 224.5,252.5 Z"/></g>
<g><path style="opacity:0.592" fill="#c5c6c5" d="M 131.5,257.5 C 133.308,258.918 133.975,260.918 133.5,263.5C 132.5,263.5 131.5,263.5 130.5,263.5C 130.325,261.379 130.659,259.379 131.5,257.5 Z"/></g>
<g><path style="opacity:1" fill="#ea3e3e" d="M 381.5,261.5 C 381.5,263.5 381.5,265.5 381.5,267.5C 353.167,267.5 324.833,267.5 296.5,267.5C 296.5,265.5 296.5,263.5 296.5,261.5C 324.833,261.5 353.167,261.5 381.5,261.5 Z"/></g>
<g><path style="opacity:0.528" fill="#c5c6c5" d="M 476.5,264.5 C 477.5,264.5 478.5,264.5 479.5,264.5C 479.421,265.93 479.754,267.264 480.5,268.5C 479.711,270.488 478.545,270.821 477,269.5C 476.506,267.866 476.34,266.199 476.5,264.5 Z"/></g>
<g><path style="opacity:0.847" fill="#8687c1" d="M 520.5,266.5 C 526.518,265.191 530.185,267.524 531.5,273.5C 528.834,281.094 524.334,282.427 518,277.5C 515.826,273.193 516.659,269.526 520.5,266.5 Z"/></g>
<g><path style="opacity:1" fill="#323151" d="M 296.5,267.5 C 324.833,267.5 353.167,267.5 381.5,267.5C 381.5,287.833 381.5,308.167 381.5,328.5C 362.5,328.5 343.5,328.5 324.5,328.5C 315.167,328.5 305.833,328.5 296.5,328.5C 296.5,308.167 296.5,287.833 296.5,267.5 Z"/></g>
<g><path style="opacity:0.503" fill="#c5c6c5" d="M 129.5,272.5 C 130.947,273.134 131.613,274.301 131.5,276C 131.087,279.717 129.754,280.217 127.5,277.5C 128.174,275.805 128.841,274.138 129.5,272.5 Z"/></g>
<g><path style="opacity:1" fill="#c8c8d1" d="M 371.5,275.5 C 350.5,275.5 329.5,275.5 308.5,275.5C 308.5,288.5 308.5,301.5 308.5,314.5C 329.5,314.5 350.5,314.5 371.5,314.5C 350.34,315.497 329.007,315.831 307.5,315.5C 307.5,301.833 307.5,288.167 307.5,274.5C 329.007,274.169 350.34,274.503 371.5,275.5 Z"/></g>
<g><path style="opacity:1" fill="#fefefe" d="M 371.5,275.5 C 371.5,288.5 371.5,301.5 371.5,314.5C 350.5,314.5 329.5,314.5 308.5,314.5C 308.5,301.5 308.5,288.5 308.5,275.5C 329.5,275.5 350.5,275.5 371.5,275.5 Z"/></g>
<g><path style="opacity:0.731" fill="#8687c1" d="M 108.5,279.5 C 114.158,278.679 115.825,280.846 113.5,286C 107.741,287.139 106.074,284.972 108.5,279.5 Z"/></g>
<g><path style="opacity:0.592" fill="#c5c6c5" d="M 478.5,279.5 C 479.496,279.414 480.329,279.748 481,280.5C 481.494,282.134 481.66,283.801 481.5,285.5C 480.5,285.5 479.5,285.5 478.5,285.5C 478.5,283.5 478.5,281.5 478.5,279.5 Z"/></g>
<g><path style="opacity:0.588" fill="#c5c6c5" d="M 127.5,288.5 C 128.5,288.5 129.5,288.5 130.5,288.5C 130.949,290.977 130.283,292.977 128.5,294.5C 127.534,292.604 127.201,290.604 127.5,288.5 Z"/></g>
<g><path style="opacity:0.731" fill="#8687c1" d="M 57.5,290.5 C 63.1581,289.679 64.8248,291.846 62.5,297C 56.741,298.139 55.0744,295.972 57.5,290.5 Z"/></g>
<g><path style="opacity:0.587" fill="#c5c6c5" d="M 478.5,295.5 C 479.5,295.5 480.5,295.5 481.5,295.5C 481.799,297.604 481.466,299.604 480.5,301.5C 478.717,299.977 478.051,297.977 478.5,295.5 Z"/></g>
<g><path style="opacity:0.775" fill="#c5c6c5" d="M 508.5,297.5 C 509.978,297.238 511.311,297.571 512.5,298.5C 532.424,339.258 528.591,377.592 501,413.5C 489.91,425.756 476.743,435.089 461.5,441.5C 466.038,443.935 470.704,446.102 475.5,448C 476.677,450.158 476.01,451.658 473.5,452.5C 465.821,449.909 458.321,446.909 451,443.5C 452.757,435.624 455.424,427.957 459,420.5C 461.229,417.844 463.062,418.177 464.5,421.5C 462.124,426.625 460.458,431.625 459.5,436.5C 500.944,417.643 521.11,385.309 520,339.5C 518.759,326.443 515.092,314.11 509,302.5C 508.506,300.866 508.34,299.199 508.5,297.5 Z"/></g>
<g><path style="opacity:0.56" fill="#c5c6c5" d="M 127.5,303.5 C 128.5,303.5 129.5,303.5 130.5,303.5C 130.5,305.5 130.5,307.5 130.5,309.5C 129.5,309.5 128.5,309.5 127.5,309.5C 127.5,307.5 127.5,305.5 127.5,303.5 Z"/></g>
<g><path style="opacity:0.773" fill="#c5c6c5" d="M 89.5,304.5 C 90.8221,304.33 91.9887,304.663 93,305.5C 96.644,312.621 100.144,319.787 103.5,327C 102.372,329.065 100.706,329.732 98.5,329C 95.8724,324.245 93.3724,319.412 91,314.5C 77.2113,357.786 87.378,394.286 121.5,424C 133.114,432.877 146.114,438.877 160.5,442C 161.833,443.333 161.833,444.667 160.5,446C 129.336,440.32 106.169,423.487 91,395.5C 78.2107,369.401 76.3774,342.568 85.5,315C 85.1667,314.5 84.8333,314 84.5,313.5C 80.2813,315.776 75.948,317.776 71.5,319.5C 68.6038,318.976 67.9372,317.476 69.5,315C 76.3859,311.726 83.0526,308.226 89.5,304.5 Z"/></g>
<g><path style="opacity:0.529" fill="#c5c6c5" d="M 478.5,310.5 C 479.995,310.415 480.995,311.081 481.5,312.5C 480.754,313.736 480.421,315.07 480.5,316.5C 479.5,316.5 478.5,316.5 477.5,316.5C 477.325,314.379 477.659,312.379 478.5,310.5 Z"/></g>
<g><path style="opacity:0.498" fill="#8687c1" d="M 540.5,312.5 C 543.956,313.536 544.29,315.203 541.5,317.5C 539.296,316.218 538.962,314.551 540.5,312.5 Z"/></g>
<g><path style="opacity:0.561" fill="#c5c6c5" d="M 128.5,319.5 C 132.071,319.408 133.238,321.074 132,324.5C 131.586,324.957 131.086,325.291 130.5,325.5C 129.523,323.589 128.857,321.589 128.5,319.5 Z"/></g>
<g><path style="opacity:0.594" fill="#c5c6c5" d="M 476.5,325.5 C 478.308,326.918 478.975,328.918 478.5,331.5C 477.5,331.5 476.5,331.5 475.5,331.5C 475.325,329.379 475.659,327.379 476.5,325.5 Z"/></g>
<g><path style="opacity:0.532" fill="#c5c6c5" d="M 131.5,334.5 C 135.395,334.857 136.395,336.857 134.5,340.5C 132.447,339.061 131.447,337.061 131.5,334.5 Z"/></g>
<g><path style="opacity:0.594" fill="#c5c6c5" d="M 473.5,340.5 C 475.676,341.713 476.009,343.38 474.5,345.5C 473.675,346.386 472.675,346.719 471.5,346.5C 471.604,344.297 472.27,342.297 473.5,340.5 Z"/></g>
<g><path style="opacity:0.595" fill="#c5c6c5" d="M 136.5,349.5 C 137.5,349.5 138.5,349.5 139.5,349.5C 139.421,350.93 139.754,352.264 140.5,353.5C 139.311,354.429 137.978,354.762 136.5,354.5C 136.5,352.833 136.5,351.167 136.5,349.5 Z"/></g>
<g><path style="opacity:0.504" fill="#c5c6c5" d="M 467.5,355.5 C 468.5,355.5 469.5,355.5 470.5,355.5C 471.113,358.969 469.779,360.969 466.5,361.5C 466.517,359.435 466.85,357.435 467.5,355.5 Z"/></g>
<g><path style="opacity:0.915" fill="#1f1f36" d="M 227.5,361.5 C 227.5,362.167 227.5,362.833 227.5,363.5C 221.167,364.833 214.833,364.833 208.5,363.5C 208.5,362.833 208.5,362.167 208.5,361.5C 214.833,360.167 221.167,360.167 227.5,361.5 Z"/></g>
<g><path style="opacity:0.965" fill="#1f1f36" d="M 395.5,361.5 C 395.5,362.167 395.5,362.833 395.5,363.5C 389.5,364.833 383.5,364.833 377.5,363.5C 377.5,362.833 377.5,362.167 377.5,361.5C 383.5,360.167 389.5,360.167 395.5,361.5 Z"/></g>
<g><path style="opacity:0.561" fill="#c5c6c5" d="M 141.5,363.5 C 145.143,364.119 146.143,366.119 144.5,369.5C 142.447,368.061 141.447,366.061 141.5,363.5 Z"/></g>
<g><path style="opacity:0.862" fill="#302f50" d="M 208.5,363.5 C 214.833,364.833 221.167,364.833 227.5,363.5C 252.655,363.094 277.655,363.761 302.5,365.5C 327.345,363.761 352.345,363.094 377.5,363.5C 383.5,364.833 389.5,364.833 395.5,363.5C 403.5,363.5 411.5,363.5 419.5,363.5C 420.542,368.133 418.875,371.299 414.5,373C 339.833,373.667 265.167,373.667 190.5,373C 186.747,371.412 184.747,368.579 184.5,364.5C 192.472,363.502 200.472,363.169 208.5,363.5 Z"/></g>
<g><path style="opacity:0.504" fill="#c5c6c5" d="M 461.5,369.5 C 462.5,369.5 463.5,369.5 464.5,369.5C 465.113,372.969 463.779,374.969 460.5,375.5C 460.517,373.435 460.85,371.435 461.5,369.5 Z"/></g>
<g><path style="opacity:0.561" fill="#c5c6c5" d="M 148.5,377.5 C 152.363,378.257 153.196,380.257 151,383.5C 148.961,382.022 148.128,380.022 148.5,377.5 Z"/></g>
<g><path style="opacity:0.533" fill="#c5c6c5" d="M 454.5,383.5 C 455.5,383.5 456.5,383.5 457.5,383.5C 457.74,387.527 456.074,388.861 452.5,387.5C 453.18,386.14 453.847,384.807 454.5,383.5 Z"/></g>
<g><path style="opacity:0.562" fill="#c5c6c5" d="M 156.5,390.5 C 160.17,391.193 161.17,393.193 159.5,396.5C 157.022,395.278 156.022,393.278 156.5,390.5 Z"/></g>
<g><path style="opacity:0.632" fill="#c5c6c5" d="M 445.5,396.5 C 446.5,396.5 447.5,396.5 448.5,396.5C 448.803,399.588 447.47,401.254 444.5,401.5C 444.629,399.784 444.962,398.117 445.5,396.5 Z"/></g>
<g><path style="opacity:0.594" fill="#c5c6c5" d="M 165.5,403.5 C 168.114,403.277 169.781,404.444 170.5,407C 167.297,408.678 165.63,407.511 165.5,403.5 Z"/></g>
<g><path style="opacity:0.531" fill="#c5c6c5" d="M 436.5,408.5 C 437.5,408.5 438.5,408.5 439.5,408.5C 439.5,411.833 437.833,413.5 434.5,413.5C 434.392,411.486 435.058,409.82 436.5,408.5 Z"/></g>
<g><path style="opacity:0.562" fill="#c5c6c5" d="M 175.5,414.5 C 177.729,415.055 179.395,416.389 180.5,418.5C 176.566,420.242 174.899,418.909 175.5,414.5 Z"/></g>
<g><path style="opacity:0.533" fill="#c5c6c5" d="M 426.5,419.5 C 427.756,419.461 428.756,419.961 429.5,421C 428.446,424.258 426.446,425.092 423.5,423.5C 424.524,422.148 425.524,420.815 426.5,419.5 Z"/></g>
<g><path style="opacity:0.533" fill="#c5c6c5" d="M 186.5,425.5 C 189.833,425.5 191.5,427.167 191.5,430.5C 188.167,430.5 186.5,428.833 186.5,425.5 Z"/></g>
<g><path style="opacity:0.562" fill="#c5c6c5" d="M 415.5,429.5 C 417.225,429.843 417.725,430.843 417,432.5C 415.89,434.037 414.39,434.703 412.5,434.5C 412.31,432.041 413.31,430.374 415.5,429.5 Z"/></g>
<g><path style="opacity:0.593" fill="#c5c6c5" d="M 198.5,435.5 C 201.588,435.197 203.254,436.53 203.5,439.5C 200.05,440.244 198.384,438.91 198.5,435.5 Z"/></g>
<g><path style="opacity:0.561" fill="#c5c6c5" d="M 401.5,439.5 C 406.52,440.211 406.52,441.544 401.5,443.5C 400.833,443.167 400.167,442.833 399.5,442.5C 400.193,441.482 400.859,440.482 401.5,439.5 Z"/></g>
<g><path style="opacity:0.482" fill="#c5c6c5" d="M 211.5,443.5 C 214.797,443.632 216.463,445.298 216.5,448.5C 212.358,448.687 210.691,447.021 211.5,443.5 Z"/></g>
<g><path style="opacity:0.531" fill="#c5c6c5" d="M 388.5,447.5 C 389.978,447.238 391.311,447.571 392.5,448.5C 391.278,450.978 389.278,451.978 386.5,451.5C 386.527,449.801 387.194,448.467 388.5,447.5 Z"/></g>
<g><path style="opacity:0.92" fill="#c5c5c5" d="M 361.5,483.5 C 358.125,484.245 354.792,485.245 351.5,486.5C 350.893,486.376 350.56,486.043 350.5,485.5C 350.281,482.326 348.615,480.493 345.5,480C 342.823,473.288 341.156,466.288 340.5,459C 340.727,453.367 343.727,450.7 349.5,451C 352.5,450.333 355.5,450.333 358.5,451C 360.964,454.214 362.964,457.714 364.5,461.5C 364.07,466.447 363.903,471.447 364,476.5C 360.831,478.145 359.997,480.479 361.5,483.5 Z"/></g>
<g><path style="opacity:0.632" fill="#c5c6c5" d="M 224.5,451.5 C 227.588,451.197 229.254,452.53 229.5,455.5C 226.412,455.803 224.746,454.47 224.5,451.5 Z"/></g>
<g><path style="opacity:0.505" fill="#c5c6c5" d="M 374.5,454.5 C 375.833,454.5 377.167,454.5 378.5,454.5C 377.969,457.779 375.969,459.113 372.5,458.5C 372.527,456.801 373.194,455.467 374.5,454.5 Z"/></g>
<g><path style="opacity:0.559" fill="#c5c6c5" d="M 238.5,457.5 C 240.842,457.504 242.842,458.337 244.5,460C 241.006,462.467 239.006,461.634 238.5,457.5 Z"/></g>
<g><path style="opacity:0.75" fill="#8687c1" d="M 398.5,458.5 C 404.643,459.026 405.976,461.86 402.5,467C 397.545,468.376 395.379,466.542 396,461.5C 396.698,460.309 397.531,459.309 398.5,458.5 Z"/></g>
<g><path style="opacity:0.503" fill="#c5c6c5" d="M 252.5,462.5 C 255.969,461.887 257.969,463.221 258.5,466.5C 255.031,467.113 253.031,465.779 252.5,462.5 Z"/></g>
<g><path style="opacity:0.918" fill="#394a63" d="M 244.5,493.5 C 241.943,496.792 238.609,499.126 234.5,500.5C 234.461,499.417 234.127,498.417 233.5,497.5C 231.577,496.692 229.577,496.192 227.5,496C 226.619,495.292 225.953,494.458 225.5,493.5C 227.104,492.713 227.771,491.38 227.5,489.5C 226.041,489.433 224.708,489.766 223.5,490.5C 222.263,489.035 221.263,487.368 220.5,485.5C 223.473,485.035 224.64,483.368 224,480.5C 221.765,479.02 219.932,479.353 218.5,481.5C 215.393,478.645 214.893,475.312 217,471.5C 221.517,466.656 227.017,464.822 233.5,466C 237.125,471.415 240.625,476.915 244,482.5C 243.912,486.259 244.079,489.925 244.5,493.5 Z"/></g>
<g><path style="opacity:0.59" fill="#c5c6c5" d="M 267.5,466.5 C 269.977,466.051 271.977,466.717 273.5,468.5C 271.604,469.466 269.604,469.799 267.5,469.5C 267.5,468.5 267.5,467.5 267.5,466.5 Z"/></g>
<g><path style="opacity:0.56" fill="#c5c6c5" d="M 330.5,467.5 C 331.833,467.5 333.167,467.5 334.5,467.5C 334.5,468.5 334.5,469.5 334.5,470.5C 332.774,470.815 331.107,470.981 329.5,471C 329.043,470.586 328.709,470.086 328.5,469.5C 329.243,468.818 329.909,468.151 330.5,467.5 Z"/></g>
<g><path style="opacity:0.529" fill="#c5c6c5" d="M 283.5,468.5 C 286.588,468.197 288.254,469.53 288.5,472.5C 286.738,472.643 285.071,472.309 283.5,471.5C 282.438,470.575 282.438,469.575 283.5,468.5 Z"/></g>
<g><path style="opacity:0.553" fill="#c5c6c5" d="M 298.5,469.5 C 300.977,469.051 302.977,469.717 304.5,471.5C 304.192,472.308 303.692,472.975 303,473.5C 301.644,472.62 300.144,472.286 298.5,472.5C 298.5,471.5 298.5,470.5 298.5,469.5 Z"/></g>
<g><path style="opacity:0.557" fill="#c5c6c5" d="M 313.5,469.5 C 315.5,469.5 317.5,469.5 319.5,469.5C 319.5,470.5 319.5,471.5 319.5,472.5C 317.5,472.5 315.5,472.5 313.5,472.5C 313.5,471.5 313.5,470.5 313.5,469.5 Z"/></g>
<g><path style="opacity:0.847" fill="#8687c1" d="M 162.5,470.5 C 171.549,470.701 174.215,474.868 170.5,483C 161.763,486.586 157.93,483.752 159,474.5C 159.69,472.65 160.856,471.316 162.5,470.5 Z"/></g>
<g><path style="opacity:0.748" fill="#8687c1" d="M 197.5,472.5 C 202.698,472.081 204.365,474.248 202.5,479C 196.741,480.139 195.074,477.972 197.5,472.5 Z"/></g>
<g><path style="opacity:1" fill="#b2b4b8" d="M 220.5,485.5 C 219.326,484.486 218.66,483.153 218.5,481.5C 219.932,479.353 221.765,479.02 224,480.5C 224.64,483.368 223.473,485.035 220.5,485.5 Z"/></g>
<g><path style="opacity:0.936" fill="#313051" d="M 377.5,541.5 C 377.03,540.307 376.03,539.64 374.5,539.5C 370.46,540.141 366.46,540.975 362.5,542C 360.808,543.401 360.141,545.234 360.5,547.5C 359.837,545.958 359.17,544.291 358.5,542.5C 357.583,543.127 356.583,543.461 355.5,543.5C 353.612,534.618 352.279,525.618 351.5,516.5C 345.544,519.542 339.211,521.708 332.5,523C 325.138,524.068 318.138,523.234 311.5,520.5C 311.5,519.5 311.5,518.5 311.5,517.5C 329.215,521.03 344.048,516.03 356,502.5C 358.054,499.726 359.554,496.726 360.5,493.5C 360.43,492.228 360.097,491.062 359.5,490C 357.5,489.333 355.5,489.333 353.5,490C 351.951,492.711 349.951,494.877 347.5,496.5C 347.384,493.14 347.051,489.807 346.5,486.5C 347.959,486.567 349.292,486.234 350.5,485.5C 350.56,486.043 350.893,486.376 351.5,486.5C 354.792,485.245 358.125,484.245 361.5,483.5C 363.416,481.884 364.916,482.218 366,484.5C 370.503,502.51 375.003,520.51 379.5,538.5C 379.058,539.739 378.391,540.739 377.5,541.5 Z"/></g>
<g><path style="opacity:0.852" fill="#8687c1" d="M 394.5,482.5 C 402.339,483.18 404.839,487.18 402,494.5C 397.755,498.406 393.755,498.073 390,493.5C 388.391,488.391 389.891,484.725 394.5,482.5 Z"/></g>
<g><path style="opacity:0.715" fill="#8687c1" d="M 435.5,488.5 C 439.605,488.496 441.105,490.496 440,494.5C 436.509,497.446 434.342,496.612 433.5,492C 433.862,490.566 434.528,489.399 435.5,488.5 Z"/></g>
<g><path style="opacity:1" fill="#b1b3b7" d="M 225.5,493.5 C 224.599,492.71 223.932,491.71 223.5,490.5C 224.708,489.766 226.041,489.433 227.5,489.5C 227.771,491.38 227.104,492.713 225.5,493.5 Z"/></g>
<g><path style="opacity:0.95" fill="#394a63" d="M 311.5,520.5 C 311.167,520.5 310.833,520.5 310.5,520.5C 310.5,519.167 310.5,517.833 310.5,516.5C 309.5,516.5 308.5,516.5 307.5,516.5C 307.517,514.435 307.85,512.435 308.5,510.5C 324.307,513.344 337.307,508.678 347.5,496.5C 349.951,494.877 351.951,492.711 353.5,490C 355.5,489.333 357.5,489.333 359.5,490C 360.097,491.062 360.43,492.228 360.5,493.5C 359.554,496.726 358.054,499.726 356,502.5C 344.048,516.03 329.215,521.03 311.5,517.5C 311.5,518.5 311.5,519.5 311.5,520.5 Z"/></g>
<g><path style="opacity:0.937" fill="#313051" d="M 255.5,502.5 C 252.827,500.824 250.16,499.157 247.5,497.5C 243.853,498.486 242.686,500.819 244,504.5C 258.876,520.84 276.709,524.84 297.5,516.5C 297.5,517.5 297.5,518.5 297.5,519.5C 290.198,523.833 282.198,526.333 273.5,527C 276.306,531.306 279.306,535.473 282.5,539.5C 282.145,540.522 281.478,541.189 280.5,541.5C 280.103,540.475 279.437,540.308 278.5,541C 273.084,544.03 268.084,547.53 263.5,551.5C 262.325,551.719 261.325,551.386 260.5,550.5C 259.867,548.214 258.534,546.548 256.5,545.5C 248.69,531.888 240.857,518.221 233,504.5C 232.516,502.807 233.016,501.473 234.5,500.5C 238.609,499.126 241.943,496.792 244.5,493.5C 245.721,492.972 246.887,492.305 248,491.5C 251.015,494.878 253.515,498.544 255.5,502.5 Z"/></g>
<g><path style="opacity:0.715" fill="#8687c1" d="M 198.5,498.5 C 203.68,499.404 204.68,501.904 201.5,506C 198.094,507.24 196.427,506.073 196.5,502.5C 196.803,500.886 197.47,499.552 198.5,498.5 Z"/></g>
<g><path style="opacity:0.946" fill="#394962" d="M 255.5,502.5 C 268.307,513.176 282.307,515.176 297.5,508.5C 299.994,511.253 299.994,513.92 297.5,516.5C 276.709,524.84 258.876,520.84 244,504.5C 242.686,500.819 243.853,498.486 247.5,497.5C 250.16,499.157 252.827,500.824 255.5,502.5 Z"/></g>
<g><path style="opacity:0.821" fill="#c2c2c3" d="M 308.5,510.5 C 307.85,512.435 307.517,514.435 307.5,516.5C 308.5,516.5 309.5,516.5 310.5,516.5C 310.5,517.833 310.5,519.167 310.5,520.5C 306.914,520.544 304.581,518.877 303.5,515.5C 302.168,517.833 300.168,519.166 297.5,519.5C 297.5,518.5 297.5,517.5 297.5,516.5C 299.994,513.92 299.994,511.253 297.5,508.5C 299.366,507.986 301.2,507.32 303,506.5C 304.981,507.65 306.814,508.984 308.5,510.5 Z"/></g>
<g><path style="opacity:0.529" fill="#8687c1" d="M 157.5,514.5 C 158.833,514.5 160.167,514.5 161.5,514.5C 161.833,517.5 160.5,518.833 157.5,518.5C 157.5,517.167 157.5,515.833 157.5,514.5 Z"/></g>
<g><path style="opacity:0.496" fill="#8687c1" d="M 427.5,516.5 C 428.833,516.5 430.167,516.5 431.5,516.5C 431.5,517.833 431.5,519.167 431.5,520.5C 430.167,520.5 428.833,520.5 427.5,520.5C 427.5,519.167 427.5,517.833 427.5,516.5 Z"/></g>
<g><path style="opacity:0.935" fill="#384962" d="M 377.5,541.5 C 377.333,552.505 377.5,563.505 378,574.5C 386.437,587.053 394.604,599.72 402.5,612.5C 398.283,615.108 393.95,617.441 389.5,619.5C 381.302,606.455 372.468,593.788 363,581.5C 361.691,576.934 361.191,572.267 361.5,567.5C 361.287,560.826 360.954,554.159 360.5,547.5C 360.141,545.234 360.808,543.401 362.5,542C 366.46,540.975 370.46,540.141 374.5,539.5C 376.03,539.64 377.03,540.307 377.5,541.5 Z"/></g>
<g><path style="opacity:0.932" fill="#384962" d="M 280.5,541.5 C 280.333,552.838 280.5,564.172 281,575.5C 289.354,587.551 297.188,599.885 304.5,612.5C 300.754,615.585 296.754,618.251 292.5,620.5C 283.6,607.051 274.433,593.717 265,580.5C 264.501,576.179 264.334,571.846 264.5,567.5C 264.167,562.167 263.833,556.833 263.5,551.5C 268.084,547.53 273.084,544.03 278.5,541C 279.437,540.308 280.103,540.475 280.5,541.5 Z"/></g>
<g><path style="opacity:0.932" fill="#222239" d="M 360.5,547.5 C 360.954,554.159 361.287,560.826 361.5,567.5C 357.57,571.361 355.236,576.027 354.5,581.5C 355.431,596.867 356.431,612.2 357.5,627.5C 348.496,628.834 339.496,630.168 330.5,631.5C 329.193,629.777 329.193,627.943 330.5,626C 334.621,624.101 338.954,623.268 343.5,623.5C 341.759,606.522 340.592,589.522 340,572.5C 344.686,562.454 349.853,552.787 355.5,543.5C 356.583,543.461 357.583,543.127 358.5,542.5C 359.17,544.291 359.837,545.958 360.5,547.5 Z"/></g>
<g><path style="opacity:0.929" fill="#222239" d="M 256.5,545.5 C 258.534,546.548 259.867,548.214 260.5,550.5C 261.325,551.386 262.325,551.719 263.5,551.5C 263.833,556.833 264.167,562.167 264.5,567.5C 260.332,572.01 257.999,577.344 257.5,583.5C 258.327,598.57 259.327,613.57 260.5,628.5C 251.382,629.279 242.382,630.612 233.5,632.5C 232.058,630.183 232.392,628.016 234.5,626C 238.44,624.844 242.44,624.01 246.5,623.5C 245.096,607.456 243.429,591.456 241.5,575.5C 247.038,565.757 252.038,555.757 256.5,545.5 Z"/></g>
<g><path style="opacity:0.912" fill="#1e1e34" d="M 402.5,612.5 C 403.167,613.5 403.833,614.5 404.5,615.5C 398.157,621.842 391.491,627.842 384.5,633.5C 381.861,632.294 381.028,630.294 382,627.5C 384.705,624.964 387.205,622.297 389.5,619.5C 393.95,617.441 398.283,615.108 402.5,612.5 Z"/></g>
<g><path style="opacity:0.902" fill="#1e1e34" d="M 304.5,612.5 C 305.5,613.833 306.5,615.167 307.5,616.5C 300.509,622.158 293.843,628.158 287.5,634.5C 284.861,633.294 284.028,631.294 285,628.5C 287.028,625.308 289.528,622.641 292.5,620.5C 296.754,618.251 300.754,615.585 304.5,612.5 Z"/></g>
<g><path style="opacity:0.914" fill="#524d50" d="M 404.5,615.5 C 405.289,615.783 405.956,616.283 406.5,617C 399.742,623.084 392.908,629.25 386,635.5C 385.283,634.956 384.783,634.289 384.5,633.5C 391.491,627.842 398.157,621.842 404.5,615.5 Z"/></g>
<g><path style="opacity:1" fill="#565153" d="M 307.5,616.5 C 308.791,617.542 308.791,618.708 307.5,620C 301.24,624.256 295.573,629.256 290.5,635C 289.251,635.74 288.251,635.573 287.5,634.5C 293.843,628.158 300.509,622.158 307.5,616.5 Z"/></g>
<g><path style="opacity:0.999" fill="#514c50" d="M 357.5,627.5 C 357.586,628.496 357.252,629.329 356.5,630C 348.914,630.605 341.414,631.771 334,633.5C 332.319,633.392 331.152,632.725 330.5,631.5C 339.496,630.168 348.496,628.834 357.5,627.5 Z"/></g>
<g><path style="opacity:0.835" fill="#4f4b4f" d="M 260.5,628.5 C 260.119,629.931 259.119,630.764 257.5,631C 250.065,631.525 242.732,632.692 235.5,634.5C 234.287,634.253 233.62,633.586 233.5,632.5C 242.382,630.612 251.382,629.279 260.5,628.5 Z"/></g>
</svg>
