<?xml version="1.0" encoding="UTF-8"?>
<!DOCTYPE svg PUBLIC "-//W3C//DTD SVG 1.1//EN" "http://www.w3.org/Graphics/SVG/1.1/DTD/svg11.dtd">
<svg xmlns="http://www.w3.org/2000/svg" version="1.1" width="607px" height="680px" style="shape-rendering:geometricPrecision; text-rendering:geometricPrecision; image-rendering:optimizeQuality; fill-rule:evenodd; clip-rule:evenodd" xmlns:xlink="http://www.w3.org/1999/xlink">
<g><path style="opacity:0.891" fill="#6c6c6c" d="M 256.5,99.5 C 243.8,107.503 230.8,115.169 217.5,122.5C 216.833,150.664 216.167,178.664 215.5,206.5C 215.667,178.831 215.5,151.165 215,123.5C 213.188,122.023 211.355,120.69 209.5,119.5C 221.938,111.774 234.605,104.274 247.5,97C 249.167,96.3333 250.833,96.3333 252.5,97C 253.693,98.0946 255.027,98.928 256.5,99.5 Z"/></g>
<g><path style="opacity:0.965" fill="#e7e7e7" d="M 256.5,99.5 C 260.84,101.674 264.006,105.007 266,109.5C 267.234,117.15 266.401,124.484 263.5,131.5C 252.062,139.521 239.396,142.188 225.5,139.5C 225.5,157.833 225.5,176.167 225.5,194.5C 225.227,196.451 225.893,197.951 227.5,199C 238.768,200.851 249.435,199.184 259.5,194C 262.465,191.21 264.798,188.043 266.5,184.5C 269.025,196.682 264.692,205.182 253.5,210C 240.232,213.913 227.566,212.746 215.5,206.5C 216.167,178.664 216.833,150.664 217.5,122.5C 230.8,115.169 243.8,107.503 256.5,99.5 Z"/></g>
<g><path style="opacity:0.876" fill="#363636" d="M 209.5,119.5 C 211.355,120.69 213.188,122.023 215,123.5C 215.5,151.165 215.667,178.831 215.5,206.5C 213.534,205.559 211.534,204.559 209.5,203.5C 208.171,175.336 208.171,147.336 209.5,119.5 Z"/></g>
<g><path style="opacity:0.981" fill="#c9c9c9" d="M 263.5,131.5 C 263.5,146.167 263.5,160.833 263.5,175.5C 263.694,187.48 257.694,193.98 245.5,195C 238.783,195.756 232.117,195.589 225.5,194.5C 225.5,176.167 225.5,157.833 225.5,139.5C 239.396,142.188 252.062,139.521 263.5,131.5 Z"/></g>
<g><path style="opacity:0.976" fill="#cecece" d="M 156.5,170.5 C 148.671,168.901 140.838,167.234 133,165.5C 131.93,165.528 131.097,165.861 130.5,166.5C 117.043,154.622 101.209,148.955 83,149.5C 76.6185,149.411 70.4518,150.411 64.5,152.5C 64.38,151.414 63.7133,150.747 62.5,150.5C 54.7866,148.958 47.1199,147.291 39.5,145.5C 50.3448,139.756 62.0115,136.59 74.5,136C 99.9232,133.523 123.257,139.19 144.5,153C 150.126,157.763 154.126,163.596 156.5,170.5 Z"/></g>
<g><path style="opacity:1" fill="#3c3c3c" d="M 130.5,166.5 C 132.06,168.954 133.06,171.62 133.5,174.5C 133.631,175.239 133.464,175.906 133,176.5C 129.114,169.614 123.614,164.447 116.5,161C 97.4179,153.146 78.0846,152.479 58.5,159C 50.2229,161.945 43.7229,167.112 39,174.5C 38.5357,173.906 38.369,173.239 38.5,172.5C 40.0931,167.394 43.0931,163.227 47.5,160C 52.6987,156.4 58.3653,153.9 64.5,152.5C 70.4518,150.411 76.6185,149.411 83,149.5C 101.209,148.955 117.043,154.622 130.5,166.5 Z"/></g>
<g><path style="opacity:1" fill="#666666" d="M 133.5,174.5 C 134.742,177.74 134.576,181.074 133,184.5C 130.381,188.95 127.214,192.95 123.5,196.5C 100.899,207.475 77.899,208.309 54.5,199C 49.3642,196.44 45.0309,192.94 41.5,188.5C 37.7375,183.576 36.7375,178.242 38.5,172.5C 38.369,173.239 38.5357,173.906 39,174.5C 43.7229,167.112 50.2229,161.945 58.5,159C 78.0846,152.479 97.4179,153.146 116.5,161C 123.614,164.447 129.114,169.614 133,176.5C 133.464,175.906 133.631,175.239 133.5,174.5 Z"/></g>
<g><path style="opacity:0.995" fill="#d8d8d8" d="M 511.5,164.5 C 472.892,180.465 434.226,196.465 395.5,212.5C 396.34,213.735 397.34,214.735 398.5,215.5C 397.504,215.414 396.671,215.748 396,216.5C 394.065,230.794 399.231,241.627 411.5,249C 414.863,249.927 417.863,249.427 420.5,247.5C 421.79,246.942 422.623,245.942 423,244.5C 423.497,241.854 423.664,239.187 423.5,236.5C 424.184,239.592 425.184,242.592 426.5,245.5C 425.833,247.5 425.167,249.5 424.5,251.5C 422.544,253.548 420.044,254.548 417,254.5C 405.986,251.828 398.319,245.161 394,234.5C 391.92,229.37 391.087,224.037 391.5,218.5C 392.014,216.488 392.18,214.488 392,212.5C 388.435,210.947 385.101,211.28 382,213.5C 381.387,215.495 381.887,217.162 383.5,218.5C 381.278,218.441 380.278,217.275 380.5,215C 380.439,213.289 381.106,211.956 382.5,211C 417.135,191.347 451.801,171.681 486.5,152C 497.732,150.008 506.066,154.175 511.5,164.5 Z"/></g>
<g><path style="opacity:0.995" fill="#e3e3e3" d="M 511.5,164.5 C 513.341,166.849 514.674,169.515 515.5,172.5C 477.657,187.171 439.991,202.338 402.5,218C 403.056,218.383 403.389,218.883 403.5,219.5C 402.833,219.5 402.167,219.5 401.5,219.5C 401.5,218.833 401.167,218.5 400.5,218.5C 399.833,217.5 399.167,216.5 398.5,215.5C 397.34,214.735 396.34,213.735 395.5,212.5C 434.226,196.465 472.892,180.465 511.5,164.5 Z"/></g>
<g><path style="opacity:0.999" fill="#e3e3e3" d="M 39.5,145.5 C 47.1199,147.291 54.7866,148.958 62.5,150.5C 63.7133,150.747 64.38,151.414 64.5,152.5C 58.3653,153.9 52.6987,156.4 47.5,160C 43.0931,163.227 40.0931,167.394 38.5,172.5C 36.7375,178.242 37.7375,183.576 41.5,188.5C 33.3944,187.346 25.3944,185.679 17.5,183.5C 16.5977,186.745 17.2644,189.745 19.5,192.5C 19.5,202.833 19.5,213.167 19.5,223.5C 17.5033,220.84 16.0033,217.84 15,214.5C 14.3333,199.5 14.3333,184.5 15,169.5C 19.7161,157.95 27.8827,149.95 39.5,145.5 Z"/></g>
<g><path style="opacity:0.966" fill="#8a8a8a" d="M 263.5,175.5 C 265.485,178.121 266.485,181.121 266.5,184.5C 264.798,188.043 262.465,191.21 259.5,194C 249.435,199.184 238.768,200.851 227.5,199C 225.893,197.951 225.227,196.451 225.5,194.5C 232.117,195.589 238.783,195.756 245.5,195C 257.694,193.98 263.694,187.48 263.5,175.5 Z"/></g>
<g><path style="opacity:1" fill="#cbcbcb" d="M 347.5,177.5 C 347.611,178.117 347.944,178.617 348.5,179C 313.167,199 277.833,219 242.5,239C 241.177,239.816 240.511,240.983 240.5,242.5C 240.167,242.5 239.833,242.5 239.5,242.5C 238.395,241.4 237.062,240.733 235.5,240.5C 235.297,238.61 235.963,237.11 237.5,236C 273.167,215.833 308.833,195.667 344.5,175.5C 345.739,175.942 346.739,176.609 347.5,177.5 Z"/></g>
<g><path style="opacity:0.996" fill="#efefef" d="M 515.5,172.5 C 518.138,176.087 518.138,179.754 515.5,183.5C 486.357,200.574 457.024,217.408 427.5,234C 427.752,237.721 427.419,241.554 426.5,245.5C 425.184,242.592 424.184,239.592 423.5,236.5C 417.322,238.982 412.655,237.315 409.5,231.5C 408.153,228.807 406.82,226.14 405.5,223.5C 404.833,222.167 404.167,220.833 403.5,219.5C 403.389,218.883 403.056,218.383 402.5,218C 439.991,202.338 477.657,187.171 515.5,172.5 Z"/></g>
<g><path style="opacity:1" fill="#ababab" d="M 347.5,177.5 C 349.404,177.738 350.738,178.738 351.5,180.5C 314.634,201.432 277.634,222.099 240.5,242.5C 240.511,240.983 241.177,239.816 242.5,239C 277.833,219 313.167,199 348.5,179C 347.944,178.617 347.611,178.117 347.5,177.5 Z"/></g>
<g><path style="opacity:0.951" fill="#555554" d="M 351.5,180.5 C 352.814,210.36 352.814,240.36 351.5,270.5C 350.746,273.091 349.079,274.924 346.5,276C 333.005,283.247 319.671,290.747 306.5,298.5C 305.614,299.325 305.281,300.325 305.5,301.5C 304.778,301.082 304.278,300.416 304,299.5C 298.187,303.317 292.353,306.983 286.5,310.5C 280.205,313.314 274.205,316.647 268.5,320.5C 260.365,324.735 252.365,329.235 244.5,334C 243.072,334.579 241.738,334.412 240.5,333.5C 240.825,303.093 240.492,272.76 239.5,242.5C 239.833,242.5 240.167,242.5 240.5,242.5C 277.634,222.099 314.634,201.432 351.5,180.5 Z"/></g>
<g><path style="opacity:0.907" fill="#dfdfdf" d="M 591.5,209.5 C 588.807,210.847 586.14,212.18 583.5,213.5C 567.006,204.754 550.673,195.754 534.5,186.5C 537.486,183.341 541.152,181.841 545.5,182C 561.062,190.941 576.396,200.108 591.5,209.5 Z"/></g>
<g><path style="opacity:0.959" fill="#dfdfdf" d="M 156.5,170.5 C 157.649,185.092 157.815,199.759 157,214.5C 156.613,217.599 155.446,220.266 153.5,222.5C 152.728,223.694 151.728,224.694 150.5,225.5C 149.67,216.342 149.17,207.009 149,197.5C 147.629,199.041 146.129,200.375 144.5,201.5C 137.837,198.963 130.837,197.296 123.5,196.5C 127.214,192.95 130.381,188.95 133,184.5C 134.576,181.074 134.742,177.74 133.5,174.5C 133.06,171.62 132.06,168.954 130.5,166.5C 131.097,165.861 131.93,165.528 133,165.5C 140.838,167.234 148.671,168.901 156.5,170.5 Z"/></g>
<g><path style="opacity:0.959" fill="#bcbcbc" d="M 515.5,183.5 C 516.111,189.434 515.278,195.1 513,200.5C 502.747,207.045 492.247,213.212 481.5,219C 479.923,221.595 478.923,224.429 478.5,227.5C 476.108,232.225 472.441,235.558 467.5,237.5C 462.882,238.076 458.715,237.076 455,234.5C 445.021,240.571 434.854,246.238 424.5,251.5C 425.167,249.5 425.833,247.5 426.5,245.5C 427.419,241.554 427.752,237.721 427.5,234C 457.024,217.408 486.357,200.574 515.5,183.5 Z"/></g>
<g><path style="opacity:0.974" fill="#cacaca" d="M 534.5,186.5 C 550.673,195.754 567.006,204.754 583.5,213.5C 583.5,236.167 583.5,258.833 583.5,281.5C 567.834,273.336 552.501,264.67 537.5,255.5C 542.665,251.414 548.332,248.08 554.5,245.5C 559.305,252.525 565.471,254.191 573,250.5C 576.701,242.17 576.034,234.17 571,226.5C 567.306,220.469 562.139,216.303 555.5,214C 550.03,212.779 546.53,214.946 545,220.5C 544.322,224.221 544.489,227.888 545.5,231.5C 545.586,232.496 545.252,233.329 544.5,234C 541.264,235.786 537.93,237.286 534.5,238.5C 534.5,221.167 534.5,203.833 534.5,186.5 Z"/></g>
<g><path style="opacity:1" fill="#090909" d="M 347.5,190.5 C 347.5,215.833 347.5,241.167 347.5,266.5C 346.833,254.833 346.167,243.167 345.5,231.5C 332.969,238.262 320.636,245.262 308.5,252.5C 305.996,253.584 303.663,254.917 301.5,256.5C 299.956,256.703 298.622,257.37 297.5,258.5C 296.179,270.729 296.179,282.896 297.5,295C 296.584,295.374 295.75,295.874 295,296.5C 294.833,284.486 294.333,272.486 293.5,260.5C 292.893,260.624 292.56,260.957 292.5,261.5C 285.302,265.262 278.302,269.262 271.5,273.5C 268.24,274.774 265.24,276.44 262.5,278.5C 256.315,281.178 250.481,284.511 245,288.5C 244.833,294.333 244.667,300.167 244.5,306C 244.524,312.243 245.19,318.243 246.5,324C 245.473,324.513 244.473,325.013 243.5,325.5C 242.843,299.478 243.509,273.812 245.5,248.5C 244.189,260.438 244.189,272.438 245.5,284.5C 249.563,282.14 253.563,279.807 257.5,277.5C 260.331,276.921 262.664,275.588 264.5,273.5C 274.359,268.406 284.026,263.073 293.5,257.5C 294.166,251.676 294.5,245.676 294.5,239.5C 294.496,233.128 293.829,227.128 292.5,221.5C 293.514,220.326 294.847,219.66 296.5,219.5C 296.168,231.518 296.501,243.518 297.5,255.5C 313.799,246.503 329.799,237.169 345.5,227.5C 346.824,215.993 346.824,204.327 345.5,192.5C 344.893,192.624 344.56,192.957 344.5,193.5C 338.483,196.529 332.483,199.529 326.5,202.5C 333.004,197.745 340.004,193.745 347.5,190.5 Z"/></g>
<g><path style="opacity:1" fill="#cacaca" d="M 19.5,192.5 C 26.847,201.022 35.847,207.355 46.5,211.5C 46.1917,221.915 46.525,232.249 47.5,242.5C 45.5,241.833 43.5,241.167 41.5,240.5C 35.9233,237.597 30.5899,234.263 25.5,230.5C 24.1667,228.5 22.5,226.833 20.5,225.5C 20.1667,224.833 19.8333,224.167 19.5,223.5C 19.5,213.167 19.5,202.833 19.5,192.5 Z"/></g>
<g><path style="opacity:1" fill="#c9c9c9" d="M 150.5,225.5 C 149.248,227.001 148.248,228.668 147.5,230.5C 142.327,234.59 136.66,237.923 130.5,240.5C 130.168,230.145 130.501,219.812 131.5,209.5C 136.029,207.073 140.362,204.406 144.5,201.5C 146.129,200.375 147.629,199.041 149,197.5C 149.17,207.009 149.67,216.342 150.5,225.5 Z"/></g>
<g><path style="opacity:1" fill="#8b302f" d="M 257.5,199.5 C 259.465,199.948 259.798,200.948 258.5,202.5C 257.614,201.675 257.281,200.675 257.5,199.5 Z"/></g>
<g><path style="opacity:1" fill="#eeeeee" d="M 41.5,188.5 C 45.0309,192.94 49.3642,196.44 54.5,199C 77.899,208.309 100.899,207.475 123.5,196.5C 130.837,197.296 137.837,198.963 144.5,201.5C 140.362,204.406 136.029,207.073 131.5,209.5C 130.501,219.812 130.168,230.145 130.5,240.5C 127.598,241.784 124.598,242.784 121.5,243.5C 120.506,234.014 120.173,224.348 120.5,214.5C 117.505,214.294 114.838,214.96 112.5,216.5C 99.2227,218.306 85.8893,218.806 72.5,218C 63.487,217.08 54.8203,214.913 46.5,211.5C 35.847,207.355 26.847,201.022 19.5,192.5C 17.2644,189.745 16.5977,186.745 17.5,183.5C 25.3944,185.679 33.3944,187.346 41.5,188.5 Z"/></g>
<g><path style="opacity:1" fill="#464646" d="M 344.5,193.5 C 344.56,192.957 344.893,192.624 345.5,192.5C 346.824,204.327 346.824,215.993 345.5,227.5C 345.828,215.988 345.495,204.654 344.5,193.5 Z"/></g>
<g><path style="opacity:0.99" fill="#7e7e7e" d="M 591.5,209.5 C 591.667,232.169 591.5,254.836 591,277.5C 588.525,278.986 586.025,280.319 583.5,281.5C 583.5,258.833 583.5,236.167 583.5,213.5C 586.14,212.18 588.807,210.847 591.5,209.5 Z"/></g>
<g><path style="opacity:1" fill="#e1e1e1" d="M 46.5,211.5 C 54.8203,214.913 63.487,217.08 72.5,218C 85.8893,218.806 99.2227,218.306 112.5,216.5C 112.5,226.5 112.5,236.5 112.5,246.5C 99.9285,249.302 87.2618,249.969 74.5,248.5C 65.1639,247.915 56.1639,245.915 47.5,242.5C 46.525,232.249 46.1917,221.915 46.5,211.5 Z"/></g>
<g><path style="opacity:0.968" fill="#6a6a6a" d="M 391.5,218.5 C 388.693,219.657 386.026,219.657 383.5,218.5C 381.887,217.162 381.387,215.495 382,213.5C 385.101,211.28 388.435,210.947 392,212.5C 392.18,214.488 392.014,216.488 391.5,218.5 Z"/></g>
<g><path style="opacity:1" fill="#686868" d="M 554.5,245.5 C 555.899,244.11 557.566,243.11 559.5,242.5C 562.43,244.074 564.93,243.408 567,240.5C 567.732,233.216 564.899,227.716 558.5,224C 555.006,223.08 552.673,224.246 551.5,227.5C 550.651,230.908 548.651,232.242 545.5,231.5C 544.489,227.888 544.322,224.221 545,220.5C 546.53,214.946 550.03,212.779 555.5,214C 562.139,216.303 567.306,220.469 571,226.5C 576.034,234.17 576.701,242.17 573,250.5C 565.471,254.191 559.305,252.525 554.5,245.5 Z"/></g>
<g><path style="opacity:1" fill="#c9c9c9" d="M 121.5,243.5 C 118.785,245.072 115.785,246.072 112.5,246.5C 112.5,236.5 112.5,226.5 112.5,216.5C 114.838,214.96 117.505,214.294 120.5,214.5C 120.173,224.348 120.506,234.014 121.5,243.5 Z"/></g>
<g><path style="opacity:1" fill="#7f7f80" d="M 398.5,215.5 C 399.167,216.5 399.833,217.5 400.5,218.5C 399.523,228.74 403.189,237.24 411.5,244C 414.309,245.741 417.309,246.908 420.5,247.5C 417.863,249.427 414.863,249.927 411.5,249C 399.231,241.627 394.065,230.794 396,216.5C 396.671,215.748 397.504,215.414 398.5,215.5 Z"/></g>
<g><path style="opacity:1" fill="#9d9d9d" d="M 344.5,193.5 C 345.495,204.654 345.828,215.988 345.5,227.5C 329.799,237.169 313.799,246.503 297.5,255.5C 296.501,243.518 296.168,231.518 296.5,219.5C 306.833,214.336 316.833,208.669 326.5,202.5C 332.483,199.529 338.483,196.529 344.5,193.5 Z"/></g>
<g><path style="opacity:1" fill="#9baac3" d="M 401.5,219.5 C 402.167,219.5 402.833,219.5 403.5,219.5C 404.167,220.833 404.833,222.167 405.5,223.5C 406.939,231.526 411.272,238.026 418.5,243C 411.71,241.901 406.877,238.068 404,231.5C 402.53,227.622 401.697,223.622 401.5,219.5 Z"/></g>
<g><path style="opacity:1" fill="#959595" d="M 292.5,221.5 C 293.829,227.128 294.496,233.128 294.5,239.5C 294.5,245.676 294.166,251.676 293.5,257.5C 293.666,251.491 293.499,245.491 293,239.5C 282.577,250.696 273.077,262.029 264.5,273.5C 262.664,275.588 260.331,276.921 257.5,277.5C 265.218,261.73 273.218,246.064 281.5,230.5C 281.376,229.893 281.043,229.56 280.5,229.5C 284.772,227.226 288.772,224.559 292.5,221.5 Z"/></g>
<g><path style="opacity:0.911" fill="#383838" d="M 153.5,222.5 C 149.301,252.54 132.301,271.04 102.5,278C 70.6703,283.65 45.5036,273.483 27,247.5C 23.1087,240.661 20.942,233.328 20.5,225.5C 22.5,226.833 24.1667,228.5 25.5,230.5C 31.4024,251.568 44.7358,265.068 65.5,271C 54.2708,263.375 46.2708,253.209 41.5,240.5C 43.5,241.167 45.5,241.833 47.5,242.5C 56.1639,245.915 65.1639,247.915 74.5,248.5C 77.0365,258.741 82.0365,267.574 89.5,275C 111.098,274.118 128.265,264.951 141,247.5C 144.257,242.227 146.423,236.561 147.5,230.5C 148.248,228.668 149.248,227.001 150.5,225.5C 151.728,224.694 152.728,223.694 153.5,222.5 Z"/></g>
<g><path style="opacity:1" fill="#c5c5c5" d="M 559.5,242.5 C 566.064,237.981 566.064,233.147 559.5,228C 556.743,227.218 554.243,227.718 552,229.5C 551.536,228.906 551.369,228.239 551.5,227.5C 552.673,224.246 555.006,223.08 558.5,224C 564.899,227.716 567.732,233.216 567,240.5C 564.93,243.408 562.43,244.074 559.5,242.5 Z"/></g>
<g><path style="opacity:0.932" fill="#878787" d="M 478.5,227.5 C 486.492,234.159 494.159,241.159 501.5,248.5C 502.838,250.67 504.672,252.336 507,253.5C 507.528,259.43 504.862,263.097 499,264.5C 496.378,263.375 493.878,262.041 491.5,260.5C 483.5,252.833 475.5,245.167 467.5,237.5C 472.441,235.558 476.108,232.225 478.5,227.5 Z"/></g>
<g><path style="opacity:0.965" fill="#878787" d="M 551.5,227.5 C 551.369,228.239 551.536,228.906 552,229.5C 554.243,227.718 556.743,227.218 559.5,228C 566.064,233.147 566.064,237.981 559.5,242.5C 557.566,243.11 555.899,244.11 554.5,245.5C 548.332,248.08 542.665,251.414 537.5,255.5C 531.808,258.009 526.474,261.009 521.5,264.5C 521.099,258.693 518.766,253.693 514.5,249.5C 521.461,246.353 528.127,242.687 534.5,238.5C 537.93,237.286 541.264,235.786 544.5,234C 545.252,233.329 545.586,232.496 545.5,231.5C 548.651,232.242 550.651,230.908 551.5,227.5 Z"/></g>
<g><path style="opacity:1" fill="#a6a6a6" d="M 280.5,229.5 C 281.043,229.56 281.376,229.893 281.5,230.5C 273.218,246.064 265.218,261.73 257.5,277.5C 253.563,279.807 249.563,282.14 245.5,284.5C 244.189,272.438 244.189,260.438 245.5,248.5C 257.299,242.433 268.966,236.1 280.5,229.5 Z"/></g>
<g><path style="opacity:1" fill="#7c7c7c" d="M 25.5,230.5 C 30.5899,234.263 35.9233,237.597 41.5,240.5C 46.2708,253.209 54.2708,263.375 65.5,271C 44.7358,265.068 31.4024,251.568 25.5,230.5 Z"/></g>
<g><path style="opacity:1" fill="#7d7d7d" d="M 147.5,230.5 C 146.423,236.561 144.257,242.227 141,247.5C 128.265,264.951 111.098,274.118 89.5,275C 82.0365,267.574 77.0365,258.741 74.5,248.5C 87.2618,249.969 99.9285,249.302 112.5,246.5C 115.785,246.072 118.785,245.072 121.5,243.5C 124.598,242.784 127.598,241.784 130.5,240.5C 136.66,237.923 142.327,234.59 147.5,230.5 Z"/></g>
<g><path style="opacity:1" fill="#434343" d="M 345.5,231.5 C 346.167,243.167 346.833,254.833 347.5,266.5C 347.158,267.338 346.492,267.672 345.5,267.5C 345.5,263.5 345.5,259.5 345.5,255.5C 345.5,247.5 345.5,239.5 345.5,231.5 Z"/></g>
<g><path style="opacity:1" fill="#506b96" d="M 400.5,218.5 C 401.167,218.5 401.5,218.833 401.5,219.5C 401.697,223.622 402.53,227.622 404,231.5C 406.877,238.068 411.71,241.901 418.5,243C 411.272,238.026 406.939,231.526 405.5,223.5C 406.82,226.14 408.153,228.807 409.5,231.5C 412.655,237.315 417.322,238.982 423.5,236.5C 423.664,239.187 423.497,241.854 423,244.5C 422.623,245.942 421.79,246.942 420.5,247.5C 417.309,246.908 414.309,245.741 411.5,244C 403.189,237.24 399.523,228.74 400.5,218.5 Z"/></g>
<g><path style="opacity:0.992" fill="#3e3e3d" d="M 235.5,240.5 C 237.062,240.733 238.395,241.4 239.5,242.5C 240.492,272.76 240.825,303.093 240.5,333.5C 239.833,333.5 239.167,333.5 238.5,333.5C 238.5,332.833 238.167,332.5 237.5,332.5C 237.831,303.329 237.498,274.329 236.5,245.5C 235.833,245.5 235.5,245.167 235.5,244.5C 235.5,243.167 235.5,241.833 235.5,240.5 Z"/></g>
<g><path style="opacity:1" fill="#aaaaaa" d="M 293.5,257.5 C 284.026,263.073 274.359,268.406 264.5,273.5C 273.077,262.029 282.577,250.696 293,239.5C 293.499,245.491 293.666,251.491 293.5,257.5 Z"/></g>
<g><path style="opacity:1" fill="#cbcbcb" d="M 231.5,242.5 C 232.303,243.423 232.47,244.423 232,245.5C 195.981,266.058 160.148,286.725 124.5,307.5C 122.5,307.5 121.5,306.5 121.5,304.5C 121.414,303.504 121.748,302.671 122.5,302C 158.268,281.7 194.102,261.533 230,241.5C 230.765,241.57 231.265,241.903 231.5,242.5 Z"/></g>
<g><path style="opacity:1" fill="#ababab" d="M 231.5,242.5 C 233.062,242.733 234.395,243.4 235.5,244.5C 235.5,245.167 235.833,245.5 236.5,245.5C 203.223,265.478 169.557,284.978 135.5,304C 132.264,305.786 128.93,307.286 125.5,308.5C 124.833,308.5 124.5,308.167 124.5,307.5C 160.148,286.725 195.981,266.058 232,245.5C 232.47,244.423 232.303,243.423 231.5,242.5 Z"/></g>
<g><path style="opacity:1" fill="#9f9f9f" d="M 345.5,231.5 C 345.5,239.5 345.5,247.5 345.5,255.5C 333.219,253.844 320.885,252.844 308.5,252.5C 320.636,245.262 332.969,238.262 345.5,231.5 Z"/></g>
<g><path style="opacity:1" fill="#555554" d="M 236.5,245.5 C 237.498,274.329 237.831,303.329 237.5,332.5C 237.5,332.833 237.5,333.167 237.5,333.5C 237.022,335.917 236.022,338.084 234.5,340C 219.607,348.274 204.94,356.774 190.5,365.5C 184.64,368.683 178.807,372.017 173,375.5C 172.844,379.555 173.344,383.555 174.5,387.5C 174.833,389.5 175.167,391.5 175.5,393.5C 181.381,391.226 187.048,388.393 192.5,385C 194.353,383.269 195.019,381.436 194.5,379.5C 199.795,383.912 199.795,388.412 194.5,393C 186.5,397.667 178.5,397.667 170.5,393C 166.087,389.263 165.42,384.93 168.5,380C 168.167,379.5 167.833,379 167.5,378.5C 163.34,380.412 159.34,382.579 155.5,385C 154.577,387.041 154.244,389.208 154.5,391.5C 153.698,390.048 153.198,388.382 153,386.5C 145.085,390.874 137.252,395.374 129.5,400C 127.648,400.773 126.314,400.273 125.5,398.5C 125.5,368.5 125.5,338.5 125.5,308.5C 128.93,307.286 132.264,305.786 135.5,304C 169.557,284.978 203.223,265.478 236.5,245.5 Z"/></g>
<g><path style="opacity:0.93" fill="#cacaca" d="M 514.5,249.5 C 518.766,253.693 521.099,258.693 521.5,264.5C 518.611,274.781 511.945,278.614 501.5,276C 494.537,273.255 491.204,268.088 491.5,260.5C 493.878,262.041 496.378,263.375 499,264.5C 504.862,263.097 507.528,259.43 507,253.5C 504.672,252.336 502.838,250.67 501.5,248.5C 505.945,247.096 510.279,247.43 514.5,249.5 Z"/></g>
<g><path style="opacity:1" fill="#52698f" d="M 60.5,250.5 C 63.8411,250.656 66.6745,251.989 69,254.5C 72.3707,261.139 70.5374,264.306 63.5,264C 59.6845,260.125 58.6845,255.625 60.5,250.5 Z"/></g>
<g><path style="opacity:1" fill="#adadad" d="M 308.5,252.5 C 320.885,252.844 333.219,253.844 345.5,255.5C 345.5,259.5 345.5,263.5 345.5,267.5C 343.072,268.212 340.739,269.212 338.5,270.5C 325.912,266.198 313.579,261.531 301.5,256.5C 303.663,254.917 305.996,253.584 308.5,252.5 Z"/></g>
<g><path style="opacity:1" fill="#0c0c0c" d="M 232.5,332.5 C 231.833,333.833 231.167,333.833 230.5,332.5C 231.824,320.993 231.824,309.327 230.5,297.5C 218.608,303.941 206.941,310.608 195.5,317.5C 191.034,319.566 186.701,321.9 182.5,324.5C 181.18,336.735 181.18,349.069 182.5,361.5C 180.948,362.622 179.282,363.122 177.5,363C 178,362.5 178.5,362 179,361.5C 179.499,357.514 179.666,353.514 179.5,349.5C 179.5,348.167 179.5,346.833 179.5,345.5C 179.666,339.158 179.5,332.825 179,326.5C 171.887,330.639 164.72,334.639 157.5,338.5C 148.85,343.472 140.184,348.472 131.5,353.5C 130.179,365.729 130.179,377.896 131.5,390C 130.473,390.513 129.473,391.013 128.5,391.5C 127.843,365.478 128.509,339.812 130.5,314.5C 130.333,326.505 130.5,338.505 131,350.5C 134.814,348.016 138.647,345.682 142.5,343.5C 154.532,336.731 166.699,330.064 179,323.5C 179.667,311.5 179.667,299.5 179,287.5C 177.67,288.582 176.17,289.249 174.5,289.5C 176.089,287.694 178.089,286.361 180.5,285.5C 181.167,297.5 181.833,309.5 182.5,321.5C 183.107,321.376 183.44,321.043 183.5,320.5C 199.15,311.862 214.816,303.195 230.5,294.5C 231.833,282.5 231.833,270.5 230.5,258.5C 224.544,262.644 218.211,265.977 211.5,268.5C 217.865,264.164 224.532,260.164 231.5,256.5C 232.5,281.825 232.833,307.158 232.5,332.5 Z"/></g>
<g><path style="opacity:1" fill="#adadad" d="M 292.5,261.5 C 293.826,267.568 293.826,273.734 292.5,280C 287.208,281.328 281.874,281.995 276.5,282C 274.432,279.358 272.765,276.525 271.5,273.5C 278.302,269.262 285.302,265.262 292.5,261.5 Z"/></g>
<g><path style="opacity:1" fill="#aeaeae" d="M 322.5,280.5 C 316.835,282.997 311.502,285.997 306.5,289.5C 303.577,290.295 300.91,291.628 298.5,293.5C 297.502,284.525 297.168,275.525 297.5,266.5C 309.505,268.555 321.505,270.721 333.5,273C 329.767,275.523 326.101,278.023 322.5,280.5 Z"/></g>
<g><path style="opacity:0.962" fill="#78491b" d="M 426.5,314.5 C 425.833,314.5 425.5,314.833 425.5,315.5C 416.098,321.968 409.098,319.968 404.5,309.5C 405.263,306.859 405.43,304.192 405,301.5C 403.667,300.167 402.333,300.167 401,301.5C 398.806,298.446 397.139,295.112 396,291.5C 394.871,289.859 393.371,288.859 391.5,288.5C 384.299,282.011 384.966,276.511 393.5,272C 404.489,268.155 415.155,268.822 425.5,274C 434.24,280.56 436.74,289.06 433,299.5C 430.555,304.424 428.388,309.424 426.5,314.5 Z"/></g>
<g><path style="opacity:0.998" fill="#6b3a34" d="M 351.5,270.5 C 364.365,278.099 377.365,285.432 390.5,292.5C 390.557,301.762 392.057,310.762 395,319.5C 395.66,321.324 396.827,322.657 398.5,323.5C 400.148,325.456 400.815,327.789 400.5,330.5C 399.5,330.5 398.5,330.5 397.5,330.5C 397.975,333.313 396.975,335.313 394.5,336.5C 390.028,335.356 385.362,334.523 380.5,334C 375.833,332 371.167,330 366.5,328C 362.5,327.333 358.5,327.333 354.5,328C 352.119,328.223 350.453,329.39 349.5,331.5C 345.533,334.201 345.533,337.034 349.5,340C 352.657,340.396 355.657,341.229 358.5,342.5C 363.342,343.693 368.342,343.693 373.5,342.5C 376.252,342.714 378.586,343.714 380.5,345.5C 374.793,350.576 370.293,356.576 367,363.5C 365.296,365.373 363.463,367.04 361.5,368.5C 360.833,368.5 360.5,368.833 360.5,369.5C 359.833,369.5 359.5,369.833 359.5,370.5C 356.833,371.5 354.167,372.5 351.5,373.5C 348.797,375.181 346.131,376.847 343.5,378.5C 340.296,379.383 337.629,381.05 335.5,383.5C 334.833,383.5 334.5,383.833 334.5,384.5C 330.466,384.483 326.799,383.483 323.5,381.5C 337.607,372.941 351.94,364.608 366.5,356.5C 367.833,355.167 367.833,353.833 366.5,352.5C 362.272,349.887 357.939,347.554 353.5,345.5C 348.375,340.77 342.375,337.937 335.5,337C 311.833,350.5 288.167,364 264.5,377.5C 263.167,378.833 263.167,380.167 264.5,381.5C 273.039,386.534 281.706,391.367 290.5,396C 292.833,396.667 295.167,396.667 297.5,396C 302.397,393.392 307.063,390.559 311.5,387.5C 313.38,387.229 314.713,387.896 315.5,389.5C 275.023,411.572 234.69,433.905 194.5,456.5C 165.153,440.832 136.486,424.166 108.5,406.5C 112.887,403.469 117.554,400.803 122.5,398.5C 123.5,398.5 124.5,398.5 125.5,398.5C 126.314,400.273 127.648,400.773 129.5,400C 137.252,395.374 145.085,390.874 153,386.5C 153.198,388.382 153.698,390.048 154.5,391.5C 154.833,392.833 155.167,394.167 155.5,395.5C 155.933,398.195 157.266,400.362 159.5,402C 166.109,407.202 173.609,409.369 182,408.5C 190.639,409.175 198.472,407.008 205.5,402C 207.734,400.362 209.067,398.195 209.5,395.5C 210.527,391.554 210.694,387.554 210,383.5C 207.638,379.973 204.804,376.973 201.5,374.5C 213.606,368.279 225.606,361.779 237.5,355C 238.833,354.333 238.833,353.667 237.5,353C 233.797,350.467 229.797,349.134 225.5,349C 213.976,355.259 202.643,361.759 191.5,368.5C 191.443,367.391 191.11,366.391 190.5,365.5C 204.94,356.774 219.607,348.274 234.5,340C 236.022,338.084 237.022,335.917 237.5,333.5C 237.833,333.5 238.167,333.5 238.5,333.5C 239.167,333.5 239.833,333.5 240.5,333.5C 241.738,334.412 243.072,334.579 244.5,334C 252.365,329.235 260.365,324.735 268.5,320.5C 268.547,323.969 269.213,327.302 270.5,330.5C 272.653,334.817 275.986,337.984 280.5,340C 296.984,346.749 311.484,343.916 324,331.5C 325.009,329.975 325.509,328.308 325.5,326.5C 326.205,318.577 323.205,312.577 316.5,308.5C 329.101,302.198 341.434,295.365 353.5,288C 349.727,286.03 345.894,284.197 342,282.5C 329.912,288.792 318.079,295.458 306.5,302.5C 305.833,302.5 305.5,302.167 305.5,301.5C 305.281,300.325 305.614,299.325 306.5,298.5C 319.671,290.747 333.005,283.247 346.5,276C 349.079,274.924 350.746,273.091 351.5,270.5 Z"/></g>
<g><path style="opacity:1" fill="#909090" d="M 322.5,280.5 C 326.101,278.023 329.767,275.523 333.5,273C 321.505,270.721 309.505,268.555 297.5,266.5C 297.168,275.525 297.502,284.525 298.5,293.5C 300.91,291.628 303.577,290.295 306.5,289.5C 308.258,289.123 309.925,288.456 311.5,287.5C 312.696,287.846 312.696,288.346 311.5,289C 302.793,294.518 293.793,299.185 284.5,303C 286.747,301.723 288.747,300.223 290.5,298.5C 293.383,294.032 294.216,289.032 293,283.5C 286.667,288.5 280.333,293.5 274,298.5C 273.705,301.242 274.538,303.575 276.5,305.5C 276.56,306.043 276.893,306.376 277.5,306.5C 283.515,303.836 283.849,304.336 278.5,308C 266.919,314.373 255.419,320.873 244,327.5C 243.536,326.906 243.369,326.239 243.5,325.5C 244.473,325.013 245.473,324.513 246.5,324C 245.19,318.243 244.524,312.243 244.5,306C 244.667,300.167 244.833,294.333 245,288.5C 250.481,284.511 256.315,281.178 262.5,278.5C 265.24,276.44 268.24,274.774 271.5,273.5C 272.765,276.525 274.432,279.358 276.5,282C 281.874,281.995 287.208,281.328 292.5,280C 293.826,273.734 293.826,267.568 292.5,261.5C 292.56,260.957 292.893,260.624 293.5,260.5C 294.333,272.486 294.833,284.486 295,296.5C 295.75,295.874 296.584,295.374 297.5,295C 296.179,282.896 296.179,270.729 297.5,258.5C 298.622,257.37 299.956,256.703 301.5,256.5C 313.579,261.531 325.912,266.198 338.5,270.5C 340.739,269.212 343.072,268.212 345.5,267.5C 346.492,267.672 347.158,267.338 347.5,266.5C 347.5,241.167 347.5,215.833 347.5,190.5C 347.783,189.711 348.283,189.044 349,188.5C 349.667,214.833 349.667,241.167 349,267.5C 340.916,272.459 332.749,277.293 324.5,282C 322.052,282.853 321.386,282.353 322.5,280.5 Z"/></g>
<g><path style="opacity:1" fill="#acacac" d="M 262.5,278.5 C 264.268,282.044 265.102,286.044 265,290.5C 265.831,297.856 265.665,305.189 264.5,312.5C 261.661,314.42 258.661,316.087 255.5,317.5C 255.167,317 254.833,316.5 254.5,316C 257.362,303.523 260.029,291.023 262.5,278.5 Z"/></g>
<g><path style="opacity:1" fill="#9e9e9e" d="M 183.5,320.5 C 182.341,309.007 182.174,297.341 183,285.5C 192.67,279.97 202.17,274.303 211.5,268.5C 218.211,265.977 224.544,262.644 230.5,258.5C 231.833,270.5 231.833,282.5 230.5,294.5C 214.816,303.195 199.15,311.862 183.5,320.5 Z"/></g>
<g><path style="opacity:1" fill="#59332c" d="M 316.5,308.5 C 313.167,307.5 309.833,306.5 306.5,305.5C 306.5,304.5 306.5,303.5 306.5,302.5C 318.079,295.458 329.912,288.792 342,282.5C 345.894,284.197 349.727,286.03 353.5,288C 341.434,295.365 329.101,302.198 316.5,308.5 Z"/></g>
<g><path style="opacity:1" fill="#adadad" d="M 290.5,298.5 C 285.85,300.804 281.183,303.137 276.5,305.5C 274.538,303.575 273.705,301.242 274,298.5C 280.333,293.5 286.667,288.5 293,283.5C 294.216,289.032 293.383,294.032 290.5,298.5 Z"/></g>
<g><path style="opacity:1" fill="#9b9b9b" d="M 142.5,343.5 C 150.5,327.5 158.5,311.5 166.5,295.5C 169.167,293.5 171.833,291.5 174.5,289.5C 176.17,289.249 177.67,288.582 179,287.5C 179.667,299.5 179.667,311.5 179,323.5C 166.699,330.064 154.532,336.731 142.5,343.5 Z"/></g>
<g><path style="opacity:0.989" fill="#dbaa83" d="M 391.5,288.5 C 393.371,288.859 394.871,289.859 396,291.5C 397.139,295.112 398.806,298.446 401,301.5C 402.333,300.167 403.667,300.167 405,301.5C 405.43,304.192 405.263,306.859 404.5,309.5C 403.566,310.568 403.232,311.901 403.5,313.5C 402.5,313.5 401.5,313.5 400.5,313.5C 401.069,317.329 400.402,320.663 398.5,323.5C 396.827,322.657 395.66,321.324 395,319.5C 392.057,310.762 390.557,301.762 390.5,292.5C 390.433,291.041 390.766,289.708 391.5,288.5 Z"/></g>
<g><path style="opacity:1" fill="#a9a9a9" d="M 166.5,295.5 C 158.5,311.5 150.5,327.5 142.5,343.5C 138.647,345.682 134.814,348.016 131,350.5C 130.5,338.505 130.333,326.505 130.5,314.5C 142.5,308.167 154.5,301.833 166.5,295.5 Z"/></g>
<g><path style="opacity:1" fill="#3f3f3e" d="M 305.5,301.5 C 305.5,302.167 305.833,302.5 306.5,302.5C 306.5,303.5 306.5,304.5 306.5,305.5C 307.605,307.713 307.605,309.88 306.5,312C 300.8,315.55 294.8,318.384 288.5,320.5C 288.149,317.097 287.482,313.763 286.5,310.5C 292.353,306.983 298.187,303.317 304,299.5C 304.278,300.416 304.778,301.082 305.5,301.5 Z"/></g>
<g><path style="opacity:0.836" fill="#3e3e3d" d="M 121.5,304.5 C 121.5,306.5 122.5,307.5 124.5,307.5C 124.5,308.167 124.833,308.5 125.5,308.5C 125.5,338.5 125.5,368.5 125.5,398.5C 124.5,398.5 123.5,398.5 122.5,398.5C 122.217,397.711 121.717,397.044 121,396.5C 120.169,365.664 120.336,334.997 121.5,304.5 Z"/></g>
<g><path style="opacity:1" fill="#aaaaaa" d="M 306.5,305.5 C 309.833,306.5 313.167,307.5 316.5,308.5C 323.205,312.577 326.205,318.577 325.5,326.5C 321.393,333.907 315.059,338.407 306.5,340C 292.706,343.054 280.706,339.887 270.5,330.5C 269.213,327.302 268.547,323.969 268.5,320.5C 274.205,316.647 280.205,313.314 286.5,310.5C 287.482,313.763 288.149,317.097 288.5,320.5C 294.8,318.384 300.8,315.55 306.5,312C 307.605,309.88 307.605,307.713 306.5,305.5 Z"/></g>
<g><path style="opacity:1" fill="#9c9c9c" d="M 230.5,332.5 C 230.5,328.833 230.5,325.167 230.5,321.5C 218.808,320.413 207.141,319.08 195.5,317.5C 206.941,310.608 218.608,303.941 230.5,297.5C 231.824,309.327 231.824,320.993 230.5,332.5 Z"/></g>
<g><path style="opacity:1" fill="#bd8c65" d="M 404.5,309.5 C 409.098,319.968 416.098,321.968 425.5,315.5C 425.517,317.565 425.85,319.565 426.5,321.5C 427.16,323.816 427.827,326.149 428.5,328.5C 428.41,330.425 427.41,331.592 425.5,332C 416.99,334.178 408.657,333.678 400.5,330.5C 400.815,327.789 400.148,325.456 398.5,323.5C 400.402,320.663 401.069,317.329 400.5,313.5C 401.5,313.5 402.5,313.5 403.5,313.5C 403.232,311.901 403.566,310.568 404.5,309.5 Z"/></g>
<g><path style="opacity:0.919" fill="#6c3a35" d="M 426.5,314.5 C 430.201,316.012 433.534,318.012 436.5,320.5C 433.193,321.051 429.86,321.384 426.5,321.5C 425.85,319.565 425.517,317.565 425.5,315.5C 425.5,314.833 425.833,314.5 426.5,314.5 Z"/></g>
<g><path style="opacity:1" fill="#5c5c5b" d="M 308.5,313.5 C 313.013,316.909 313.68,321.076 310.5,326C 302.899,331.115 294.899,331.782 286.5,328C 281.297,324.676 280.297,320.509 283.5,315.5C 284.985,319.101 286.318,322.767 287.5,326.5C 288.748,327.04 289.915,327.707 291,328.5C 297.629,325.109 303.796,321.109 309.5,316.5C 308.873,315.583 308.539,314.583 308.5,313.5 Z"/></g>
<g><path style="opacity:0.985" fill="#263d5a" d="M 436.5,320.5 C 447.028,320.84 453.194,326.174 455,336.5C 455.725,346.194 455.559,355.86 454.5,365.5C 441.413,374.704 427.413,382.538 412.5,389C 410.859,390.129 409.859,391.629 409.5,393.5C 398.129,420.598 387.129,447.931 376.5,475.5C 370.223,474.199 364.223,472.033 358.5,469C 354.833,468.667 351.167,468.333 347.5,468C 346.663,466.989 346.33,465.822 346.5,464.5C 341.986,463.579 337.653,462.079 333.5,460C 327.817,455.651 321.65,452.151 315,449.5C 312.926,450.072 311.76,451.405 311.5,453.5C 310.342,462.657 310.176,471.991 311,481.5C 316.41,487.456 322.91,491.789 330.5,494.5C 330.703,496.39 330.037,497.89 328.5,499C 320.508,501.949 313.508,500.449 307.5,494.5C 307.158,493.662 306.492,493.328 305.5,493.5C 303.563,492.069 301.73,490.402 300,488.5C 299.984,472.595 298.984,456.595 297,440.5C 296.333,435.5 296.333,430.5 297,425.5C 299.932,418.08 305.432,414.413 313.5,414.5C 321.617,415.657 329.617,417.323 337.5,419.5C 340.037,415.836 339.871,412.503 337,409.5C 336.505,407.527 336.338,405.527 336.5,403.5C 337.911,404.908 339.577,405.908 341.5,406.5C 343.038,406.547 344.038,405.88 344.5,404.5C 349.727,414.064 357.394,416.231 367.5,411C 369.141,409.871 370.141,408.371 370.5,406.5C 372.297,405.27 374.297,404.604 376.5,404.5C 377.937,405.725 379.604,406.725 381.5,407.5C 382.48,404.914 382.813,402.247 382.5,399.5C 389.972,392.864 396.138,385.197 401,376.5C 405.254,368.17 406.254,359.504 404,350.5C 400.569,344.534 395.402,341.867 388.5,342.5C 390.167,340.167 392.167,338.167 394.5,336.5C 396.975,335.313 397.975,333.313 397.5,330.5C 398.5,330.5 399.5,330.5 400.5,330.5C 408.657,333.678 416.99,334.178 425.5,332C 427.41,331.592 428.41,330.425 428.5,328.5C 427.827,326.149 427.16,323.816 426.5,321.5C 429.86,321.384 433.193,321.051 436.5,320.5 Z"/></g>
<g><path style="opacity:1" fill="#acacac" d="M 179.5,345.5 C 173.549,346.925 167.549,347.759 161.5,348C 159.467,345.104 158.134,341.937 157.5,338.5C 164.72,334.639 171.887,330.639 179,326.5C 179.5,332.825 179.666,339.158 179.5,345.5 Z"/></g>
<g><path style="opacity:1" fill="#ddad86" d="M 394.5,336.5 C 392.167,338.167 390.167,340.167 388.5,342.5C 385.833,343.5 383.167,344.5 380.5,345.5C 378.586,343.714 376.252,342.714 373.5,342.5C 368.342,343.693 363.342,343.693 358.5,342.5C 359.749,340.864 361.416,339.697 363.5,339C 359.5,339 355.5,339 351.5,339C 350.167,338.333 350.167,337.667 351.5,337C 353.952,336.71 356.285,336.044 358.5,335C 355.158,335.544 351.825,335.377 348.5,334.5C 349.127,333.583 349.461,332.583 349.5,331.5C 350.453,329.39 352.119,328.223 354.5,328C 358.5,327.333 362.5,327.333 366.5,328C 371.167,330 375.833,332 380.5,334C 385.362,334.523 390.028,335.356 394.5,336.5 Z"/></g>
<g><path style="opacity:1" fill="#3c3c3c" d="M 182.5,324.5 C 181.867,336.586 182.534,348.419 184.5,360C 183.956,360.717 183.289,361.217 182.5,361.5C 181.18,349.069 181.18,336.735 182.5,324.5 Z"/></g>
<g><path style="opacity:1" fill="#a7a7a7" d="M 161.5,371.5 C 159.912,369.473 159.412,367.139 160,364.5C 166.109,358.877 172.609,353.877 179.5,349.5C 179.666,353.514 179.499,357.514 179,361.5C 178.5,362 178,362.5 177.5,363C 179.282,363.122 180.948,362.622 182.5,361.5C 183.289,361.217 183.956,360.717 184.5,360C 182.534,348.419 181.867,336.586 182.5,324.5C 186.701,321.9 191.034,319.566 195.5,317.5C 207.141,319.08 218.808,320.413 230.5,321.5C 230.5,325.167 230.5,328.833 230.5,332.5C 231.167,333.833 231.833,333.833 232.5,332.5C 233.332,306.67 233.832,280.67 234,254.5C 234.667,280.833 234.667,307.167 234,333.5C 226.542,338.642 218.709,342.809 210.5,346C 215.566,343.005 215.566,342.339 210.5,344C 209.672,344.915 208.672,345.581 207.5,346C 209.271,346.535 209.604,347.369 208.5,348.5C 204.167,351 199.833,353.5 195.5,356C 194.258,356.311 193.258,355.811 192.5,354.5C 190.833,355.333 189.167,356.167 187.5,357C 186.304,357.654 186.304,358.154 187.5,358.5C 188.833,357.833 190.167,357.167 191.5,356.5C 192.696,356.846 192.696,357.346 191.5,358C 185.003,361.414 178.67,365.081 172.5,369C 171.258,369.311 170.258,368.811 169.5,367.5C 166.807,368.847 164.14,370.18 161.5,371.5 Z"/></g>
<g><path style="opacity:1" fill="#b1aaa5" d="M 349.5,331.5 C 349.461,332.583 349.127,333.583 348.5,334.5C 351.825,335.377 355.158,335.544 358.5,335C 356.285,336.044 353.952,336.71 351.5,337C 350.167,337.667 350.167,338.333 351.5,339C 355.5,339 359.5,339 363.5,339C 361.416,339.697 359.749,340.864 358.5,342.5C 355.657,341.229 352.657,340.396 349.5,340C 345.533,337.034 345.533,334.201 349.5,331.5 Z"/></g>
<g><path style="opacity:1" fill="#464140" d="M 325.5,326.5 C 325.509,328.308 325.009,329.975 324,331.5C 311.484,343.916 296.984,346.749 280.5,340C 275.986,337.984 272.653,334.817 270.5,330.5C 280.706,339.887 292.706,343.054 306.5,340C 315.059,338.407 321.393,333.907 325.5,326.5 Z"/></g>
<g><path style="opacity:0.995" fill="#2c496b" d="M 388.5,342.5 C 395.402,341.867 400.569,344.534 404,350.5C 406.254,359.504 405.254,368.17 401,376.5C 396.138,385.197 389.972,392.864 382.5,399.5C 380.46,401.177 378.46,402.844 376.5,404.5C 374.297,404.604 372.297,405.27 370.5,406.5C 355.381,404.235 349.714,395.569 353.5,380.5C 355.511,377.139 357.511,373.806 359.5,370.5C 360.167,370.5 360.5,370.167 360.5,369.5C 361.167,369.5 361.5,369.167 361.5,368.5C 363.463,367.04 365.296,365.373 367,363.5C 370.293,356.576 374.793,350.576 380.5,345.5C 383.167,344.5 385.833,343.5 388.5,342.5 Z"/></g>
<g><path style="opacity:1" fill="#969696" d="M 157.5,338.5 C 158.134,341.937 159.467,345.104 161.5,348C 167.549,347.759 173.549,346.925 179.5,345.5C 179.5,346.833 179.5,348.167 179.5,349.5C 172.609,353.877 166.109,358.877 160,364.5C 159.412,367.139 159.912,369.473 161.5,371.5C 161.56,372.043 161.893,372.376 162.5,372.5C 164.729,371.037 167.063,370.203 169.5,370C 156.246,378.212 142.746,386.045 129,393.5C 128.536,392.906 128.369,392.239 128.5,391.5C 129.473,391.013 130.473,390.513 131.5,390C 130.179,377.896 130.179,365.729 131.5,353.5C 140.184,348.472 148.85,343.472 157.5,338.5 Z"/></g>
<g><path style="opacity:1" fill="#acacac" d="M 148.5,344.5 C 149.302,345.952 149.802,347.618 150,349.5C 150.704,358.838 151.038,368.172 151,377.5C 147.478,380.527 143.645,382.193 139.5,382.5C 142.506,369.796 145.506,357.13 148.5,344.5 Z"/></g>
<g><path style="opacity:1" fill="#cfb53b" d="M 382.5,347.5 C 389.071,346.424 392.404,349.091 392.5,355.5C 392.483,362.19 389.149,366.19 382.5,367.5C 377.8,366.632 375.466,363.798 375.5,359C 375.946,353.927 378.28,350.094 382.5,347.5 Z"/></g>
<g><path style="opacity:1" fill="#59332c" d="M 201.5,374.5 C 198.543,373.345 195.543,372.345 192.5,371.5C 191.89,370.609 191.557,369.609 191.5,368.5C 202.643,361.759 213.976,355.259 225.5,349C 229.797,349.134 233.797,350.467 237.5,353C 238.833,353.667 238.833,354.333 237.5,355C 225.606,361.779 213.606,368.279 201.5,374.5 Z"/></g>
<g><path style="opacity:0.983" fill="#b1bbc1" d="M 499.5,359.5 C 479.041,379.74 455.041,394.407 427.5,403.5C 422.345,401.928 417.345,399.762 412.5,397C 411.29,395.961 410.29,394.794 409.5,393.5C 409.859,391.629 410.859,390.129 412.5,389C 427.413,382.538 441.413,374.704 454.5,365.5C 460.915,361.259 466.915,356.426 472.5,351C 474.289,349.217 476.456,348.384 479,348.5C 486.097,350.796 492.93,353.796 499.5,357.5C 500.773,358.257 500.773,358.923 499.5,359.5 Z"/></g>
<g><path style="opacity:1" fill="#3d56ba" d="M 382.5,351.5 C 389.375,351.307 391.209,354.307 388,360.5C 383.818,364.83 380.651,364.163 378.5,358.5C 379.071,355.687 380.404,353.354 382.5,351.5 Z"/></g>
<g><path style="opacity:1" fill="#a5a4a3" d="M 353.5,345.5 C 357.939,347.554 362.272,349.887 366.5,352.5C 367.833,353.833 367.833,355.167 366.5,356.5C 351.94,364.608 337.607,372.941 323.5,381.5C 321.597,381.204 319.93,380.537 318.5,379.5C 333.761,371.558 348.761,363.225 363.5,354.5C 364.833,353.833 364.833,353.167 363.5,352.5C 359.75,350.637 356.417,348.303 353.5,345.5 Z"/></g>
<g><path style="opacity:1" fill="#5f5f5e" d="M 353.5,345.5 C 356.417,348.303 359.75,350.637 363.5,352.5C 364.833,353.167 364.833,353.833 363.5,354.5C 348.761,363.225 333.761,371.558 318.5,379.5C 317.761,379.631 317.094,379.464 316.5,379C 313.192,373.526 308.525,369.693 302.5,367.5C 301.41,368.391 301.41,369.391 302.5,370.5C 297.733,371.692 293.067,373.192 288.5,375C 286.461,377.385 286.461,379.552 288.5,381.5C 290.078,382.298 291.744,382.798 293.5,383C 293.167,383.333 292.833,383.667 292.5,384C 297.434,384.116 302.1,384.949 306.5,386.5C 302.389,389.396 298.055,392.063 293.5,394.5C 284.981,389.499 276.314,384.666 267.5,380C 266.167,379.333 266.167,378.667 267.5,378C 290.54,364.935 313.54,351.935 336.5,339C 337.833,338.333 339.167,338.333 340.5,339C 344.306,342.214 348.639,344.38 353.5,345.5 Z"/></g>
<g><path style="opacity:0.99" fill="#7c8f9b" d="M 499.5,359.5 C 490.235,393.625 480.569,427.625 470.5,461.5C 444.327,476.087 417.993,490.421 391.5,504.5C 401.557,474.497 411.723,444.497 422,414.5C 423.188,410.387 425.021,406.72 427.5,403.5C 455.041,394.407 479.041,379.74 499.5,359.5 Z"/></g>
<g><path style="opacity:1" fill="#40403f" d="M 190.5,365.5 C 191.11,366.391 191.443,367.391 191.5,368.5C 191.557,369.609 191.89,370.609 192.5,371.5C 192.756,373.792 192.423,375.959 191.5,378C 185.806,381.179 180.139,384.345 174.5,387.5C 173.344,383.555 172.844,379.555 173,375.5C 178.807,372.017 184.64,368.683 190.5,365.5 Z"/></g>
<g><path style="opacity:0.983" fill="#dcad87" d="M 318.5,379.5 C 319.93,380.537 321.597,381.204 323.5,381.5C 326.799,383.483 330.466,384.483 334.5,384.5C 334.833,384.5 335.167,384.5 335.5,384.5C 338.391,385.403 341.391,385.736 344.5,385.5C 345.167,385.5 345.833,385.5 346.5,385.5C 343.396,391.534 342.73,397.868 344.5,404.5C 344.038,405.88 343.038,406.547 341.5,406.5C 339.577,405.908 337.911,404.908 336.5,403.5C 336.047,402.542 335.381,401.708 334.5,401C 329.148,398.661 324.148,395.828 319.5,392.5C 318.738,390.738 317.404,389.738 315.5,389.5C 314.713,387.896 313.38,387.229 311.5,387.5C 309.784,387.371 308.117,387.038 306.5,386.5C 302.1,384.949 297.434,384.116 292.5,384C 292.833,383.667 293.167,383.333 293.5,383C 291.744,382.798 290.078,382.298 288.5,381.5C 286.461,379.552 286.461,377.385 288.5,375C 293.067,373.192 297.733,371.692 302.5,370.5C 301.41,369.391 301.41,368.391 302.5,367.5C 308.525,369.693 313.192,373.526 316.5,379C 317.094,379.464 317.761,379.631 318.5,379.5 Z"/></g>
<g><path style="opacity:1" fill="#acacac" d="M 192.5,371.5 C 195.543,372.345 198.543,373.345 201.5,374.5C 204.804,376.973 207.638,379.973 210,383.5C 210.694,387.554 210.527,391.554 209.5,395.5C 199.475,405.338 187.475,408.838 173.5,406C 166.382,404.375 160.382,400.875 155.5,395.5C 155.167,394.167 154.833,392.833 154.5,391.5C 154.244,389.208 154.577,387.041 155.5,385C 159.34,382.579 163.34,380.412 167.5,378.5C 167.833,379 168.167,379.5 168.5,380C 165.42,384.93 166.087,389.263 170.5,393C 178.5,397.667 186.5,397.667 194.5,393C 199.795,388.412 199.795,383.912 194.5,379.5C 195.019,381.436 194.353,383.269 192.5,385C 187.048,388.393 181.381,391.226 175.5,393.5C 175.167,391.5 174.833,389.5 174.5,387.5C 180.139,384.345 185.806,381.179 191.5,378C 192.423,375.959 192.756,373.792 192.5,371.5 Z"/></g>
<g><path style="opacity:1" fill="#263e5b" d="M 378.5,370.5 C 380.693,369.203 383.027,369.203 385.5,370.5C 380.961,380.361 378.128,390.694 377,401.5C 370.936,402.867 365.103,402.034 359.5,399C 358.02,397.701 357.354,396.034 357.5,394C 357.964,387.614 359.797,381.781 363,376.5C 368.162,379.202 373.662,380.036 379.5,379C 381.105,376.457 382.438,373.791 383.5,371C 381.866,370.506 380.199,370.34 378.5,370.5 Z"/></g>
<g><path style="opacity:1" fill="#7d7e7f" d="M 351.5,373.5 C 351.5,375.833 351.5,378.167 351.5,380.5C 350.167,382.5 348.5,384.167 346.5,385.5C 345.833,385.5 345.167,385.5 344.5,385.5C 344.802,382.941 344.468,380.607 343.5,378.5C 346.131,376.847 348.797,375.181 351.5,373.5 Z"/></g>
<g><path style="opacity:1" fill="#d5d3d2" d="M 343.5,378.5 C 344.468,380.607 344.802,382.941 344.5,385.5C 341.391,385.736 338.391,385.403 335.5,384.5C 335.5,384.167 335.5,383.833 335.5,383.5C 337.629,381.05 340.296,379.383 343.5,378.5 Z"/></g>
<g><path style="opacity:0.998" fill="#4d81bc" d="M 351.5,380.5 C 352.167,380.5 352.833,380.5 353.5,380.5C 349.714,395.569 355.381,404.235 370.5,406.5C 370.141,408.371 369.141,409.871 367.5,411C 357.394,416.231 349.727,414.064 344.5,404.5C 342.73,397.868 343.396,391.534 346.5,385.5C 348.5,384.167 350.167,382.5 351.5,380.5 Z"/></g>
<g><path style="opacity:1" fill="#a5a4a4" d="M 353.5,345.5 C 348.639,344.38 344.306,342.214 340.5,339C 339.167,338.333 337.833,338.333 336.5,339C 313.54,351.935 290.54,364.935 267.5,378C 266.167,378.667 266.167,379.333 267.5,380C 276.314,384.666 284.981,389.499 293.5,394.5C 298.055,392.063 302.389,389.396 306.5,386.5C 308.117,387.038 309.784,387.371 311.5,387.5C 307.063,390.559 302.397,393.392 297.5,396C 295.167,396.667 292.833,396.667 290.5,396C 281.706,391.367 273.039,386.534 264.5,381.5C 263.167,380.167 263.167,378.833 264.5,377.5C 288.167,364 311.833,350.5 335.5,337C 342.375,337.937 348.375,340.77 353.5,345.5 Z"/></g>
<g><path style="opacity:0.997" fill="#8f9fab" d="M 409.5,393.5 C 410.29,394.794 411.29,395.961 412.5,397C 417.345,399.762 422.345,401.928 427.5,403.5C 425.021,406.72 423.188,410.387 422,414.5C 411.723,444.497 401.557,474.497 391.5,504.5C 391.5,510.833 391.5,517.167 391.5,523.5C 387.504,521.836 383.504,520.169 379.5,518.5C 373.252,515.307 366.919,512.307 360.5,509.5C 350.844,504.005 340.844,499.005 330.5,494.5C 322.91,491.789 316.41,487.456 311,481.5C 310.176,471.991 310.342,462.657 311.5,453.5C 312.826,457.67 315.492,460.837 319.5,463C 337.167,472.167 354.833,481.333 372.5,490.5C 372.24,485.271 373.573,480.271 376.5,475.5C 387.129,447.931 398.129,420.598 409.5,393.5 Z"/></g>
<g><path style="opacity:1" fill="#454240" d="M 155.5,395.5 C 160.382,400.875 166.382,404.375 173.5,406C 187.475,408.838 199.475,405.338 209.5,395.5C 209.067,398.195 207.734,400.362 205.5,402C 198.472,407.008 190.639,409.175 182,408.5C 173.609,409.369 166.109,407.202 159.5,402C 157.266,400.362 155.933,398.195 155.5,395.5 Z"/></g>
<g><path style="opacity:0.997" fill="#53312b" d="M 315.5,389.5 C 317.404,389.738 318.738,390.738 319.5,392.5C 281.005,413.913 242.671,435.58 204.5,457.5C 204.062,456.494 203.396,456.494 202.5,457.5C 200.463,458.846 198.463,460.18 196.5,461.5C 193.711,462.151 191.044,461.484 188.5,459.5C 171.635,449.568 154.635,439.902 137.5,430.5C 137.167,429.5 136.5,428.833 135.5,428.5C 134.035,427.263 132.368,426.263 130.5,425.5C 127.661,423.58 124.661,421.913 121.5,420.5C 116.945,417.971 112.445,415.304 108,412.5C 107.211,410.288 107.378,408.288 108.5,406.5C 136.486,424.166 165.153,440.832 194.5,456.5C 234.69,433.905 275.023,411.572 315.5,389.5 Z"/></g>
<g><path style="opacity:0.82" fill="#adadad" d="M 121.5,420.5 C 124.661,421.913 127.661,423.58 130.5,425.5C 131.16,461.849 130.494,497.849 128.5,533.5C 128.667,498.498 128.5,463.498 128,428.5C 126.89,426.963 125.39,426.297 123.5,426.5C 123.5,461.5 123.5,496.5 123.5,531.5C 123.167,531.5 122.833,531.5 122.5,531.5C 121.502,494.67 121.168,457.67 121.5,420.5 Z"/></g>
<g><path style="opacity:1" fill="#717171" d="M 130.5,425.5 C 132.368,426.263 134.035,427.263 135.5,428.5C 135.168,463.004 135.502,497.337 136.5,531.5C 137.725,537.275 135.392,539.941 129.5,539.5C 123.608,539.941 121.275,537.275 122.5,531.5C 122.833,531.5 123.167,531.5 123.5,531.5C 124.635,533.213 126.302,533.88 128.5,533.5C 130.494,497.849 131.16,461.849 130.5,425.5 Z"/></g>
<g><path style="opacity:1" fill="#ededed" d="M 128.5,533.5 C 126.302,533.88 124.635,533.213 123.5,531.5C 123.5,496.5 123.5,461.5 123.5,426.5C 125.39,426.297 126.89,426.963 128,428.5C 128.5,463.498 128.667,498.498 128.5,533.5 Z"/></g>
<g><path style="opacity:0.81" fill="#aeaeae" d="M 135.5,428.5 C 136.5,428.833 137.167,429.5 137.5,430.5C 137.832,464.337 137.498,498.004 136.5,531.5C 135.502,497.337 135.168,463.004 135.5,428.5 Z"/></g>
<g><path style="opacity:1" fill="#b0bac0" d="M 376.5,475.5 C 373.573,480.271 372.24,485.271 372.5,490.5C 354.833,481.333 337.167,472.167 319.5,463C 315.492,460.837 312.826,457.67 311.5,453.5C 311.76,451.405 312.926,450.072 315,449.5C 321.65,452.151 327.817,455.651 333.5,460C 337.653,462.079 341.986,463.579 346.5,464.5C 346.33,465.822 346.663,466.989 347.5,468C 351.167,468.333 354.833,468.667 358.5,469C 364.223,472.033 370.223,474.199 376.5,475.5 Z"/></g>
<g><path style="opacity:0.939" fill="#aeaeae" d="M 204.5,457.5 C 204.5,494.833 204.5,532.167 204.5,569.5C 202.506,532.515 201.84,495.182 202.5,457.5C 203.396,456.494 204.062,456.494 204.5,457.5 Z"/></g>
<g><path style="opacity:1" fill="#707070" d="M 202.5,457.5 C 201.84,495.182 202.506,532.515 204.5,569.5C 204.917,574.916 202.417,577.583 197,577.5C 191.246,577.912 188.746,575.245 189.5,569.5C 189.833,569.5 190.167,569.5 190.5,569.5C 191.635,571.213 193.302,571.88 195.5,571.5C 196.833,553.512 197.5,535.179 197.5,516.5C 197.5,497.997 197.167,479.664 196.5,461.5C 198.463,460.18 200.463,458.846 202.5,457.5 Z"/></g>
<g><path style="opacity:0.82" fill="#aeaeae" d="M 188.5,459.5 C 191.044,461.484 193.711,462.151 196.5,461.5C 197.167,479.664 197.5,497.997 197.5,516.5C 197.5,535.179 196.833,553.512 195.5,571.5C 195.667,536.498 195.5,501.498 195,466.5C 193.644,465.62 192.144,465.286 190.5,465.5C 190.5,500.167 190.5,534.833 190.5,569.5C 190.167,569.5 189.833,569.5 189.5,569.5C 188.507,532.906 188.173,496.239 188.5,459.5 Z"/></g>
<g><path style="opacity:0.962" fill="#a3aeb8" d="M 470.5,461.5 C 470.666,468.175 470.5,474.842 470,481.5C 469.535,482.931 468.701,484.097 467.5,485C 443.515,498.907 419.348,512.407 395,525.5C 393.744,525.352 392.577,525.018 391.5,524.5C 391.5,524.167 391.5,523.833 391.5,523.5C 391.5,517.167 391.5,510.833 391.5,504.5C 417.993,490.421 444.327,476.087 470.5,461.5 Z"/></g>
<g><path style="opacity:1" fill="#ededed" d="M 195.5,571.5 C 193.302,571.88 191.635,571.213 190.5,569.5C 190.5,534.833 190.5,500.167 190.5,465.5C 192.144,465.286 193.644,465.62 195,466.5C 195.5,501.498 195.667,536.498 195.5,571.5 Z"/></g>
<g><path style="opacity:0.779" fill="#5b5e59" d="M 305.5,493.5 C 306.492,493.328 307.158,493.662 307.5,494.5C 307.585,496.929 308.585,498.929 310.5,500.5C 309.397,500.998 308.397,501.331 307.5,501.5C 309.976,504.853 309.476,505.186 306,502.5C 305.735,504.163 306.235,505.663 307.5,507C 305.591,507.448 304.424,506.615 304,504.5C 303.504,506.035 303.67,507.535 304.5,509C 304.167,509.5 303.833,510 303.5,510.5C 302.719,509.271 302.219,507.938 302,506.5C 302.007,512.704 301.007,513.37 299,508.5C 298.163,514.837 297.497,514.503 297,507.5C 296.138,509.087 295.471,510.754 295,512.5C 294.109,509.502 294.609,506.836 296.5,504.5C 298.788,503.926 300.955,502.926 303,501.5C 303.782,498.69 304.616,496.023 305.5,493.5 Z"/></g>
<g><path style="opacity:0.97" fill="#383838" d="M 307.5,494.5 C 313.508,500.449 320.508,501.949 328.5,499C 330.037,497.89 330.703,496.39 330.5,494.5C 340.844,499.005 350.844,504.005 360.5,509.5C 361.404,516.759 358.237,520.426 351,520.5C 346.32,520.385 342.153,518.885 338.5,516C 337.167,514 335.833,512 334.5,510C 331.828,509.166 329.161,508.332 326.5,507.5C 326.167,508.5 325.833,509.5 325.5,510.5C 327.323,518.087 328.156,525.754 328,533.5C 327.691,534.766 327.191,535.933 326.5,537C 316.655,541.067 308.988,538.567 303.5,529.5C 297.221,527.18 290.888,525.013 284.5,523C 276.16,516.647 275.493,509.647 282.5,502C 287.585,500.269 292.251,501.102 296.5,504.5C 294.609,506.836 294.109,509.502 295,512.5C 295.471,510.754 296.138,509.087 297,507.5C 297.497,514.503 298.163,514.837 299,508.5C 301.007,513.37 302.007,512.704 302,506.5C 302.219,507.938 302.719,509.271 303.5,510.5C 303.833,510 304.167,509.5 304.5,509C 303.67,507.535 303.504,506.035 304,504.5C 304.424,506.615 305.591,507.448 307.5,507C 306.235,505.663 305.735,504.163 306,502.5C 309.476,505.186 309.976,504.853 307.5,501.5C 308.397,501.331 309.397,500.998 310.5,500.5C 308.585,498.929 307.585,496.929 307.5,494.5 Z"/></g>
<g><path style="opacity:0.95" fill="#717171" d="M 379.5,518.5 C 383.504,520.169 387.504,521.836 391.5,523.5C 391.5,523.833 391.5,524.167 391.5,524.5C 391.5,527.833 391.5,531.167 391.5,534.5C 393.641,543.693 390.308,547.027 381.5,544.5C 380.76,541.134 380.093,537.8 379.5,534.5C 379.5,529.167 379.5,523.833 379.5,518.5 Z"/></g>
<g><path style="opacity:0.93" fill="#c2c2c2" d="M 379.5,534.5 C 380.093,537.8 380.76,541.134 381.5,544.5C 390.308,547.027 393.641,543.693 391.5,534.5C 399.742,530.619 408.408,529.119 417.5,530C 419.898,531.524 422.231,533.024 424.5,534.5C 413.756,534.705 403.756,537.538 394.5,543C 395.527,543.513 396.527,544.013 397.5,544.5C 407.763,551.773 416.429,560.107 423.5,569.5C 420.534,571.021 417.534,572.188 414.5,573C 406.176,563.171 396.51,555.004 385.5,548.5C 380.386,551.771 375.386,555.271 370.5,559C 365.631,564.037 360.631,568.87 355.5,573.5C 353.062,571.733 350.395,570.399 347.5,569.5C 348.412,567.405 349.579,565.405 351,563.5C 358.29,556.464 365.79,549.797 373.5,543.5C 374.552,543.649 375.552,543.483 376.5,543C 367.552,537.846 357.885,535.346 347.5,535.5C 346.668,534.671 347.001,533.838 348.5,533C 351.815,530.673 355.481,529.507 359.5,529.5C 366.5,529.947 373.167,531.613 379.5,534.5 Z"/></g>
<g><path style="opacity:1" fill="#bfbfbf" d="M 388.5,534.5 C 389.638,537.304 389.805,540.304 389,543.5C 387.301,544.406 385.467,544.739 383.5,544.5C 383.338,542.473 383.505,540.473 384,538.5C 385.667,537.267 387.167,535.933 388.5,534.5 Z"/></g>
<g><path style="opacity:0.872" fill="#262625" d="M 347.5,536.5 C 353.585,536.291 356.251,539.291 355.5,545.5C 352.898,546.969 350.731,546.302 349,543.5C 347.798,541.323 347.298,538.989 347.5,536.5 Z"/></g>
<g><path style="opacity:0.716" fill="#727272" d="M 347.5,536.5 C 347.5,536.167 347.5,535.833 347.5,535.5C 357.885,535.346 367.552,537.846 376.5,543C 375.552,543.483 374.552,543.649 373.5,543.5C 369.968,542.267 366.468,540.933 363,539.5C 361.005,542.087 358.505,544.087 355.5,545.5C 356.251,539.291 353.585,536.291 347.5,536.5 Z"/></g>
<g><path style="opacity:0.844" fill="#757575" d="M 424.5,534.5 C 422.232,547.153 416.565,548.82 407.5,539.5C 403.887,540.802 400.554,542.469 397.5,544.5C 396.527,544.013 395.527,543.513 394.5,543C 403.756,537.538 413.756,534.705 424.5,534.5 Z"/></g>
<g><path style="opacity:0.593" fill="#747473" d="M 423.5,569.5 C 423.367,571.972 423.2,574.639 423,577.5C 420.722,578.719 418.555,580.052 416.5,581.5C 416.662,579.473 416.495,577.473 416,575.5C 413.931,573.915 411.764,572.581 409.5,571.5C 402.696,563.103 394.696,556.103 385.5,550.5C 377.351,556.002 369.851,562.335 363,569.5C 363.642,572.957 362.976,576.29 361,579.5C 359.3,581.299 357.467,581.632 355.5,580.5C 355.5,578.167 355.5,575.833 355.5,573.5C 360.631,568.87 365.631,564.037 370.5,559C 375.386,555.271 380.386,551.771 385.5,548.5C 396.51,555.004 406.176,563.171 414.5,573C 417.534,572.188 420.534,571.021 423.5,569.5 Z"/></g>
<g><path style="opacity:0.848" fill="#232322" d="M 409.5,571.5 C 411.764,572.581 413.931,573.915 416,575.5C 416.495,577.473 416.662,579.473 416.5,581.5C 409.742,581.327 407.409,577.993 409.5,571.5 Z"/></g>
<g><path style="opacity:0.873" fill="#3a3937" d="M 347.5,569.5 C 350.395,570.399 353.062,571.733 355.5,573.5C 355.5,575.833 355.5,578.167 355.5,580.5C 353.219,579.392 351.052,578.058 349,576.5C 348.71,574.08 348.21,571.746 347.5,569.5 Z"/></g>
</svg>
