<?xml version="1.0" encoding="UTF-8"?>
<!DOCTYPE svg PUBLIC "-//W3C//DTD SVG 1.1//EN" "http://www.w3.org/Graphics/SVG/1.1/DTD/svg11.dtd">
<svg xmlns="http://www.w3.org/2000/svg" version="1.1" width="607px" height="680px" style="shape-rendering:geometricPrecision; text-rendering:geometricPrecision; image-rendering:optimizeQuality; fill-rule:evenodd; clip-rule:evenodd" xmlns:xlink="http://www.w3.org/1999/xlink">
<g><path style="opacity:0.986" fill="#d8dde8" d="M 427.5,90.5 C 411.846,83.9296 395.513,81.2629 378.5,82.5C 356.334,83.6667 338.167,92.6667 324,109.5C 320.316,115.198 317.482,121.198 315.5,127.5C 310.702,113.569 304.536,100.236 297,87.5C 289.419,60.907 296.919,39.7403 319.5,24C 335.798,16.7333 352.132,16.7333 368.5,24C 395.822,39.4821 415.489,61.6488 427.5,90.5 Z"/></g>
<g><path style="opacity:0.804" fill="#8a3a76" d="M 159.5,51.5 C 155.43,53.9543 153.097,57.6209 152.5,62.5C 150.705,63.2651 148.872,63.9318 147,64.5C 145.97,64.1639 145.47,63.4972 145.5,62.5C 147.772,61.277 148.939,59.277 149,56.5C 151.55,52.8083 155.05,51.1416 159.5,51.5 Z"/></g>
<g><path style="opacity:0.976" fill="#fc8299" d="M 174.5,60.5 C 175.097,61.1386 175.93,61.472 177,61.5C 179.134,60.0457 181.301,58.5457 183.5,57C 185.81,56.5034 188.143,56.3367 190.5,56.5C 195.755,59.078 197.422,63.2447 195.5,69C 195.639,70.301 196.305,71.1344 197.5,71.5C 197.557,72.609 197.89,73.609 198.5,74.5C 194.167,77.8333 189.833,81.1667 185.5,84.5C 180.471,80.8253 174.805,78.492 168.5,77.5C 167.584,77.5427 166.917,77.8761 166.5,78.5C 147.447,79.7145 135.947,89.7145 132,108.5C 131.268,114.61 131.768,120.61 133.5,126.5C 127.729,130.424 122.063,134.591 116.5,139C 114.859,140.129 113.859,141.629 113.5,143.5C 112.387,142.054 112.22,140.387 113,138.5C 114.129,135.735 115.629,133.235 117.5,131C 116.767,129.234 116.433,127.401 116.5,125.5C 107.604,124.705 104.437,120.038 107,111.5C 109.019,108.288 111.853,106.622 115.5,106.5C 115.723,104.658 116.057,102.825 116.5,101C 115.799,98.6196 114.633,96.4529 113,94.5C 110.754,87.6702 112.921,83.0035 119.5,80.5C 120.167,80.5 120.833,80.5 121.5,80.5C 123.46,81.1383 125.293,81.1383 127,80.5C 128.182,78.6564 129.349,76.8231 130.5,75C 128.105,67.6273 130.438,62.4607 137.5,59.5C 140.446,59.8975 143.113,60.8975 145.5,62.5C 145.47,63.4972 145.97,64.1639 147,64.5C 148.872,63.9318 150.705,63.2651 152.5,62.5C 153.097,57.6209 155.43,53.9543 159.5,51.5C 166.903,49.8982 170.903,52.8982 171.5,60.5C 172.5,60.5 173.5,60.5 174.5,60.5 Z"/></g>
<g><path style="opacity:0.8" fill="#8e3c77" d="M 190.5,56.5 C 188.143,56.3367 185.81,56.5034 183.5,57C 181.301,58.5457 179.134,60.0457 177,61.5C 175.93,61.472 175.097,61.1386 174.5,60.5C 177.064,54.9356 181.397,53.1023 187.5,55C 188.737,55.2321 189.737,55.7321 190.5,56.5 Z"/></g>
<g><path style="opacity:0.824" fill="#8b3a76" d="M 137.5,59.5 C 130.438,62.4607 128.105,67.6273 130.5,75C 129.349,76.8231 128.182,78.6564 127,80.5C 125.293,81.1383 123.46,81.1383 121.5,80.5C 122.228,78.2654 123.561,76.4321 125.5,75C 122.548,64.4519 126.548,59.2853 137.5,59.5 Z"/></g>
<g><path style="opacity:0.685" fill="#903d77" d="M 211.5,74.5 C 207.182,73.2463 202.848,73.2463 198.5,74.5C 197.89,73.609 197.557,72.609 197.5,71.5C 203.007,69.3719 207.674,70.3719 211.5,74.5 Z"/></g>
<g><path style="opacity:0.802" fill="#8c3a77" d="M 119.5,80.5 C 112.921,83.0035 110.754,87.6702 113,94.5C 114.633,96.4529 115.799,98.6196 116.5,101C 116.057,102.825 115.723,104.658 115.5,106.5C 111.853,106.622 109.019,108.288 107,111.5C 104.437,120.038 107.604,124.705 116.5,125.5C 116.433,127.401 116.767,129.234 117.5,131C 115.629,133.235 114.129,135.735 113,138.5C 112.22,140.387 112.387,142.054 113.5,143.5C 114.099,147.095 116.099,149.428 119.5,150.5C 109.555,149.931 106.055,144.931 109,135.5C 109.785,133.714 110.951,132.214 112.5,131C 111.773,129.601 111.273,128.101 111,126.5C 100.155,123.131 97.9882,116.798 104.5,107.5C 106.323,106.253 108.323,105.586 110.5,105.5C 112.633,101.401 111.799,98.0681 108,95.5C 105.269,88.6932 107.102,83.5265 113.5,80C 115.712,79.2109 117.712,79.3775 119.5,80.5 Z"/></g>
<g><path style="opacity:1" fill="#8b3b75" d="M 166.5,78.5 C 166.917,77.8761 167.584,77.5427 168.5,77.5C 174.805,78.492 180.471,80.8253 185.5,84.5C 196.579,97.5394 198.413,111.873 191,127.5C 182.433,141.204 170.266,146.87 154.5,144.5C 173.411,143.465 185.244,133.799 190,115.5C 191.966,101.615 187.466,90.4487 176.5,82C 173.395,80.1319 170.062,78.9652 166.5,78.5 Z"/></g>
<g><path style="opacity:1" fill="#fe8d89" d="M 378.5,82.5 C 395.513,81.2629 411.846,83.9296 427.5,90.5C 430.032,91.5957 432.365,92.9291 434.5,94.5C 422.632,101.263 410.965,108.263 399.5,115.5C 392.243,112.538 385.243,109.038 378.5,105C 376.833,104.333 375.167,104.333 373.5,105C 372.518,113.081 372.184,121.248 372.5,129.5C 360.204,129.435 350.37,124.435 343,114.5C 340.807,110.77 338.64,107.103 336.5,103.5C 348.093,91.7037 362.093,84.7037 378.5,82.5 Z"/></g>
<g><path style="opacity:0.966" fill="#8c3e78" d="M 378.5,82.5 C 362.093,84.7037 348.093,91.7037 336.5,103.5C 322.341,118.923 319.675,136.256 328.5,155.5C 332.454,162.751 337.787,168.751 344.5,173.5C 356.277,182.722 369.611,188.055 384.5,189.5C 359.576,189.202 339.242,179.535 323.5,160.5C 316.921,150.518 314.255,139.518 315.5,127.5C 317.482,121.198 320.316,115.198 324,109.5C 338.167,92.6667 356.334,83.6667 378.5,82.5 Z"/></g>
<g><path style="opacity:0.982" fill="#fe8892" d="M 434.5,94.5 C 441.103,98.1367 446.436,103.137 450.5,109.5C 440.63,115.264 430.963,121.264 421.5,127.5C 413.812,123.992 406.478,119.992 399.5,115.5C 410.965,108.263 422.632,101.263 434.5,94.5 Z"/></g>
<g><path style="opacity:0.97" fill="#fd898e" d="M 211.5,74.5 C 215.804,80.5267 215.137,86.0267 209.5,91C 210.24,92.7849 210.907,94.6183 211.5,96.5C 220.346,98.5211 223.179,103.854 220,112.5C 218.082,115.428 215.415,117.094 212,117.5C 211.578,119.355 211.078,121.189 210.5,123C 216.678,128.717 217.011,134.717 211.5,141C 207.954,142.174 204.287,142.84 200.5,143C 199.667,143.833 198.833,144.667 198,145.5C 197.667,149.5 197.333,153.5 197,157.5C 193.905,162.247 189.739,163.914 184.5,162.5C 183.166,160.841 181.499,159.508 179.5,158.5C 177.962,158.453 176.962,159.12 176.5,160.5C 175.504,160.414 174.671,160.748 174,161.5C 173.016,169.887 168.516,173.221 160.5,171.5C 157.277,169.054 155.61,165.72 155.5,161.5C 153.5,161.5 151.5,161.5 149.5,161.5C 147.641,163.85 145.308,165.684 142.5,167C 140.071,167.703 137.738,167.537 135.5,166.5C 131.502,162.747 130.502,158.247 132.5,153C 130.946,151.108 129.112,149.608 127,148.5C 125.699,148.639 124.866,149.305 124.5,150.5C 122.833,150.5 121.167,150.5 119.5,150.5C 116.099,149.428 114.099,147.095 113.5,143.5C 113.859,141.629 114.859,140.129 116.5,139C 122.063,134.591 127.729,130.424 133.5,126.5C 138.065,135.403 145.065,141.403 154.5,144.5C 170.266,146.87 182.433,141.204 191,127.5C 198.413,111.873 196.579,97.5394 185.5,84.5C 189.833,81.1667 194.167,77.8333 198.5,74.5C 202.848,73.2463 207.182,73.2463 211.5,74.5 Z"/></g>
<g><path style="opacity:0.948" fill="#5e3269" d="M 276.5,119.5 C 275.78,116.94 274.113,115.107 271.5,114C 266.833,113.333 262.167,113.333 257.5,114C 256.897,115.825 256.23,117.659 255.5,119.5C 254.378,118.37 253.044,117.703 251.5,117.5C 249.674,111.94 250.341,106.773 253.5,102C 259.875,100.993 266.209,99.6596 272.5,98C 275.968,96.0302 279.301,93.8635 282.5,91.5C 283.478,91.9767 284.311,92.6433 285,93.5C 286.141,100.816 285.141,107.816 282,114.5C 280.945,117.056 279.112,118.723 276.5,119.5 Z"/></g>
<g><path style="opacity:0.982" fill="#fec344" d="M 495.5,104.5 C 491.973,138.637 484.806,171.97 474,204.5C 474.2,180.008 469.367,156.675 459.5,134.5C 459.453,131.432 458.953,128.432 458,125.5C 456.306,120.235 454.139,115.235 451.5,110.5C 465.38,101.739 480.046,99.7385 495.5,104.5 Z"/></g>
<g><path style="opacity:1" fill="#fffdfe" d="M 399.5,115.5 C 406.478,119.992 413.812,123.992 421.5,127.5C 422.537,129.738 422.703,132.071 422,134.5C 416.729,138.549 411.229,142.216 405.5,145.5C 402.447,136.949 396.447,131.783 387.5,130C 382.511,129.501 377.511,129.334 372.5,129.5C 372.184,121.248 372.518,113.081 373.5,105C 375.167,104.333 376.833,104.333 378.5,105C 385.243,109.038 392.243,112.538 399.5,115.5 Z"/></g>
<g><path style="opacity:0.975" fill="#fec244" d="M 497.5,104.5 C 521.585,114.604 531.585,132.604 527.5,158.5C 525,174.164 522.5,189.831 520,205.5C 519.138,215.253 519.638,224.919 521.5,234.5C 508.015,224.25 494.682,213.75 481.5,203C 480.255,202.209 478.922,201.709 477.5,201.5C 487.278,169.838 493.945,137.504 497.5,104.5 Z"/></g>
<g><path style="opacity:0.97" fill="#fdc045" d="M 276.5,119.5 C 276.311,126.786 273.311,132.453 267.5,136.5C 266.5,136.5 265.5,136.5 264.5,136.5C 260.696,135.218 257.529,132.885 255,129.5C 254.823,133.356 254.323,137.023 253.5,140.5C 250.908,138.964 249.908,136.631 250.5,133.5C 252.058,128.976 251.724,124.643 249.5,120.5C 249.453,118.962 250.12,117.962 251.5,117.5C 253.044,117.703 254.378,118.37 255.5,119.5C 256.23,117.659 256.897,115.825 257.5,114C 262.167,113.333 266.833,113.333 271.5,114C 274.113,115.107 275.78,116.94 276.5,119.5 Z"/></g>
<g><path style="opacity:1" fill="#fd7878" d="M 336.5,103.5 C 338.64,107.103 340.807,110.77 343,114.5C 350.37,124.435 360.204,129.435 372.5,129.5C 372.5,130.167 372.5,130.833 372.5,131.5C 359.696,138.737 347.029,146.237 334.5,154C 332.655,155.128 330.655,155.628 328.5,155.5C 319.675,136.256 322.341,118.923 336.5,103.5 Z"/></g>
<g><path style="opacity:1" fill="#fd8399" d="M 450.5,109.5 C 451.167,109.5 451.5,109.833 451.5,110.5C 454.139,115.235 456.306,120.235 458,125.5C 458.953,128.432 459.453,131.432 459.5,134.5C 459.5,136.5 459.5,138.5 459.5,140.5C 459.5,141.167 459.167,141.5 458.5,141.5C 458.808,139.076 458.474,136.743 457.5,134.5C 440.918,144.041 424.418,153.707 408,163.5C 407.517,164.448 407.351,165.448 407.5,166.5C 406.755,159.915 405.422,153.581 403.5,147.5C 404.167,146.833 404.833,146.167 405.5,145.5C 411.229,142.216 416.729,138.549 422,134.5C 422.703,132.071 422.537,129.738 421.5,127.5C 430.963,121.264 440.63,115.264 450.5,109.5 Z"/></g>
<g><path style="opacity:1" fill="#fd7480" d="M 372.5,131.5 C 373.203,140.149 373.536,148.815 373.5,157.5C 363.833,162.833 354.167,168.167 344.5,173.5C 337.787,168.751 332.454,162.751 328.5,155.5C 330.655,155.628 332.655,155.128 334.5,154C 347.029,146.237 359.696,138.737 372.5,131.5 Z"/></g>
<g><path style="opacity:0.963" fill="#6365d7" d="M 250.5,133.5 C 249.908,136.631 250.908,138.964 253.5,140.5C 260.159,146.924 263.826,145.591 264.5,136.5C 265.5,136.5 266.5,136.5 267.5,136.5C 281.426,142.936 290.593,153.603 295,168.5C 297.426,181.947 301.926,194.613 308.5,206.5C 306.801,206.34 305.134,206.506 303.5,207C 302.438,210.047 301.105,212.88 299.5,215.5C 299.474,210.733 298.807,206.066 297.5,201.5C 296.247,193.553 294.581,185.72 292.5,178C 281.833,177.833 271.167,177.667 260.5,177.5C 240.824,178.063 221.157,178.729 201.5,179.5C 203.806,165.72 209.806,153.887 219.5,144C 228.468,136.67 238.801,133.17 250.5,133.5 Z"/></g>
<g><path style="opacity:1" fill="#f6944f" d="M 264.5,136.5 C 263.826,145.591 260.159,146.924 253.5,140.5C 254.323,137.023 254.823,133.356 255,129.5C 257.529,132.885 260.696,135.218 264.5,136.5 Z"/></g>
<g><path style="opacity:1" fill="#fd7f9f" d="M 458.5,141.5 C 456.745,156.762 449.412,168.595 436.5,177C 430.872,180.648 424.872,183.481 418.5,185.5C 412.734,180.396 409.067,174.063 407.5,166.5C 407.351,165.448 407.517,164.448 408,163.5C 424.418,153.707 440.918,144.041 457.5,134.5C 458.474,136.743 458.808,139.076 458.5,141.5 Z"/></g>
<g><path style="opacity:1" fill="#ffd9de" d="M 372.5,129.5 C 377.511,129.334 382.511,129.501 387.5,130C 396.447,131.783 402.447,136.949 405.5,145.5C 404.833,146.167 404.167,146.833 403.5,147.5C 395.195,152.99 386.862,158.49 378.5,164C 374.194,164.172 372.527,162.006 373.5,157.5C 373.536,148.815 373.203,140.149 372.5,131.5C 372.5,130.833 372.5,130.167 372.5,129.5 Z"/></g>
<g><path style="opacity:1" fill="#fc7088" d="M 403.5,147.5 C 405.422,153.581 406.755,159.915 407.5,166.5C 409.067,174.063 412.734,180.396 418.5,185.5C 417.391,185.557 416.391,185.89 415.5,186.5C 408.942,188.148 402.275,189.148 395.5,189.5C 391.833,189.5 388.167,189.5 384.5,189.5C 369.611,188.055 356.277,182.722 344.5,173.5C 354.167,168.167 363.833,162.833 373.5,157.5C 372.527,162.006 374.194,164.172 378.5,164C 386.862,158.49 395.195,152.99 403.5,147.5 Z"/></g>
<g><path style="opacity:0.825" fill="#8d3c76" d="M 135.5,166.5 C 127.446,165.767 124.446,161.434 126.5,153.5C 126.547,151.962 125.88,150.962 124.5,150.5C 124.866,149.305 125.699,148.639 127,148.5C 129.112,149.608 130.946,151.108 132.5,153C 130.502,158.247 131.502,162.747 135.5,166.5 Z"/></g>
<g><path style="opacity:1" fill="#893c72" d="M 184.5,162.5 C 181.549,162.713 178.882,162.046 176.5,160.5C 176.962,159.12 177.962,158.453 179.5,158.5C 181.499,159.508 183.166,160.841 184.5,162.5 Z"/></g>
<g><path style="opacity:1" fill="#fecc61" d="M 495.5,104.5 C 496.167,104.5 496.833,104.5 497.5,104.5C 493.945,137.504 487.278,169.838 477.5,201.5C 475.497,207.178 473.497,212.844 471.5,218.5C 470.596,217.791 470.263,216.791 470.5,215.5C 473.777,189.366 470.111,164.366 459.5,140.5C 459.5,138.5 459.5,136.5 459.5,134.5C 469.367,156.675 474.2,180.008 474,204.5C 484.806,171.97 491.973,138.637 495.5,104.5 Z"/></g>
<g><path style="opacity:1" fill="#8d3c76" d="M 149.5,161.5 C 151.5,161.5 153.5,161.5 155.5,161.5C 155.61,165.72 157.277,169.054 160.5,171.5C 153.683,171.685 150.016,168.351 149.5,161.5 Z"/></g>
<g><path style="opacity:1" fill="#fdb946" d="M 459.5,140.5 C 470.111,164.366 473.777,189.366 470.5,215.5C 468.698,220.237 466.698,224.904 464.5,229.5C 464.141,227.629 463.141,226.129 461.5,225C 445.833,212.667 430.167,200.333 414.5,188C 415.056,187.617 415.389,187.117 415.5,186.5C 416.391,185.89 417.391,185.557 418.5,185.5C 424.872,183.481 430.872,180.648 436.5,177C 449.412,168.595 456.745,156.762 458.5,141.5C 459.167,141.5 459.5,141.167 459.5,140.5 Z"/></g>
<g><path style="opacity:0.995" fill="#746ade" d="M 297.5,201.5 C 276.565,200.18 255.565,200.18 234.5,201.5C 236.01,207.872 237.676,214.205 239.5,220.5C 231.242,220.692 225.575,216.858 222.5,209C 214.173,208.5 205.84,208.334 197.5,208.5C 196.833,208.5 196.5,208.167 196.5,207.5C 197.521,198.041 199.188,188.707 201.5,179.5C 221.157,178.729 240.824,178.063 260.5,177.5C 271.167,177.667 281.833,177.833 292.5,178C 294.581,185.72 296.247,193.553 297.5,201.5 Z"/></g>
<g><path style="opacity:0.361" fill="#f47b53" d="M 100.5,186.5 C 94.0627,188.039 87.3961,188.706 80.5,188.5C 86.9592,187.187 93.6259,186.521 100.5,186.5 Z"/></g>
<g><path style="opacity:1" fill="#fcb148" d="M 415.5,186.5 C 415.389,187.117 415.056,187.617 414.5,188C 430.167,200.333 445.833,212.667 461.5,225C 463.141,226.129 464.141,227.629 464.5,229.5C 460.951,240.481 456.617,251.147 451.5,261.5C 431.864,246.009 412.197,230.509 392.5,215C 390.963,213.89 390.297,212.39 390.5,210.5C 391.07,203.22 392.737,196.22 395.5,189.5C 402.275,189.148 408.942,188.148 415.5,186.5 Z"/></g>
<g><path style="opacity:0.913" fill="#f37056" d="M 80.5,188.5 C 62.8849,191.636 46.5515,198.136 31.5,208C 22.7984,214.582 16.9651,223.082 14,233.5C 13.5,254.497 13.3334,275.497 13.5,296.5C 13.3334,310.837 13.5001,325.171 14,339.5C 14.7331,347.288 16.8997,354.621 20.5,361.5C 34.1007,389.105 53.7673,411.439 79.5,428.5C 88.4107,435.968 98.0774,442.468 108.5,448C 107.906,448.464 107.239,448.631 106.5,448.5C 100.203,446.348 94.2032,443.682 88.5,440.5C 75.3063,431.978 62.973,422.311 51.5,411.5C 42.4379,402.441 33.7712,393.108 25.5,383.5C 16.3572,370.875 10.1905,356.875 7,341.5C 6.02514,304.12 6.35847,266.787 8,229.5C 12.6361,217.862 20.4695,209.029 31.5,203C 46.791,194.625 63.1244,189.792 80.5,188.5 Z"/></g>
<g><path style="opacity:1" fill="#d6dbe5" d="M 323.5,160.5 C 339.242,179.535 359.576,189.202 384.5,189.5C 388.167,189.5 391.833,189.5 395.5,189.5C 392.737,196.22 391.07,203.22 390.5,210.5C 388.949,214.9 388.116,219.566 388,224.5C 387.795,238.548 386.961,252.548 385.5,266.5C 382.382,264.607 379.049,263.274 375.5,262.5C 369.879,261.646 364.212,261.313 358.5,261.5C 363.062,246.98 367.895,232.647 373,218.5C 371.174,216.926 369.007,216.093 366.5,216C 348.857,213.265 331.19,210.765 313.5,208.5C 313.5,208.167 313.5,207.833 313.5,207.5C 321.459,197.702 325.125,186.368 324.5,173.5C 324.351,169.141 324.017,164.808 323.5,160.5 Z"/></g>
<g><path style="opacity:1" fill="#febc45" d="M 100.5,186.5 C 126.532,185.1 151.865,188.6 176.5,197C 183.636,199.733 190.302,203.233 196.5,207.5C 196.5,208.167 196.833,208.5 197.5,208.5C 200.473,210.806 203.14,213.473 205.5,216.5C 204.71,217.401 203.71,218.068 202.5,218.5C 187.638,207.41 170.971,200.076 152.5,196.5C 119.338,189.732 86.6714,191.565 54.5,202C 42.5513,206.379 32.718,213.546 25,223.5C 22.7813,227.271 21.1146,231.271 20,235.5C 19.5003,243.827 19.3336,252.16 19.5,260.5C 19.5,271.5 19.5,282.5 19.5,293.5C 17.2163,293.975 15.2163,294.975 13.5,296.5C 13.3334,275.497 13.5,254.497 14,233.5C 16.9651,223.082 22.7984,214.582 31.5,208C 46.5515,198.136 62.8849,191.636 80.5,188.5C 87.3961,188.706 94.0627,188.039 100.5,186.5 Z"/></g>
<g><path style="opacity:1" fill="#f8984d" d="M 152.5,196.5 C 152.611,197.117 152.944,197.617 153.5,198C 145.5,202 137.5,206 129.5,210C 130.737,210.232 131.737,210.732 132.5,211.5C 121.193,210.423 109.86,210.257 98.5,211C 93.2721,211.296 88.2721,212.129 83.5,213.5C 70.3393,214.942 58.3393,219.442 47.5,227C 43.9084,229.921 41.0751,233.421 39,237.5C 38.5003,245.827 38.3336,254.16 38.5,262.5C 37.834,259.642 37.1674,256.642 36.5,253.5C 31.2549,256.039 26.0883,258.706 21,261.5C 20.6174,260.944 20.1174,260.611 19.5,260.5C 19.3336,252.16 19.5003,243.827 20,235.5C 21.1146,231.271 22.7813,227.271 25,223.5C 32.718,213.546 42.5513,206.379 54.5,202C 86.6714,191.565 119.338,189.732 152.5,196.5 Z"/></g>
<g><path style="opacity:0.999" fill="#fcb847" d="M 477.5,201.5 C 478.922,201.709 480.255,202.209 481.5,203C 494.682,213.75 508.015,224.25 521.5,234.5C 522.234,235.708 522.567,237.041 522.5,238.5C 528.482,250.097 531.149,262.431 530.5,275.5C 528.5,275.5 526.5,275.5 524.5,275.5C 505.812,260.15 486.812,245.15 467.5,230.5C 468.636,226.426 469.969,222.426 471.5,218.5C 473.497,212.844 475.497,207.178 477.5,201.5 Z"/></g>
<g><path style="opacity:1" fill="#25254e" d="M 313.5,208.5 C 331.19,210.765 348.857,213.265 366.5,216C 369.007,216.093 371.174,216.926 373,218.5C 367.895,232.647 363.062,246.98 358.5,261.5C 348.815,261.919 339.148,262.586 329.5,263.5C 313.239,264.131 297.239,263.131 281.5,260.5C 283.335,259.878 284.502,258.544 285,256.5C 291.667,240.5 298.333,224.5 305,208.5C 307.685,208.173 310.518,208.173 313.5,208.5 Z"/></g>
<g><path style="opacity:1" fill="#632c5c" d="M 132.5,211.5 C 133.833,211.5 135.167,211.5 136.5,211.5C 137.209,212.404 138.209,212.737 139.5,212.5C 139.5,214.167 139.5,215.833 139.5,217.5C 138.167,217.5 136.833,217.5 135.5,217.5C 118.445,215.898 101.445,216.231 84.5,218.5C 84.7845,216.585 84.4511,214.919 83.5,213.5C 88.2721,212.129 93.2721,211.296 98.5,211C 109.86,210.257 121.193,210.423 132.5,211.5 Z"/></g>
<g><path style="opacity:1" fill="#faaa49" d="M 390.5,210.5 C 390.297,212.39 390.963,213.89 392.5,215C 412.197,230.509 431.864,246.009 451.5,261.5C 447.264,271.641 442.264,281.307 436.5,290.5C 436.607,288.097 435.607,286.264 433.5,285C 424.002,282.001 414.335,279.834 404.5,278.5C 398.834,274.331 392.834,270.665 386.5,267.5C 386.5,266.833 386.167,266.5 385.5,266.5C 386.961,252.548 387.795,238.548 388,224.5C 388.116,219.566 388.949,214.9 390.5,210.5 Z"/></g>
<g><path style="opacity:1" fill="#f9a24b" d="M 152.5,196.5 C 170.971,200.076 187.638,207.41 202.5,218.5C 204.666,220.837 206.666,223.337 208.5,226C 203.603,228.608 198.937,231.441 194.5,234.5C 184.827,225.493 173.494,219.327 160.5,216C 152.538,214.268 144.538,212.768 136.5,211.5C 135.167,211.5 133.833,211.5 132.5,211.5C 131.737,210.732 130.737,210.232 129.5,210C 137.5,206 145.5,202 153.5,198C 152.944,197.617 152.611,197.117 152.5,196.5 Z"/></g>
<g><path style="opacity:1" fill="#f27953" d="M 135.5,217.5 C 141.853,218.726 148.186,220.059 154.5,221.5C 117.145,228.038 79.8114,234.704 42.5,241.5C 42.6079,239.217 43.4412,237.217 45,235.5C 56.379,225.899 69.5457,220.232 84.5,218.5C 101.445,216.231 118.445,215.898 135.5,217.5 Z"/></g>
<g><path style="opacity:1" fill="#8a74e9" d="M 297.5,201.5 C 298.807,206.066 299.474,210.733 299.5,215.5C 297.346,222.46 294.679,229.126 291.5,235.5C 280.869,239.842 270.036,240.508 259,237.5C 245.082,239.163 231.248,238.497 217.5,235.5C 215.259,228.009 211.259,221.676 205.5,216.5C 203.14,213.473 200.473,210.806 197.5,208.5C 205.84,208.334 214.173,208.5 222.5,209C 225.575,216.858 231.242,220.692 239.5,220.5C 237.676,214.205 236.01,207.872 234.5,201.5C 255.565,200.18 276.565,200.18 297.5,201.5 Z"/></g>
<g><path style="opacity:1" fill="#f58052" d="M 154.5,221.5 C 166.338,223.653 176.671,228.653 185.5,236.5C 137.96,245.702 90.2929,254.368 42.5,262.5C 42.5,255.5 42.5,248.5 42.5,241.5C 79.8114,234.704 117.145,228.038 154.5,221.5 Z"/></g>
<g><path style="opacity:1" fill="#fbbb4b" d="M 271.5,221.5 C 279.333,220.504 285.5,223.17 290,229.5C 290.667,230.833 290.667,232.167 290,233.5C 287.706,234.852 285.206,235.519 282.5,235.5C 275.191,234.65 267.858,234.316 260.5,234.5C 261.159,231.545 261.492,228.545 261.5,225.5C 265.297,225.128 268.63,223.794 271.5,221.5 Z"/></g>
<g><path style="opacity:1" fill="#3f2047" d="M 83.5,213.5 C 84.4511,214.919 84.7845,216.585 84.5,218.5C 69.5457,220.232 56.379,225.899 45,235.5C 43.4412,237.217 42.6079,239.217 42.5,241.5C 42.5,248.5 42.5,255.5 42.5,262.5C 42.5,268.833 42.5,275.167 42.5,281.5C 42.1698,300.341 42.5031,319.007 43.5,337.5C 44.4703,344.419 46.8037,350.752 50.5,356.5C 53.7297,362.727 57.7297,368.393 62.5,373.5C 66.1256,378.461 70.1256,383.128 74.5,387.5C 74.5,389.167 74.5,390.833 74.5,392.5C 66.0608,385.399 58.7275,377.399 52.5,368.5C 40.478,351.411 35.8114,332.411 38.5,311.5C 38.5,295.167 38.5,278.833 38.5,262.5C 38.3336,254.16 38.5003,245.827 39,237.5C 41.0751,233.421 43.9084,229.921 47.5,227C 58.3393,219.442 70.3393,214.942 83.5,213.5 Z"/></g>
<g><path style="opacity:0.985" fill="#6c69db" d="M 576.5,229.5 C 561.556,256.279 544.056,281.279 524,304.5C 523.517,303.552 523.351,302.552 523.5,301.5C 526.517,295.118 528.517,288.451 529.5,281.5C 530.461,279.735 530.795,277.735 530.5,275.5C 531.149,262.431 528.482,250.097 522.5,238.5C 535.102,227.467 549.769,222.967 566.5,225C 569.978,226.24 573.311,227.74 576.5,229.5 Z"/></g>
<g><path style="opacity:1" fill="#863970" d="M 136.5,211.5 C 144.538,212.768 152.538,214.268 160.5,216C 173.494,219.327 184.827,225.493 194.5,234.5C 195.32,236.14 196.153,237.807 197,239.5C 197.5,271.832 197.667,304.165 197.5,336.5C 196.161,343.851 193.827,350.851 190.5,357.5C 185.276,366.23 179.443,374.563 173,382.5C 167.263,388.741 161.097,394.408 154.5,399.5C 154.806,396.615 154.473,393.948 153.5,391.5C 159.87,385.132 165.87,378.465 171.5,371.5C 177.083,365.347 181.416,358.347 184.5,350.5C 186.462,347.135 187.962,343.468 189,339.5C 189.5,330.506 189.666,321.506 189.5,312.5C 189.5,299.167 189.5,285.833 189.5,272.5C 189.5,266.5 189.5,260.5 189.5,254.5C 189.666,249.821 189.499,245.155 189,240.5C 188.34,238.676 187.173,237.343 185.5,236.5C 176.671,228.653 166.338,223.653 154.5,221.5C 148.186,220.059 141.853,218.726 135.5,217.5C 136.833,217.5 138.167,217.5 139.5,217.5C 139.5,215.833 139.5,214.167 139.5,212.5C 138.209,212.737 137.209,212.404 136.5,211.5 Z"/></g>
<g><path style="opacity:1" fill="#fcb148" d="M 467.5,230.5 C 486.812,245.15 505.812,260.15 524.5,275.5C 501.121,275.341 478.454,279.174 456.5,287C 449.262,290.2 442.429,294.033 436,298.5C 447.276,276.277 457.776,253.61 467.5,230.5 Z"/></g>
<g><path style="opacity:0.99" fill="#6567d9" d="M 577.5,230.5 C 585.487,235.471 590.82,242.471 593.5,251.5C 576.848,260.309 560.848,269.809 545.5,280C 557.572,264.424 568.239,247.924 577.5,230.5 Z"/></g>
<g><path style="opacity:1" fill="#f68651" d="M 185.5,236.5 C 187.173,237.343 188.34,238.676 189,240.5C 189.499,245.155 189.666,249.821 189.5,254.5C 140.47,263.373 91.4697,272.373 42.5,281.5C 42.5,275.167 42.5,268.833 42.5,262.5C 90.2929,254.368 137.96,245.702 185.5,236.5 Z"/></g>
<g><path style="opacity:1" fill="#414582" d="M 308.5,206.5 C 310.292,206.366 311.958,206.699 313.5,207.5C 313.5,207.833 313.5,208.167 313.5,208.5C 310.518,208.173 307.685,208.173 305,208.5C 298.333,224.5 291.667,240.5 285,256.5C 284.502,258.544 283.335,259.878 281.5,260.5C 279.02,259.758 276.687,258.758 274.5,257.5C 270.08,253.777 265.414,250.277 260.5,247C 258.671,245.887 257.837,244.387 258,242.5C 258.414,242.043 258.914,241.709 259.5,241.5C 268.734,243.848 278.067,245.348 287.5,246C 289.254,242.659 290.587,239.159 291.5,235.5C 294.679,229.126 297.346,222.46 299.5,215.5C 301.105,212.88 302.438,210.047 303.5,207C 305.134,206.506 306.801,206.34 308.5,206.5 Z"/></g>
<g><path style="opacity:1" fill="#e3e7ee" d="M 219.5,250.5 C 220.167,250.5 220.833,250.5 221.5,250.5C 224.456,255.29 228.289,259.29 233,262.5C 233.86,265.633 235.36,268.3 237.5,270.5C 242.189,285.189 251.856,294.856 266.5,299.5C 280.653,300.922 294.987,301.922 309.5,302.5C 315.987,303.515 322.654,304.182 329.5,304.5C 335.501,305.833 341.501,307.167 347.5,308.5C 374.542,316.186 398.542,329.353 419.5,348C 426.422,354.918 432.589,362.418 438,370.5C 438.77,371.598 439.603,371.598 440.5,370.5C 440.975,372.784 441.975,374.784 443.5,376.5C 442.356,380.352 442.356,384.352 443.5,388.5C 445.527,388.662 447.527,388.495 449.5,388C 458.833,383.333 468.167,378.667 477.5,374C 481.964,371.723 484.631,368.223 485.5,363.5C 483.473,363.338 481.473,363.505 479.5,364C 469.661,368.671 459.328,371.171 448.5,371.5C 447.728,370.306 446.728,369.306 445.5,368.5C 445.923,367.735 446.257,366.902 446.5,366C 437.961,349.077 428.294,332.91 417.5,317.5C 418.167,317.5 418.833,317.5 419.5,317.5C 420.514,318.674 421.847,319.34 423.5,319.5C 440.992,325.775 458.659,331.442 476.5,336.5C 481.071,339.253 486.071,341.253 491.5,342.5C 516.928,351.606 542.595,359.94 568.5,367.5C 575.5,370.167 582.5,372.833 589.5,375.5C 589.671,377.993 588.671,379.826 586.5,381C 546.094,383.284 505.761,386.284 465.5,390C 415.931,411.451 366.597,433.451 317.5,456C 299.408,463.777 281.075,464.444 262.5,458C 231.024,444.76 199.691,431.26 168.5,417.5C 176.824,408.875 185.158,400.209 193.5,391.5C 212.043,401.59 231.71,404.757 252.5,401C 277.993,390.981 304.326,384.648 331.5,382C 293.937,354.257 256.27,326.757 218.5,299.5C 218.17,282.991 218.504,266.658 219.5,250.5 Z"/></g>
<g><path style="opacity:1" fill="#f8ac4a" d="M 205.5,216.5 C 211.259,221.676 215.259,228.009 217.5,235.5C 217.5,236.5 217.5,237.5 217.5,238.5C 217.773,240.451 217.107,241.951 215.5,243C 215.622,257.402 215.622,271.902 215.5,286.5C 210.193,289.153 204.86,291.82 199.5,294.5C 198.833,308.661 198.167,322.661 197.5,336.5C 197.667,304.165 197.5,271.832 197,239.5C 196.153,237.807 195.32,236.14 194.5,234.5C 198.937,231.441 203.603,228.608 208.5,226C 206.666,223.337 204.666,220.837 202.5,218.5C 203.71,218.068 204.71,217.401 205.5,216.5 Z"/></g>
<g><path style="opacity:1" fill="#f78d50" d="M 189.5,254.5 C 189.5,260.5 189.5,266.5 189.5,272.5C 173.789,275.396 158.122,278.396 142.5,281.5C 104.986,271.173 73.9864,281.006 49.5,311C 50.6502,312.981 51.9835,314.814 53.5,316.5C 50.1401,316.616 46.8067,316.949 43.5,317.5C 43.5,324.167 43.5,330.833 43.5,337.5C 42.5031,319.007 42.1698,300.341 42.5,281.5C 91.4697,272.373 140.47,263.373 189.5,254.5 Z"/></g>
<g><path style="opacity:1" fill="#a46ed5" d="M 217.5,235.5 C 231.248,238.497 245.082,239.163 259,237.5C 270.036,240.508 280.869,239.842 291.5,235.5C 290.587,239.159 289.254,242.659 287.5,246C 278.067,245.348 268.734,243.848 259.5,241.5C 258.914,241.709 258.414,242.043 258,242.5C 257.837,244.387 258.671,245.887 260.5,247C 265.414,250.277 270.08,253.777 274.5,257.5C 261.397,259.897 249.063,264.23 237.5,270.5C 235.36,268.3 233.86,265.633 233,262.5C 228.289,259.29 224.456,255.29 221.5,250.5C 221.068,249.29 220.401,248.29 219.5,247.5C 219.142,244.311 218.475,241.311 217.5,238.5C 217.5,237.5 217.5,236.5 217.5,235.5 Z"/></g>
<g><path style="opacity:1" fill="#58275a" d="M 274.5,257.5 C 276.687,258.758 279.02,259.758 281.5,260.5C 297.239,263.131 313.239,264.131 329.5,263.5C 323.021,264.491 316.354,264.824 309.5,264.5C 311.139,272.359 307.973,276.026 300,275.5C 290.71,274.275 282.21,270.942 274.5,265.5C 272.672,276.743 271.672,288.077 271.5,299.5C 269.833,299.5 268.167,299.5 266.5,299.5C 251.856,294.856 242.189,285.189 237.5,270.5C 249.063,264.23 261.397,259.897 274.5,257.5 Z"/></g>
<g><path style="opacity:1" fill="#7a336d" d="M 375.5,262.5 C 379.049,263.274 382.382,264.607 385.5,266.5C 386.167,266.5 386.5,266.833 386.5,267.5C 386.939,271.718 386.439,276.051 385,280.5C 381.6,283.414 378.1,286.08 374.5,288.5C 359.695,294.655 344.695,299.989 329.5,304.5C 322.654,304.182 315.987,303.515 309.5,302.5C 312.167,302.5 314.833,302.5 317.5,302.5C 317.714,292.068 318.714,281.735 320.5,271.5C 331.528,269.405 342.195,270.571 352.5,275C 363.597,277.119 371.263,272.952 375.5,262.5 Z"/></g>
<g><path style="opacity:1" fill="#673771" d="M 386.5,267.5 C 392.834,270.665 398.834,274.331 404.5,278.5C 404.833,279.167 405.167,279.833 405.5,280.5C 405.5,282.833 405.5,285.167 405.5,287.5C 404.18,288.942 402.514,289.608 400.5,289.5C 397.672,288.503 395.005,288.503 392.5,289.5C 390.153,287.956 387.486,287.289 384.5,287.5C 381.145,287.724 377.812,288.057 374.5,288.5C 378.1,286.08 381.6,283.414 385,280.5C 386.439,276.051 386.939,271.718 386.5,267.5 Z"/></g>
<g><path style="opacity:1" fill="#f8944f" d="M 189.5,272.5 C 189.5,285.833 189.5,299.167 189.5,312.5C 187.139,312.674 184.806,313.007 182.5,313.5C 183.412,312.262 183.579,310.928 183,309.5C 171.227,297.543 157.727,288.21 142.5,281.5C 158.122,278.396 173.789,275.396 189.5,272.5 Z"/></g>
<g><path style="opacity:1" fill="#672d62" d="M 358.5,261.5 C 364.212,261.313 369.879,261.646 375.5,262.5C 371.263,272.952 363.597,277.119 352.5,275C 342.195,270.571 331.528,269.405 320.5,271.5C 318.714,281.735 317.714,292.068 317.5,302.5C 314.833,302.5 312.167,302.5 309.5,302.5C 294.987,301.922 280.653,300.922 266.5,299.5C 268.167,299.5 269.833,299.5 271.5,299.5C 271.672,288.077 272.672,276.743 274.5,265.5C 282.21,270.942 290.71,274.275 300,275.5C 307.973,276.026 311.139,272.359 309.5,264.5C 316.354,264.824 323.021,264.491 329.5,263.5C 339.148,262.586 348.815,261.919 358.5,261.5 Z"/></g>
<g><path style="opacity:1" fill="#807be0" d="M 576.5,229.5 C 577.167,229.5 577.5,229.833 577.5,230.5C 568.239,247.924 557.572,264.424 545.5,280C 560.848,269.809 576.848,260.309 593.5,251.5C 594.338,251.842 594.672,252.508 594.5,253.5C 576.018,262.158 558.685,272.658 542.5,285C 526.58,304.922 509.247,323.589 490.5,341C 491.056,341.383 491.389,341.883 491.5,342.5C 486.071,341.253 481.071,339.253 476.5,336.5C 481.48,334.677 486.147,332.343 490.5,329.5C 498.405,326.433 505.405,321.933 511.5,316C 515.742,311.268 519.742,306.435 523.5,301.5C 523.351,302.552 523.517,303.552 524,304.5C 544.056,281.279 561.556,256.279 576.5,229.5 Z"/></g>
<g><path style="opacity:1" fill="#fefcfc" d="M 142.5,281.5 C 157.727,288.21 171.227,297.543 183,309.5C 183.579,310.928 183.412,312.262 182.5,313.5C 162.238,335.126 137.238,345.459 107.5,344.5C 96.4105,343.291 86.0772,339.791 76.5,334C 68.444,328.643 60.7773,322.81 53.5,316.5C 51.9835,314.814 50.6502,312.981 49.5,311C 73.9864,281.006 104.986,271.173 142.5,281.5 Z"/></g>
<g><path style="opacity:1" fill="#424172" d="M 404.5,278.5 C 414.335,279.834 424.002,282.001 433.5,285C 435.607,286.264 436.607,288.097 436.5,290.5C 435.005,290.989 433.671,291.655 432.5,292.5C 424.16,292.666 415.827,292.5 407.5,292C 404.896,291.61 402.562,290.776 400.5,289.5C 402.514,289.608 404.18,288.942 405.5,287.5C 408.139,286.294 408.972,284.294 408,281.5C 407.329,280.748 406.496,280.414 405.5,280.5C 405.167,279.833 404.833,279.167 404.5,278.5 Z"/></g>
<g><path style="opacity:1" fill="#6b69db" d="M 594.5,253.5 C 597.346,267.728 595.513,281.395 589,294.5C 585.333,300.167 581.667,305.833 578,311.5C 577.421,313.649 576.921,315.815 576.5,318C 579.366,327.318 580.532,336.818 580,346.5C 578.233,354.705 574.4,361.705 568.5,367.5C 542.595,359.94 516.928,351.606 491.5,342.5C 491.389,341.883 491.056,341.383 490.5,341C 509.247,323.589 526.58,304.922 542.5,285C 558.685,272.658 576.018,262.158 594.5,253.5 Z"/></g>
<g><path style="opacity:1" fill="#e8af4c" d="M 405.5,280.5 C 406.496,280.414 407.329,280.748 408,281.5C 408.972,284.294 408.139,286.294 405.5,287.5C 405.5,285.167 405.5,282.833 405.5,280.5 Z"/></g>
<g><path style="opacity:1" fill="#fbac49" d="M 529.5,281.5 C 528.517,288.451 526.517,295.118 523.5,301.5C 519.742,306.435 515.742,311.268 511.5,316C 505.405,321.933 498.405,326.433 490.5,329.5C 475.233,318.564 460.566,306.897 446.5,294.5C 463.829,285.996 482.162,280.829 501.5,279C 510.827,278.5 520.161,278.334 529.5,278.5C 529.5,279.5 529.5,280.5 529.5,281.5 Z"/></g>
<g><path style="opacity:1" fill="#77346d" d="M 133.5,290.5 C 131.413,291.585 130.08,293.251 129.5,295.5C 127.143,295.337 124.81,295.503 122.5,296C 121.934,296.995 121.267,297.828 120.5,298.5C 114.51,295.354 109.344,296.687 105,302.5C 102.339,307.278 101.839,312.278 103.5,317.5C 100.745,320.917 98.412,324.583 96.5,328.5C 86.443,314.945 87.443,302.111 99.5,290C 106.335,284.813 114.002,283.146 122.5,285C 126.776,285.805 130.443,287.638 133.5,290.5 Z"/></g>
<g><path style="opacity:1" fill="#432250" d="M 392.5,289.5 C 397.844,293.845 402.511,298.845 406.5,304.5C 404.037,306.461 401.703,308.628 399.5,311C 397.5,311.667 395.5,311.667 393.5,311C 386.556,300.292 377.223,297.625 365.5,303C 360.096,306.745 354.096,308.579 347.5,308.5C 341.501,307.167 335.501,305.833 329.5,304.5C 344.695,299.989 359.695,294.655 374.5,288.5C 377.812,288.057 381.145,287.724 384.5,287.5C 387.486,287.289 390.153,287.956 392.5,289.5 Z"/></g>
<g><path style="opacity:1" fill="#f6a14b" d="M 400.5,289.5 C 402.562,290.776 404.896,291.61 407.5,292C 415.827,292.5 424.16,292.666 432.5,292.5C 433.497,292.47 434.164,292.97 434.5,294C 430.775,302.842 425.775,310.675 419.5,317.5C 418.833,317.5 418.167,317.5 417.5,317.5C 414.209,312.873 410.542,308.54 406.5,304.5C 402.511,298.845 397.844,293.845 392.5,289.5C 395.005,288.503 397.672,288.503 400.5,289.5 Z"/></g>
<g><path style="opacity:1" fill="#fbbb64" d="M 470.5,215.5 C 470.263,216.791 470.596,217.791 471.5,218.5C 469.969,222.426 468.636,226.426 467.5,230.5C 457.776,253.61 447.276,276.277 436,298.5C 442.429,294.033 449.262,290.2 456.5,287C 478.454,279.174 501.121,275.341 524.5,275.5C 526.5,275.5 528.5,275.5 530.5,275.5C 530.795,277.735 530.461,279.735 529.5,281.5C 529.5,280.5 529.5,279.5 529.5,278.5C 520.161,278.334 510.827,278.5 501.5,279C 482.162,280.829 463.829,285.996 446.5,294.5C 440.923,297.543 435.757,301.21 431,305.5C 428.22,310.062 425.72,314.728 423.5,319.5C 421.847,319.34 420.514,318.674 419.5,317.5C 425.775,310.675 430.775,302.842 434.5,294C 434.164,292.97 433.497,292.47 432.5,292.5C 433.671,291.655 435.005,290.989 436.5,290.5C 442.264,281.307 447.264,271.641 451.5,261.5C 456.617,251.147 460.951,240.481 464.5,229.5C 466.698,224.904 468.698,220.237 470.5,215.5 Z"/></g>
<g><path style="opacity:1" fill="#faa34a" d="M 38.5,262.5 C 38.5,278.833 38.5,295.167 38.5,311.5C 32.7343,313.882 27.0677,316.549 21.5,319.5C 20.5886,310.847 19.9219,302.181 19.5,293.5C 19.5,282.5 19.5,271.5 19.5,260.5C 20.1174,260.611 20.6174,260.944 21,261.5C 26.0883,258.706 31.2549,256.039 36.5,253.5C 37.1674,256.642 37.834,259.642 38.5,262.5 Z"/></g>
<g><path style="opacity:1" fill="#f6f4f7" d="M 129.5,295.5 C 132.407,299.193 132.073,302.526 128.5,305.5C 123.318,305.982 120.651,303.649 120.5,298.5C 121.267,297.828 121.934,296.995 122.5,296C 124.81,295.503 127.143,295.337 129.5,295.5 Z"/></g>
<g><path style="opacity:1" fill="#faa64b" d="M 446.5,294.5 C 460.566,306.897 475.233,318.564 490.5,329.5C 486.147,332.343 481.48,334.677 476.5,336.5C 458.659,331.442 440.992,325.775 423.5,319.5C 425.72,314.728 428.22,310.062 431,305.5C 435.757,301.21 440.923,297.543 446.5,294.5 Z"/></g>
<g><path style="opacity:1" fill="#e9ecf2" d="M 218.5,299.5 C 256.27,326.757 293.937,354.257 331.5,382C 304.326,384.648 277.993,390.981 252.5,401C 231.71,404.757 212.043,401.59 193.5,391.5C 205.967,375.896 214.133,358.229 218,338.5C 218.5,325.504 218.667,312.504 218.5,299.5 Z"/></g>
<g><path style="opacity:1" fill="#fbad48" d="M 19.5,293.5 C 19.9219,302.181 20.5886,310.847 21.5,319.5C 27.0677,316.549 32.7343,313.882 38.5,311.5C 35.8114,332.411 40.478,351.411 52.5,368.5C 46.7299,370.551 41.0632,372.884 35.5,375.5C 31.7582,371.029 28.7582,366.029 26.5,360.5C 25.8333,360.167 25.1667,359.833 24.5,359.5C 23.3777,360.63 22.0443,361.297 20.5,361.5C 16.8997,354.621 14.7331,347.288 14,339.5C 13.5001,325.171 13.3334,310.837 13.5,296.5C 15.2163,294.975 17.2163,293.975 19.5,293.5 Z"/></g>
<g><path style="opacity:1" fill="#532758" d="M 133.5,290.5 C 145.09,301.448 146.59,313.782 138,327.5C 129.358,336.953 118.858,339.787 106.5,336C 102.561,334.209 99.228,331.709 96.5,328.5C 98.412,324.583 100.745,320.917 103.5,317.5C 110.848,327.333 119.015,328 128,319.5C 130.935,314.656 131.101,309.989 128.5,305.5C 132.073,302.526 132.407,299.193 129.5,295.5C 130.08,293.251 131.413,291.585 133.5,290.5 Z"/></g>
<g><path style="opacity:1" fill="#3f1e4c" d="M 120.5,298.5 C 120.651,303.649 123.318,305.982 128.5,305.5C 131.101,309.989 130.935,314.656 128,319.5C 119.015,328 110.848,327.333 103.5,317.5C 101.839,312.278 102.339,307.278 105,302.5C 109.344,296.687 114.51,295.354 120.5,298.5 Z"/></g>
<g><path style="opacity:1" fill="#572f65" d="M 406.5,304.5 C 410.542,308.54 414.209,312.873 417.5,317.5C 428.294,332.91 437.961,349.077 446.5,366C 446.257,366.902 445.923,367.735 445.5,368.5C 443.833,369.167 442.167,369.833 440.5,370.5C 439.603,371.598 438.77,371.598 438,370.5C 432.589,362.418 426.422,354.918 419.5,348C 398.542,329.353 374.542,316.186 347.5,308.5C 354.096,308.579 360.096,306.745 365.5,303C 377.223,297.625 386.556,300.292 393.5,311C 395.5,311.667 397.5,311.667 399.5,311C 401.703,308.628 404.037,306.461 406.5,304.5 Z"/></g>
<g><path style="opacity:1" fill="#fdbb45" d="M 215.5,286.5 C 215.667,304.17 215.5,321.836 215,339.5C 214.721,342.457 213.887,345.123 212.5,347.5C 212.565,347.062 212.399,346.728 212,346.5C 204.858,350.32 197.691,353.987 190.5,357.5C 193.827,350.851 196.161,343.851 197.5,336.5C 198.167,322.661 198.833,308.661 199.5,294.5C 204.86,291.82 210.193,289.153 215.5,286.5 Z"/></g>
<g><path style="opacity:1" fill="#f99e4c" d="M 53.5,316.5 C 60.7773,322.81 68.444,328.643 76.5,334C 86.0772,339.791 96.4105,343.291 107.5,344.5C 107.082,345.222 106.416,345.722 105.5,346C 86.991,349.304 68.6577,352.804 50.5,356.5C 46.8037,350.752 44.4703,344.419 43.5,337.5C 43.5,330.833 43.5,324.167 43.5,317.5C 46.8067,316.949 50.1401,316.616 53.5,316.5 Z"/></g>
<g><path style="opacity:1" fill="#faa54b" d="M 189.5,312.5 C 189.666,321.506 189.5,330.506 189,339.5C 187.962,343.468 186.462,347.135 184.5,350.5C 146.085,356.809 107.418,363.642 68.5,371C 66.0261,371.037 64.0261,371.87 62.5,373.5C 57.7297,368.393 53.7297,362.727 50.5,356.5C 68.6577,352.804 86.991,349.304 105.5,346C 106.416,345.722 107.082,345.222 107.5,344.5C 137.238,345.459 162.238,335.126 182.5,313.5C 184.806,313.007 187.139,312.674 189.5,312.5 Z"/></g>
<g><path style="opacity:1" fill="#fec244" d="M 212.5,347.5 C 207.802,363.563 199.969,377.897 189,390.5C 171.272,409.901 151.439,426.734 129.5,441C 124.338,443.129 119.005,443.796 113.5,443C 103.446,437.647 93.7789,431.814 84.5,425.5C 80.8333,422.167 77.1667,418.833 73.5,415.5C 79.2706,412.281 85.2706,409.614 91.5,407.5C 100.504,414.003 109.837,420.003 119.5,425.5C 132.312,418.352 143.978,409.686 154.5,399.5C 161.097,394.408 167.263,388.741 173,382.5C 179.443,374.563 185.276,366.23 190.5,357.5C 197.691,353.987 204.858,350.32 212,346.5C 212.399,346.728 212.565,347.062 212.5,347.5 Z"/></g>
<g><path style="opacity:1" fill="#fbab49" d="M 184.5,350.5 C 181.416,358.347 177.083,365.347 171.5,371.5C 139.751,375.98 108.084,381.647 76.5,388.5C 75.8333,388.167 75.1667,387.833 74.5,387.5C 70.1256,383.128 66.1256,378.461 62.5,373.5C 64.0261,371.87 66.0261,371.037 68.5,371C 107.418,363.642 146.085,356.809 184.5,350.5 Z"/></g>
<g><path style="opacity:1" fill="#f6ad4d" d="M 445.5,368.5 C 446.728,369.306 447.728,370.306 448.5,371.5C 450.482,376.852 448.815,378.518 443.5,376.5C 441.975,374.784 440.975,372.784 440.5,370.5C 442.167,369.833 443.833,369.167 445.5,368.5 Z"/></g>
<g><path style="opacity:1" fill="#fbb147" d="M 171.5,371.5 C 165.87,378.465 159.87,385.132 153.5,391.5C 142.254,401.791 130.254,411.125 117.5,419.5C 102.868,410.361 89.2015,400.028 76.5,388.5C 108.084,381.647 139.751,375.98 171.5,371.5 Z"/></g>
<g><path style="opacity:1" fill="#424479" d="M 443.5,376.5 C 448.815,378.518 450.482,376.852 448.5,371.5C 459.328,371.171 469.661,368.671 479.5,364C 481.473,363.505 483.473,363.338 485.5,363.5C 484.631,368.223 481.964,371.723 477.5,374C 468.167,378.667 458.833,383.333 449.5,388C 447.527,388.495 445.527,388.662 443.5,388.5C 442.356,384.352 442.356,380.352 443.5,376.5 Z"/></g>
<g><path style="opacity:0.979" fill="#fafafb" d="M 589.5,375.5 C 598.528,376.5 600.861,381 596.5,389C 593.173,389.61 589.839,390.11 586.5,390.5C 564.499,391.556 542.499,392.722 520.5,394C 516.075,414.284 511.075,434.451 505.5,454.5C 499.474,479.604 492.974,504.604 486,529.5C 480.644,543.2 470.811,551.366 456.5,554C 421.5,554.667 386.5,554.667 351.5,554C 347.654,553.987 344.321,552.82 341.5,550.5C 335.864,543.491 334.031,535.491 336,526.5C 342.841,501.801 349.674,477.134 356.5,452.5C 356.167,451.833 355.833,451.167 355.5,450.5C 341.861,456.826 328.194,462.826 314.5,468.5C 300.372,471.555 286.372,471.055 272.5,467C 236.594,451.545 200.594,436.378 164.5,421.5C 165.5,419.833 166.833,418.5 168.5,417.5C 199.691,431.26 231.024,444.76 262.5,458C 281.075,464.444 299.408,463.777 317.5,456C 366.597,433.451 415.931,411.451 465.5,390C 505.761,386.284 546.094,383.284 586.5,381C 588.671,379.826 589.671,377.993 589.5,375.5 Z"/></g>
<g><path style="opacity:0.861" fill="#d9dae2" d="M 25.5,383.5 C 33.7712,393.108 42.4379,402.441 51.5,411.5C 42.8607,409.098 35.3607,404.765 29,398.5C 25.9922,393.947 24.8256,388.947 25.5,383.5 Z"/></g>
<g><path style="opacity:1" fill="#fcbb45" d="M 52.5,368.5 C 58.7275,377.399 66.0608,385.399 74.5,392.5C 79.8698,397.872 85.5365,402.872 91.5,407.5C 85.2706,409.614 79.2706,412.281 73.5,415.5C 58.4369,404.437 45.7702,391.104 35.5,375.5C 41.0632,372.884 46.7299,370.551 52.5,368.5 Z"/></g>
<g><path style="opacity:0.965" fill="#97a6b7" d="M 586.5,390.5 C 559.721,412.063 532.721,433.397 505.5,454.5C 511.075,434.451 516.075,414.284 520.5,394C 542.499,392.722 564.499,391.556 586.5,390.5 Z"/></g>
<g><path style="opacity:1" fill="#f79452" d="M 217.5,238.5 C 218.475,241.311 219.142,244.311 219.5,247.5C 219.5,248.5 219.5,249.5 219.5,250.5C 218.504,266.658 218.17,282.991 218.5,299.5C 218.667,312.504 218.5,325.504 218,338.5C 214.133,358.229 205.967,375.896 193.5,391.5C 185.158,400.209 176.824,408.875 168.5,417.5C 166.833,418.5 165.5,419.833 164.5,421.5C 161.911,422.419 159.911,424.086 158.5,426.5C 148.458,433.866 138.125,440.866 127.5,447.5C 126.391,447.557 125.391,447.89 124.5,448.5C 118.349,449.664 112.349,449.664 106.5,448.5C 107.239,448.631 107.906,448.464 108.5,448C 98.0774,442.468 88.4107,435.968 79.5,428.5C 80.8993,427.11 82.5659,426.11 84.5,425.5C 93.7789,431.814 103.446,437.647 113.5,443C 119.005,443.796 124.338,443.129 129.5,441C 151.439,426.734 171.272,409.901 189,390.5C 199.969,377.897 207.802,363.563 212.5,347.5C 213.887,345.123 214.721,342.457 215,339.5C 215.5,321.836 215.667,304.17 215.5,286.5C 215.622,271.902 215.622,257.402 215.5,243C 217.107,241.951 217.773,240.451 217.5,238.5 Z"/></g>
<g><path style="opacity:1" fill="#3e3e70" d="M 407.5,543.5 C 407.5,534.833 407.5,526.167 407.5,517.5C 421.591,518.311 434.258,514.478 445.5,506C 470.015,486.476 479.515,461.309 474,430.5C 469.25,419.415 461.083,412.249 449.5,409C 468.994,397.792 489.994,392.959 512.5,394.5C 512.663,396.857 512.497,399.19 512,401.5C 500.863,441.713 490.197,482.047 480,522.5C 477.532,532.307 471.698,539.14 462.5,543C 444.17,543.5 425.836,543.667 407.5,543.5 Z"/></g>
<g><path style="opacity:1" fill="#f99c4c" d="M 35.5,375.5 C 45.7702,391.104 58.4369,404.437 73.5,415.5C 77.1667,418.833 80.8333,422.167 84.5,425.5C 82.5659,426.11 80.8993,427.11 79.5,428.5C 53.7673,411.439 34.1007,389.105 20.5,361.5C 22.0443,361.297 23.3777,360.63 24.5,359.5C 25.1667,359.833 25.8333,360.167 26.5,360.5C 28.7582,366.029 31.7582,371.029 35.5,375.5 Z"/></g>
<g><path style="opacity:1" fill="#602c5b" d="M 74.5,387.5 C 75.1667,387.833 75.8333,388.167 76.5,388.5C 89.2015,400.028 102.868,410.361 117.5,419.5C 130.254,411.125 142.254,401.791 153.5,391.5C 154.473,393.948 154.806,396.615 154.5,399.5C 143.978,409.686 132.312,418.352 119.5,425.5C 109.837,420.003 100.504,414.003 91.5,407.5C 85.5365,402.872 79.8698,397.872 74.5,392.5C 74.5,390.833 74.5,389.167 74.5,387.5 Z"/></g>
<g><path style="opacity:1" fill="#c4cdd9" d="M 164.5,421.5 C 200.594,436.378 236.594,451.545 272.5,467C 286.372,471.055 300.372,471.555 314.5,468.5C 306.714,472.27 298.714,475.77 290.5,479C 286.5,479.667 282.5,479.667 278.5,479C 238.275,461.768 198.275,444.268 158.5,426.5C 159.911,424.086 161.911,422.419 164.5,421.5 Z"/></g>
<g><path style="opacity:1" fill="#3e3f73" d="M 423.5,503.5 C 421.509,478.522 420.843,453.189 421.5,427.5C 431.918,421.515 442.585,421.015 453.5,426C 461.604,432.042 465.604,440.209 465.5,450.5C 463.437,474.364 451.77,491.531 430.5,502C 428.187,502.662 425.854,503.162 423.5,503.5 Z"/></g>
<g><path style="opacity:0.992" fill="#d7dde7" d="M 158.5,426.5 C 198.275,444.268 238.275,461.768 278.5,479C 282.5,479.667 286.5,479.667 290.5,479C 298.714,475.77 306.714,472.27 314.5,468.5C 328.194,462.826 341.861,456.826 355.5,450.5C 355.833,451.167 356.167,451.833 356.5,452.5C 349.674,477.134 342.841,501.801 336,526.5C 334.031,535.491 335.864,543.491 341.5,550.5C 306.833,534.167 272.167,517.833 237.5,501.5C 237.167,500.167 236.833,500.167 236.5,501.5C 234.747,499.777 232.747,498.277 230.5,497C 195.832,480.998 161.498,464.498 127.5,447.5C 138.125,440.866 148.458,433.866 158.5,426.5 Z"/></g>
<g><path style="opacity:1" fill="#40437a" d="M 421.5,427.5 C 420.843,453.189 421.509,478.522 423.5,503.5C 403.079,505.597 392.746,496.097 392.5,475C 394.132,454.232 403.799,438.399 421.5,427.5 Z"/></g>
<g><path style="opacity:1" fill="#40437b" d="M 407.5,517.5 C 407.5,526.167 407.5,534.833 407.5,543.5C 388.497,543.667 369.497,543.5 350.5,543C 345.434,539.999 343.101,535.499 343.5,529.5C 350.279,501.659 357.779,473.992 366,446.5C 377.694,440.724 389.527,435.557 401.5,431C 382.592,450.702 377.092,473.536 385,499.5C 389.963,508.625 397.463,514.625 407.5,517.5 Z"/></g>
<g><path style="opacity:1" fill="#7072a1" d="M 449.5,437.5 C 458.207,437.037 461.707,441.037 460,449.5C 456.59,460.549 449.924,463.549 440,458.5C 437.791,448.927 440.957,441.927 449.5,437.5 Z"/></g>
<g><path style="opacity:0.988" fill="#d7dde7" d="M 88.5,440.5 C 94.2032,443.682 100.203,446.348 106.5,448.5C 112.349,449.664 118.349,449.664 124.5,448.5C 134.178,458.178 143.512,468.178 152.5,478.5C 153.949,479.172 155.282,479.839 156.5,480.5C 155.475,480.897 155.308,481.563 156,482.5C 189.376,515.376 222.209,548.709 254.5,582.5C 253.469,583.7 252.635,585.034 252,586.5C 248.611,605.892 244.944,625.225 241,644.5C 240.088,649.464 239.588,654.464 239.5,659.5C 234.482,653.81 229.815,647.81 225.5,641.5C 207.231,616.9 188.231,592.9 168.5,569.5C 168.5,568.833 168.167,568.5 167.5,568.5C 142.169,534.533 116.336,500.866 90,467.5C 88.0627,464.086 86.896,460.419 86.5,456.5C 87.4486,451.194 88.1152,445.861 88.5,440.5 Z"/></g>
<g><path style="opacity:1" fill="#c4ccd7" d="M 127.5,447.5 C 161.498,464.498 195.832,480.998 230.5,497C 232.747,498.277 234.747,499.777 236.5,501.5C 236.833,501.5 237.167,501.5 237.5,501.5C 240.547,504.545 243.213,507.878 245.5,511.5C 245.565,511.938 245.399,512.272 245,512.5C 215.542,501.736 186.042,491.069 156.5,480.5C 155.282,479.839 153.949,479.172 152.5,478.5C 143.512,468.178 134.178,458.178 124.5,448.5C 125.391,447.89 126.391,447.557 127.5,447.5 Z"/></g>
<g><path style="opacity:0.986" fill="#f2f4f7" d="M 156.5,480.5 C 186.042,491.069 215.542,501.736 245,512.5C 245.399,512.272 245.565,511.938 245.5,511.5C 256.393,523.606 267.06,535.94 277.5,548.5C 277.5,558.833 277.5,569.167 277.5,579.5C 270.426,579.161 263.426,579.661 256.5,581C 260.092,584.016 262.258,587.849 263,592.5C 264.447,605.197 266.114,617.863 268,630.5C 269.349,634.533 271.682,637.866 275,640.5C 275.5,647.826 275.666,655.159 275.5,662.5C 273.901,662.232 272.568,662.566 271.5,663.5C 262.186,664.484 252.852,664.651 243.5,664C 241.356,663.208 240.023,661.708 239.5,659.5C 239.588,654.464 240.088,649.464 241,644.5C 244.944,625.225 248.611,605.892 252,586.5C 252.635,585.034 253.469,583.7 254.5,582.5C 222.209,548.709 189.376,515.376 156,482.5C 155.308,481.563 155.475,480.897 156.5,480.5 Z"/></g>
<g><path style="opacity:0.966" fill="#3f4179" d="M 167.5,568.5 C 168.167,568.5 168.5,568.833 168.5,569.5C 188.231,592.9 207.231,616.9 225.5,641.5C 172.242,615.204 119.242,588.371 66.5,561C 56.7886,553.12 54.9552,543.62 61,532.5C 67.1451,525.912 74.6451,523.745 83.5,526C 111.398,540.449 139.398,554.615 167.5,568.5 Z"/></g>
<g><path style="opacity:0.974" fill="#fefefe" d="M 277.5,548.5 C 286.801,558.639 295.968,568.973 305,579.5C 306.739,581.71 307.906,584.21 308.5,587C 303.539,610.136 298.706,633.303 294,656.5C 292.878,658.624 291.378,660.457 289.5,662C 283.535,662.963 277.535,663.463 271.5,663.5C 272.568,662.566 273.901,662.232 275.5,662.5C 275.666,655.159 275.5,647.826 275,640.5C 271.682,637.866 269.349,634.533 268,630.5C 266.114,617.863 264.447,605.197 263,592.5C 262.258,587.849 260.092,584.016 256.5,581C 263.426,579.661 270.426,579.161 277.5,579.5C 277.5,569.167 277.5,558.833 277.5,548.5 Z"/></g>
<g><path style="opacity:1" fill="#fbfbfc" d="M 217.5,568.5 C 228.366,568.85 234.866,574.517 237,585.5C 238.634,596.59 237.301,607.257 233,617.5C 226.154,626.442 218.821,626.776 211,618.5C 204.639,605.447 203.972,592.114 209,578.5C 210.978,574.362 213.811,571.029 217.5,568.5 Z"/></g>
<g><path style="opacity:1" fill="#98a7b8" d="M 218.5,572.5 C 222.35,572.178 225.517,573.511 228,576.5C 235.244,589.791 235.244,603.125 228,616.5C 222.694,621.979 217.694,621.645 213,615.5C 207.933,604.423 207.266,593.09 211,581.5C 212.642,577.7 215.142,574.7 218.5,572.5 Z"/></g>
</svg>
