<?xml version="1.0" encoding="UTF-8"?>
<!DOCTYPE svg PUBLIC "-//W3C//DTD SVG 1.1//EN" "http://www.w3.org/Graphics/SVG/1.1/DTD/svg11.dtd">
<svg xmlns="http://www.w3.org/2000/svg" version="1.1" width="1814px" height="196px" style="shape-rendering:geometricPrecision; text-rendering:geometricPrecision; image-rendering:optimizeQuality; fill-rule:evenodd; clip-rule:evenodd" xmlns:xlink="http://www.w3.org/1999/xlink">
<g><path style="opacity:0.93" fill="#d1e7f6" d="M 158.5,-0.5 C 167.833,-0.5 177.167,-0.5 186.5,-0.5C 203.931,2.70403 219.598,9.8707 233.5,21C 276.629,36.2948 313.796,60.4614 345,93.5C 345.667,94.1667 345.667,94.8333 345,95.5C 313.819,127.324 277.319,151.157 235.5,167C 204.662,190.644 170.996,195.644 134.5,182C 126.333,178.087 118.667,173.42 111.5,168C 68.6844,152.105 31.3511,127.939 -0.5,95.5C -0.5,94.5 -0.5,93.5 -0.5,92.5C 31.8378,60.3131 69.5045,36.1464 112.5,20C 126.123,9.18699 141.456,2.35366 158.5,-0.5 Z M 166.5,11.5 C 205.042,11.5785 232.542,28.9119 249,63.5C 262.769,107.751 250.269,142.251 211.5,167C 177.796,182.747 146.462,179.08 117.5,156C 88.845,127.056 82.6784,93.8895 99,56.5C 113.931,30.0563 136.431,15.0563 166.5,11.5 Z M 90.5,144.5 C 63.4341,131.758 39.1007,115.091 17.5,94.5C 39.1738,73.8182 63.5071,56.8182 90.5,43.5C 86.6143,51.9289 83.1143,60.9289 80,70.5C 74.0628,96.5392 77.5628,121.206 90.5,144.5 Z M 253.5,43.5 C 280.736,56.5689 305.402,73.4022 327.5,94C 305.766,115.059 281.266,132.226 254,145.5C 272.16,111.532 271.994,77.5318 253.5,43.5 Z"/></g>
<g><path style="opacity:0.933" fill="#1b61bf" d="M 156.5,16.5 C 171.022,16.528 176.189,23.528 172,37.5C 166.004,44.0823 159.171,45.0823 151.5,40.5C 125.515,52.4579 113.348,72.7912 115,101.5C 121.462,132.794 140.628,149.794 172.5,152.5C 207.753,148.747 227.086,129.247 230.5,94C 228.58,65.2975 213.913,46.7975 186.5,38.5C 186.5,33.8333 186.5,29.1667 186.5,24.5C 210.396,29.0458 227.562,42.3792 238,64.5C 251.42,101.341 242.587,131.507 211.5,155C 175.715,173.716 143.881,168.55 116,139.5C 95.7247,110.081 95.3914,80.4139 115,50.5C 123.369,39.8898 133.869,32.0564 146.5,27C 148.715,22.288 152.049,18.788 156.5,16.5 Z"/></g>
<g><path style="opacity:0.981" fill="#1b61bf" d="M 1725.5,26.5 C 1749.22,23.2627 1770.55,28.7627 1789.5,43C 1810.21,64.189 1816.04,89.0223 1807,117.5C 1799.21,138.155 1784.71,151.655 1763.5,158C 1733.82,166.069 1707.66,159.903 1685,139.5C 1667.61,117.499 1663.61,93.1657 1673,66.5C 1683.61,44.1138 1701.11,30.7805 1725.5,26.5 Z M 1733.5,71.5 C 1750.38,69.8987 1760.05,77.3987 1762.5,94C 1758.78,112.694 1747.78,119.361 1729.5,114C 1718.83,107.657 1715,98.4908 1718,86.5C 1719.45,83.0879 1721.29,79.9212 1723.5,77C 1726.77,74.8703 1730.1,73.037 1733.5,71.5 Z"/></g>
<g><path style="opacity:0.982" fill="#1b61bf" d="M 1160.5,27.5 C 1187.86,27.1036 1215.19,27.6036 1242.5,29C 1262.32,32.8243 1274.16,44.6577 1278,64.5C 1280.18,78.2155 1278.18,91.2155 1272,103.5C 1269.17,107.667 1265.67,111.167 1261.5,114C 1267.7,128.92 1273.7,143.92 1279.5,159C 1262.49,159.833 1245.49,159.666 1228.5,158.5C 1224.04,146.613 1219.87,134.613 1216,122.5C 1213.62,121.565 1211.12,121.232 1208.5,121.5C 1208.5,134.167 1208.5,146.833 1208.5,159.5C 1192.5,159.5 1176.5,159.5 1160.5,159.5C 1160.5,115.5 1160.5,71.5 1160.5,27.5 Z M 1208.5,65.5 C 1213.57,65.3399 1218.57,65.8399 1223.5,67C 1231.5,74.3333 1231.5,81.6667 1223.5,89C 1218.57,90.1601 1213.57,90.6601 1208.5,90.5C 1208.5,82.1667 1208.5,73.8333 1208.5,65.5 Z"/></g>
<g><path style="opacity:0.985" fill="#1b61bf" d="M 1287.5,27.5 C 1309.84,27.3334 1332.17,27.5 1354.5,28C 1382.36,30.5286 1394.86,45.6953 1392,73.5C 1391.05,78.9016 1388.88,83.735 1385.5,88C 1396.85,98.7207 1401.02,111.887 1398,127.5C 1393.65,144.515 1382.82,154.681 1365.5,158C 1339.5,158.5 1313.5,158.667 1287.5,158.5C 1287.5,114.833 1287.5,71.1667 1287.5,27.5 Z M 1332.5,66.5 C 1337.18,66.3342 1341.85,66.5008 1346.5,67C 1350.08,69.9263 1350.41,73.2596 1347.5,77C 1342.58,78.2503 1337.58,78.7503 1332.5,78.5C 1332.5,74.5 1332.5,70.5 1332.5,66.5 Z M 1332.5,107.5 C 1338.51,107.334 1344.51,107.501 1350.5,108C 1354.7,110.981 1355.53,114.814 1353,119.5C 1352.25,120.126 1351.42,120.626 1350.5,121C 1344.51,121.499 1338.51,121.666 1332.5,121.5C 1332.5,116.833 1332.5,112.167 1332.5,107.5 Z"/></g>
<g><path style="opacity:0.981" fill="#1b61bf" d="M 1427.5,27.5 C 1451.83,27.5 1476.17,27.5 1500.5,27.5C 1509.99,71.1359 1519.33,114.803 1528.5,158.5C 1512.17,158.5 1495.83,158.5 1479.5,158.5C 1478.59,150.82 1477.59,143.153 1476.5,135.5C 1468.17,135.5 1459.83,135.5 1451.5,135.5C 1450.41,143.153 1449.41,150.82 1448.5,158.5C 1432.17,158.5 1415.83,158.5 1399.5,158.5C 1408.67,114.803 1418.01,71.1359 1427.5,27.5 Z M 1461.5,70.5 C 1463.47,70.2606 1465.3,70.5939 1467,71.5C 1468.23,81.0888 1469.73,90.5888 1471.5,100C 1466.5,100.667 1461.5,100.667 1456.5,100C 1458.21,90.1723 1459.88,80.3389 1461.5,70.5 Z"/></g>
<g><path style="opacity:0.986" fill="#1b61bf" d="M 1034.5,28.5 C 1050.5,28.5 1066.5,28.5 1082.5,28.5C 1082.33,55.1687 1082.5,81.8354 1083,108.5C 1083.08,114.577 1086.08,118.244 1092,119.5C 1097.92,118.244 1100.92,114.577 1101,108.5C 1101.5,81.8354 1101.67,55.1687 1101.5,28.5C 1117.5,28.5 1133.5,28.5 1149.5,28.5C 1149.67,57.1686 1149.5,85.8353 1149,114.5C 1143.32,146.173 1124.32,161.839 1092,161.5C 1059.68,161.839 1040.68,146.173 1035,114.5C 1034.5,85.8353 1034.33,57.1686 1034.5,28.5 Z"/></g>
<g><path style="opacity:0.985" fill="#1b61bf" d="M 1534.5,28.5 C 1550.84,28.3334 1567.17,28.5001 1583.5,29C 1592.29,46.7567 1600.96,64.59 1609.5,82.5C 1611.05,83.4519 1612.71,83.7852 1614.5,83.5C 1614.5,65.1667 1614.5,46.8333 1614.5,28.5C 1629.17,28.5 1643.83,28.5 1658.5,28.5C 1658.5,72.1667 1658.5,115.833 1658.5,159.5C 1641.5,159.5 1624.5,159.5 1607.5,159.5C 1599.79,141.082 1591.79,122.749 1583.5,104.5C 1581.95,103.548 1580.29,103.215 1578.5,103.5C 1578.5,122.167 1578.5,140.833 1578.5,159.5C 1563.83,159.5 1549.17,159.5 1534.5,159.5C 1534.5,115.833 1534.5,72.1667 1534.5,28.5 Z"/></g>
<g><path style="opacity:0.973" fill="#d1e7f6" d="M 438.5,30.5 C 455.239,29.8567 471.739,30.5234 488,32.5C 498.012,74.214 508.179,115.881 518.5,157.5C 508.856,158.498 499.19,158.832 489.5,158.5C 487.654,147.781 485.488,137.114 483,126.5C 469.896,125.178 456.729,125.178 443.5,126.5C 440.911,137.114 438.577,147.78 436.5,158.5C 427.167,158.5 417.833,158.5 408.5,158.5C 418.5,115.833 428.5,73.1667 438.5,30.5 Z M 458.5,54.5 C 462.03,53.9889 465.196,54.6556 468,56.5C 471.31,72.2202 474.81,87.8869 478.5,103.5C 468.522,104.499 458.522,104.832 448.5,104.5C 451.705,87.8101 455.038,71.1434 458.5,54.5 Z"/></g>
<g><path style="opacity:0.985" fill="#d1e7f6" d="M 532.5,30.5 C 541.5,30.5 550.5,30.5 559.5,30.5C 559.5,65.5 559.5,100.5 559.5,135.5C 570.167,135.5 580.833,135.5 591.5,135.5C 591.5,143.167 591.5,150.833 591.5,158.5C 571.833,158.5 552.167,158.5 532.5,158.5C 532.5,115.833 532.5,73.1667 532.5,30.5 Z"/></g>
<g><path style="opacity:0.982" fill="#d1e7f6" d="M 606.5,30.5 C 633.5,30.5 660.5,30.5 687.5,30.5C 687.5,38.1667 687.5,45.8333 687.5,53.5C 669.5,53.5 651.5,53.5 633.5,53.5C 633.5,62.5 633.5,71.5 633.5,80.5C 650.833,80.5 668.167,80.5 685.5,80.5C 685.5,87.1667 685.5,93.8333 685.5,100.5C 668.167,100.5 650.833,100.5 633.5,100.5C 633.5,112.167 633.5,123.833 633.5,135.5C 652.167,135.5 670.833,135.5 689.5,135.5C 689.5,143.167 689.5,150.833 689.5,158.5C 661.833,158.5 634.167,158.5 606.5,158.5C 606.5,115.833 606.5,73.1667 606.5,30.5 Z"/></g>
<g><path style="opacity:0.976" fill="#d1e7f6" d="M 705.5,30.5 C 727.503,30.3334 749.503,30.5 771.5,31C 798.449,37.0198 809.949,53.8531 806,81.5C 803.337,93.8225 796.504,102.989 785.5,109C 792.924,125.678 799.924,142.512 806.5,159.5C 796.81,159.832 787.144,159.498 777.5,158.5C 771.099,143.624 765.099,128.624 759.5,113.5C 750.5,113.5 741.5,113.5 732.5,113.5C 732.5,128.833 732.5,144.167 732.5,159.5C 723.5,159.5 714.5,159.5 705.5,159.5C 705.5,116.5 705.5,73.5 705.5,30.5 Z M 732.5,52.5 C 741.506,52.3336 750.506,52.5002 759.5,53C 776.596,56.683 782.096,66.8497 776,83.5C 771.877,89.6479 766.043,92.8145 758.5,93C 749.84,93.4998 741.173,93.6664 732.5,93.5C 732.5,79.8333 732.5,66.1667 732.5,52.5 Z"/></g>
<g><path style="opacity:0.983" fill="#d1e7f6" d="M 814.5,30.5 C 841.5,30.5 868.5,30.5 895.5,30.5C 895.5,38.1667 895.5,45.8333 895.5,53.5C 886.5,53.5 877.5,53.5 868.5,53.5C 868.5,88.8333 868.5,124.167 868.5,159.5C 859.5,159.5 850.5,159.5 841.5,159.5C 841.5,124.167 841.5,88.8333 841.5,53.5C 832.5,53.5 823.5,53.5 814.5,53.5C 814.5,45.8333 814.5,38.1667 814.5,30.5 Z"/></g>
<g><path style="opacity:0.973" fill="#d1e7f6" d="M 916.5,30.5 C 933.239,29.8567 949.739,30.5234 966,32.5C 976.012,74.214 986.179,115.881 996.5,157.5C 986.856,158.498 977.19,158.832 967.5,158.5C 965.654,147.781 963.488,137.114 961,126.5C 947.896,125.178 934.729,125.178 921.5,126.5C 918.911,137.114 916.577,147.78 914.5,158.5C 905.167,158.5 895.833,158.5 886.5,158.5C 896.5,115.833 906.5,73.1667 916.5,30.5 Z M 936.5,54.5 C 940.03,53.9889 943.196,54.6556 946,56.5C 949.31,72.2202 952.81,87.8869 956.5,103.5C 946.522,104.499 936.522,104.832 926.5,104.5C 929.705,87.8101 933.038,71.1434 936.5,54.5 Z"/></g>
<g><path style="opacity:0.947" fill="#1b61bf" d="M 168.5,60.5 C 178.664,59.502 184.664,64.002 186.5,74C 185.649,78.3644 183.983,82.3644 181.5,86C 184.747,100.07 187.414,114.237 189.5,128.5C 177.814,128.832 166.148,128.499 154.5,127.5C 157.5,113.5 160.5,99.5 163.5,85.5C 155.823,75.2166 157.49,66.8833 168.5,60.5 Z"/></g>
</svg>
